SplineFontDB: 3.2
FontName: SeriousShannsBold
FullName: Serious Shanns Bold
FamilyName: Serious Shanns Bold
Weight: Bold
Copyright: https://github.com/kaBeech/serious-shanns/blob/main/LICENSE
Version: 6.0.0
ItalicAngle: 0
UnderlinePosition: 0
UnderlineWidth: 0
Ascent: 800
Descent: 200
InvalidEm: 0
sfntRevision: 0x00003333
LayerCount: 2
Layer: 0 0 "Back" 1
Layer: 1 0 "Fore" 0
XUID: [1021 45 630387186 1689187]
StyleMap: 0x0040
FSType: 4
OS2Version: 3
OS2_WeightWidthSlopeOnly: 0
OS2_UseTypoMetrics: 0
CreationTime: 1532631502
ModificationTime: 315532800
PfmFamily: 81
TTFWeight: 700
TTFWidth: 5
LineGap: 0
VLineGap: 0
Panose: 0 0 0 0 0 0 0 0 0 0
OS2TypoAscent: 613
OS2TypoAOffset: 0
OS2TypoDescent: -188
OS2TypoDOffset: 0
OS2TypoLinegap: 98
OS2WinAscent: 778
OS2WinAOffset: 0
OS2WinDescent: 308
OS2WinDOffset: 0
HheadAscent: 796
HheadAOffset: 0
HheadDescent: -317
HheadDOffset: 0
OS2SubXSize: 317
OS2SubYSize: 293
OS2SubXOff: 0
OS2SubYOff: 37
OS2SupXSize: 317
OS2SupYSize: 293
OS2SupXOff: 0
OS2SupYOff: 171
OS2StrikeYSize: 0
OS2StrikeYPos: 132
OS2CapHeight: 576
OS2XHeight: 485
OS2Vendor: 'NONE'
OS2CodePages: 00000001.00000000
OS2UnicodeRanges: 00000001.00000000.00000000.00000000
MarkAttachClasses: 1
DEI: 91125
LangName: 1033 "" "" "Normal" "" "" "Version 0.2.0"
Encoding: UnicodeBmp
Compacted: 1
UnicodeInterp: none
NameList: AGL For New Fonts
DisplaySize: -48
AntiAlias: 1
FitToEm: 0
WinInfo: 0 16 14
BeginPrivate: 9
BlueValues 32 [-39 -6 502 523 708 718 765 769]
OtherBlues 11 [-297 -287]
BlueScale 9 0.0291667
BlueShift 1 2
StdHW 5 [110]
StdVW 5 [128]
StemSnapH 5 [110]
StemSnapV 9 [128 134]
ForceBold 4 true
EndPrivate
BeginChars: 65537 105

StartChar: .notdef
Encoding: 65536 -1 0
Width: 600
GlyphClass: 1
Flags: W
HStem: -280 78<152 448> 683 78<152 448>
VStem: 74 78<-202 683> 448 78<-202 683>
LayerCount: 2
Fore
SplineSet
74 -280 m 1
 74 761 l 1
 526 761 l 1
 526 -280 l 1
 74 -280 l 1
152 683 m 1
 152 -202 l 1
 448 -202 l 1
 448 683 l 1
 152 683 l 1
EndSplineSet
Validated: 1
EndChar

StartChar: exclam
Encoding: 33 33 1
Width: 600
GlyphClass: 2
Flags: W
HStem: -37.002 179.001<242.867 359.872>
VStem: 206.002 187.036<-3.98231 106.918> 240 122.001<248.311 379.795> 248 115.001<294.405 784.434>
LayerCount: 2
Fore
SplineSet
370 738 m 0x90
 370 732 368.66796875 694.665039062 366.000976562 625.998046875 c 0
 364.000976562 557.331054688 363.000976562 502.331054688 363.000976562 460.998046875 c 0
 363.000976562 441.665039062 363.333984375 421.33203125 364.000976562 399.999023438 c 0
 364.66796875 379.33203125 365.000976562 361.33203125 365.000976562 345.999023438 c 0
 365.000976562 330.666015625 364.333984375 320.333007812 363.000976562 315 c 0x90
 362.333984375 309.666992188 362.000976562 302.666992188 362.000976562 294 c 0xa0
 362.000976562 285.333007812 362.333984375 277.333007812 363.000976562 270 c 0x90
 361.000976562 251.333007812 353.66796875 237 341.000976562 227 c 0
 329.66796875 217.666992188 316.000976562 212.666992188 300.000976562 212 c 2
 296.000976562 212 l 2
 279.333984375 212 265.666992188 218 255 230 c 0
 245 240 240 253.333007812 240 270 c 0xa0
 240 278 241.333007812 288.333007812 244 301 c 0
 246 314.333007812 247.333007812 324 248 330 c 0
 248.666992188 336 249 346.333007812 249 361 c 2
 249 402 l 2
 249 415.333007812 248.666992188 435.666015625 248 462.999023438 c 0
 246.666992188 494.999023438 246 525.666015625 246 554.999023438 c 2
 246 623.999023438 l 2
 246.666992188 640.666015625 247.333984375 661.333007812 248.000976562 686 c 0
 248.66796875 710.666992188 249.000976562 727 249.000976562 735 c 1
 249.66796875 756.333007812 256.000976562 773 268.000976562 785 c 0
 279.333984375 796.333007812 293.666992188 802 311 802 c 2
 314 802 l 2
 330 802 343.333007812 796.666992188 354 786 c 0
 364.666992188 775.333007812 370 759.333007812 370 738 c 0x90
292.000976562 -37.001953125 m 2
 268.66796875 -37.001953125 249.001953125 -29.0009765625 233.001953125 -13.0009765625 c 0
 215.001953125 5.666015625 206.001953125 27.9990234375 206.001953125 53.9990234375 c 0
 206.001953125 77.9990234375 216.001953125 98.33203125 236.001953125 114.999023438 c 0
 256.668945312 132.999023438 279.668945312 141.999023438 305.001953125 141.999023438 c 0
 330.334960938 141.999023438 351.334960938 133.999023438 368.001953125 117.999023438 c 0
 384.692382812 101.30859375 393.038085938 81.2177734375 393.038085938 57.7255859375 c 0xc0
 393.038085938 44.673828125 392.46875 17.443359375 369.000976562 -7.001953125 c 0
 352.333984375 -23.6689453125 330.333984375 -33.6689453125 303.000976562 -37.001953125 c 2
 292.000976562 -37.001953125 l 2
EndSplineSet
Validated: 524289
EndChar

StartChar: quotedbl
Encoding: 34 34 2
Width: 600
GlyphClass: 2
Flags: W
VStem: 155 122.001<438.439 586.418> 158 127<442.249 783.227> 315.001 130<442.134 783.794>
LayerCount: 2
Fore
SplineSet
445.000976562 738 m 2x20
 445.000976562 719 l 2
 445.000976562 685 444.669921875 641.666992188 444.002929688 589 c 0
 442.669921875 533.666992188 440.669921875 495 438.002929688 473 c 0
 435.3359375 456.333007812 427.668945312 443.666015625 415.001953125 434.999023438 c 0
 404.334960938 426.999023438 392.66796875 422.999023438 380.000976562 422.999023438 c 0
 363.333984375 422.999023438 348.333984375 427.999023438 335.000976562 437.999023438 c 0
 322.333984375 447.33203125 316.000976562 459.999023438 316.000976562 475.999023438 c 2
 316.000976562 481.999023438 l 2
 317.333984375 504.666015625 318.000976562 531.999023438 318.000976562 563.999023438 c 0
 318.000976562 631.33203125 317.000976562 690.999023438 315.000976562 742.999023438 c 2
 315.000976562 745.999023438 l 2
 315.000976562 755.33203125 317.333984375 763.83203125 322.000976562 771.499023438 c 0
 326.66796875 779.166015625 333.334960938 784.666015625 342.001953125 787.999023438 c 0
 354.001953125 792.666015625 366.001953125 795.333007812 378.001953125 796 c 0
 388.001953125 796 396.168945312 795 402.501953125 793 c 0
 408.834960938 791 415.001953125 788.333007812 421.001953125 785 c 0
 428.334960938 781 434.16796875 774.833007812 438.500976562 766.5 c 0
 442.833984375 758.166992188 445.000976562 748.666992188 445.000976562 738 c 2x20
285 739 m 2x60
 285 697 l 2x60
 285 677.666992188 284.333984375 641.666992188 283.000976562 589 c 0
 281.66796875 533.666992188 279.66796875 495 277.000976562 473 c 0
 274.333984375 456.333007812 267.000976562 443.666015625 255.000976562 434.999023438 c 0
 244.333984375 426.999023438 232.666992188 422.999023438 220 422.999023438 c 0
 203.333007812 422.999023438 188 427.999023438 174 437.999023438 c 0
 161.333007812 447.33203125 155 459.999023438 155 475.999023438 c 0xa0
 155 477.999023438 155.333007812 480.33203125 156 482.999023438 c 0
 157.5 502.498046875 158.25 525.185546875 158.25 551.059570312 c 0
 158.25 559.684570312 158.166992188 568.665039062 158 577.999023438 c 2
 158 611.999023438 l 2
 157.333007812 679.33203125 156 724.33203125 154 746.999023438 c 0
 154 755.666015625 156.333007812 763.666015625 161 770.999023438 c 0
 166.333007812 778.999023438 173 784.666015625 181 787.999023438 c 0
 193 792.666015625 205.333007812 795.333007812 218 796 c 0
 228 796 236.166992188 795 242.5 793 c 0
 248.833007812 791 255.333007812 788 262 784 c 0
 268.666992188 780 274 774 278 766 c 0
 282 758 284.333007812 749 285 739 c 2x60
EndSplineSet
Validated: 524289
EndChar

StartChar: numbersign
Encoding: 35 35 3
Width: 600
GlyphClass: 2
Flags: W
HStem: -13.999 20.9004G<126.333 134.333 352.998 360.998> 179.001 107.003<40.5032 100 248.003 320.999 466 533.621> 433.004 109<79.4746 151 297.999 367.003 511 556.404>
LayerCount: 2
Fore
SplineSet
367.002929688 433.00390625 m 1
 277.002929688 433.00390625 l 1
 248.002929688 286.00390625 l 1
 272.002929688 286.670898438 302.669921875 287.001953125 340.002929688 287.001953125 c 1
 349.3359375 334.334960938 358.3359375 383.00390625 367.002929688 433.00390625 c 1
151 431 m 1
 133 430.333007812 123.002929688 430.333007812 121.002929688 431 c 0
 103.002929688 431 89.0029296875 435.334960938 79.0029296875 444.001953125 c 0
 67.669921875 454.001953125 61.669921875 466.668945312 61.0029296875 482.001953125 c 2
 61.0029296875 485.001953125 l 2
 61.0029296875 499.001953125 66.3330078125 511.334960938 77 522.001953125 c 0
 87.6669921875 532.668945312 103.002929688 538.3359375 123.002929688 539.002929688 c 0
 134.3359375 539.669921875 150.668945312 540.002929688 172.001953125 540.002929688 c 1
 199.001953125 686.002929688 l 2
 205.001953125 706.669921875 215.334960938 720.669921875 230.001953125 728.002929688 c 0
 239.334960938 733.3359375 249.334960938 736.3359375 260.001953125 737.002929688 c 0
 264.668945312 737.002929688 269.33203125 736.3359375 273.999023438 735.002929688 c 0
 291.33203125 731.669921875 304.668945312 723.336914062 314.001953125 710.00390625 c 0
 320.668945312 700.670898438 324.001953125 689.670898438 324.001953125 677.00390625 c 0
 324.001953125 671.00390625 323.334960938 665.00390625 322.001953125 659.00390625 c 2
 297.999023438 542.00390625 l 1
 386.001953125 542.00390625 l 1
 411.001953125 678.00390625 l 2
 417.001953125 699.336914062 427.334960938 714.00390625 442.001953125 722.00390625 c 0
 451.334960938 727.336914062 461.334960938 730.00390625 472.001953125 730.00390625 c 0
 477.334960938 730.00390625 482.334960938 729.3359375 487.001953125 728.002929688 c 0
 504.334960938 724.669921875 517.66796875 716.337890625 527.000976562 703.004882812 c 0
 533.000976562 694.337890625 536.333007812 684.004882812 537 672.004882812 c 0
 537 665.337890625 536 658.337890625 534 651.004882812 c 0
 527.333007812 626.337890625 519.666992188 590.337890625 511 543.004882812 c 1
 529 542.337890625 544.333007812 537.004882812 557 527.004882812 c 0
 570.333007812 515.671875 577.333007812 503.004882812 578 489.004882812 c 0
 578 473.671875 573 460.671875 563 450.004882812 c 0
 553 439.337890625 538 433.670898438 518 433.00390625 c 2
 517 433.00390625 l 1
 491 433.00390625 l 1
 466 286.00390625 l 1
 493 286.00390625 l 2
 512.333007812 286.00390625 526 281.336914062 534 272.00390625 c 0
 542 262.670898438 546.666992188 251.00390625 548 237.00390625 c 2
 548 236.00390625 l 2
 548 220.00390625 544.333007812 207.336914062 537 198.00390625 c 0
 527.666992188 186.00390625 513 180.00390625 493 180.00390625 c 2
 448 180.00390625 l 1
 435.333007812 109.336914062 426 60.669921875 420 34.0029296875 c 0
 413.333007812 16.0029296875 401.666015625 2.669921875 384.999023438 -5.9970703125 c 0
 375.3984375 -11.3974609375 365.797851562 -14.0986328125 356.197265625 -14.0986328125 c 0
 352.998046875 -13.9990234375 l 0
 347.665039062 -13.9990234375 342.33203125 -13.33203125 336.999023438 -11.9990234375 c 0
 320.999023438 -8.666015625 308.999023438 1.6689453125 300.999023438 19.001953125 c 0
 296.999023438 28.3349609375 294.666015625 37.66796875 293.999023438 47.0009765625 c 0
 293.999023438 55.0009765625 295.33203125 63.333984375 297.999023438 72.0009765625 c 0
 303.999023438 96.0009765625 311.666015625 131.66796875 320.999023438 179.000976562 c 1
 273.999023438 179.000976562 l 2
 254.666015625 179.000976562 238.999023438 178.66796875 226.999023438 178.000976562 c 1
 208.999023438 88.0009765625 198.999023438 41.0009765625 196.999023438 37.0009765625 c 0
 190.999023438 20.333984375 179.666015625 7.0009765625 162.999023438 -2.9990234375 c 0
 150.999023438 -10.33203125 139.666015625 -13.9990234375 128.999023438 -13.9990234375 c 0
 123.666015625 -13.9990234375 118.333007812 -13.33203125 113 -11.9990234375 c 0
 97 -8.666015625 85 2.333984375 77 21.0009765625 c 0
 73 30.333984375 71 39.333984375 71 48.0009765625 c 0
 71 57.333984375 72.6669921875 66.6669921875 76 76 c 0
 80.6669921875 92 88.6669921875 125.666992188 100 177 c 1
 85 177 l 2
 65.6669921875 177 50.6669921875 181 40 189 c 0
 28 197.666992188 22 209.666992188 22 225 c 2
 22 228 l 2
 22 242 27 254.333007812 37 265 c 0
 47 275 62 280.666992188 82 282 c 0
 87.3330078125 282 94.3330078125 282.333007812 103 283 c 2
 122 283 l 1
 151 431 l 1
EndSplineSet
Validated: 524289
EndChar

StartChar: dollar
Encoding: 36 36 4
Width: 600
GlyphClass: 2
Flags: W
HStem: -32.0029 106.998<179.387 238.001>
VStem: 49.001 118<485.148 581.759> 243.001 117.001<-87.3984 -32.0029 92.9971 317.997 456.997 612.974> 451.033 117.967<146.588 273.466>
LayerCount: 2
Fore
SplineSet
335.5 -130 m 0
 322.5 -140 307.333984375 -145.002929688 290.000976562 -145.002929688 c 2
 288.000976562 -145.002929688 l 2
 270.000976562 -145.002929688 256.333984375 -139.002929688 247.000976562 -127.002929688 c 0
 239.66796875 -118.3359375 236.000976562 -106.668945312 236.000976562 -92.001953125 c 0
 236.000976562 -88.6689453125 236.333984375 -82.8359375 237.000976562 -74.5029296875 c 0
 237.66796875 -66.169921875 238.000976562 -52.0029296875 238.000976562 -32.0029296875 c 1
 214.000976562 -31.3359375 191.000976562 -28.0029296875 169.000976562 -22.0029296875 c 0
 147.000976562 -16.0029296875 128.000976562 -8.0029296875 112.000976562 1.9970703125 c 0
 80.0009765625 21.9970703125 56.333984375 45.9970703125 41.0009765625 73.9970703125 c 0
 34.333984375 88.6640625 31.0009765625 101.997070312 31.0009765625 113.997070312 c 0
 31.0009765625 117.997070312 31.333984375 121.6640625 32.0009765625 124.997070312 c 0
 35.333984375 140.330078125 44.6669921875 151.330078125 60 157.997070312 c 0
 68.6669921875 161.997070312 75.333984375 164.497070312 80.0009765625 165.497070312 c 0
 84.66796875 166.497070312 88.66796875 166.997070312 92.0009765625 166.997070312 c 0
 95.333984375 166.997070312 98.333984375 166.6640625 101.000976562 165.997070312 c 0
 109.000976562 165.330078125 116.333984375 162.163085938 123.000976562 156.49609375 c 0
 129.66796875 150.829101562 136.66796875 143.329101562 144.000976562 133.99609375 c 0
 157.333984375 115.329101562 172.333984375 100.662109375 189.000976562 89.9951171875 c 0
 203.000976562 81.328125 220.333984375 76.328125 241.000976562 74.9951171875 c 1
 242.333984375 174.328125 243.000976562 263.661132812 243.000976562 342.994140625 c 1
 241.000976562 342.994140625 237.333984375 343.661132812 232.000976562 344.994140625 c 0
 228.000976562 345.661132812 222.66796875 345.994140625 216.000976562 345.994140625 c 0
 188.66796875 348.661132812 163.66796875 355.328125 141.000976562 365.995117188 c 0
 120.333984375 376.662109375 103.333984375 389.329101562 90.0009765625 403.99609375 c 0
 76.66796875 418.663085938 66.5009765625 434.330078125 59.5009765625 450.997070312 c 0
 52.5009765625 467.6640625 49.0009765625 484.6640625 49.0009765625 501.997070312 c 0
 49.0009765625 526.6640625 52.833984375 550.331054688 60.5009765625 572.998046875 c 0
 68.16796875 595.665039062 80.0009765625 616.83203125 96.0009765625 636.499023438 c 0
 112.000976562 656.166015625 133.333984375 672.999023438 160.000976562 686.999023438 c 0
 185.333984375 699.666015625 213.666992188 708.999023438 245 714.999023438 c 1
 245.666992188 728.33203125 246 743.999023438 246 761.999023438 c 1
 246.666992188 793.999023438 257.666992188 814.33203125 279 822.999023438 c 0
 286.333007812 825.666015625 295.333007812 826.999023438 306 826.999023438 c 0
 328 826.999023438 344 819.999023438 354 805.999023438 c 0
 361.333007812 795.999023438 365.333007812 782.33203125 366 764.999023438 c 2
 366 723.999023438 l 1
 381.333007812 722.666015625 401.666015625 718.999023438 426.999023438 712.999023438 c 0
 452.33203125 707.666015625 471.665039062 702.666015625 484.998046875 697.999023438 c 0
 500.331054688 692.666015625 511.6640625 683.666015625 518.997070312 670.999023438 c 0
 524.330078125 661.666015625 526.997070312 651.999023438 526.997070312 641.999023438 c 0
 526.997070312 638.666015625 526.6640625 635.333007812 525.997070312 632 c 0
 524.6640625 622 520.831054688 613.833007812 514.498046875 607.5 c 0
 508.165039062 601.166992188 500.33203125 597.333984375 490.999023438 596.000976562 c 0
 486.33203125 595.333984375 482.33203125 595.000976562 478.999023438 595.000976562 c 0
 475.666015625 595.000976562 471.833007812 595.16796875 467.5 595.500976562 c 0
 463.166992188 595.833984375 457.666992188 597.000976562 451 599.000976562 c 0
 443.666992188 600.333984375 435 603.333984375 425 608.000976562 c 0
 405 616.66796875 384.666992188 621.66796875 364 623.000976562 c 1
 362.666992188 558.333984375 361.666992188 497.000976562 361 439.000976562 c 1
 391 434.333984375 418.666992188 427.333984375 444 418.000976562 c 0
 468 408.000976562 487.833007812 396.000976562 503.5 382.000976562 c 0
 519.166992188 368.000976562 532.166992188 352.000976562 542.5 334.000976562 c 0
 552.833007812 316.000976562 559.833007812 298.333984375 563.5 281.000976562 c 0
 567.166992188 263.66796875 569 245.66796875 569 227.000976562 c 0
 569 195.66796875 563.5 166.16796875 552.5 138.500976562 c 0
 541.5 110.833984375 526.166992188 86.6669921875 506.5 66 c 0
 486.833007812 45.3330078125 464 27.666015625 438 12.9990234375 c 0
 413.333007812 -0.333984375 386.333007812 -10.6669921875 357 -18 c 1
 357 -52 357.666992188 -75.3330078125 359 -88 c 0
 356.333007812 -106 348.5 -120 335.5 -130 c 0
192.000976562 584.997070312 m 0
 175.333984375 569.6640625 167.000976562 551.6640625 167.000976562 530.997070312 c 0
 167.000976562 512.997070312 174.66796875 497.330078125 190.000976562 483.997070312 c 0
 203.333984375 471.997070312 221.000976562 462.997070312 243.000976562 456.997070312 c 1
 243.66796875 498.330078125 244.000976562 551.330078125 244.000976562 615.997070312 c 1
 223.333984375 607.997070312 206.000976562 597.6640625 192.000976562 584.997070312 c 0
421.000976562 136.997070312 m 0
 441.021484375 157.017578125 451.033203125 179.85546875 451.033203125 205.506835938 c 0
 451.033203125 214.470703125 450.657226562 226.20703125 447.001953125 238.998046875 c 0
 444.334960938 248.331054688 439.334960938 258.6640625 432.001953125 269.997070312 c 0
 419.334960938 288.6640625 395.334960938 304.6640625 360.001953125 317.997070312 c 1
 359.334960938 241.330078125 358.834960938 191.330078125 358.501953125 167.997070312 c 0
 358.168945312 144.6640625 357.668945312 119.6640625 357.001953125 92.9970703125 c 1
 382.334960938 104.997070312 403.66796875 119.6640625 421.000976562 136.997070312 c 0
EndSplineSet
Validated: 524289
EndChar

StartChar: percent
Encoding: 37 37 5
Width: 600
GlyphClass: 2
Flags: W
HStem: -40.0039 101.001<409.767 474.748> 158.997 98<412.893 480.969> 420 98.9961<121.254 187.684> 607.996 97.0039<123.146 192.393>
VStem: 16.998 96.001<530.28 596.587> 200.998 103.001<529.373 597.165> 295.998 104.999<72.8275 145.526> 487.999 94.999<71.4058 144.619>
LayerCount: 2
Fore
SplineSet
31.5 491.5 m 0xfd
 21.8330078125 511.833007812 16.998046875 533.333007812 16.998046875 556 c 2
 16.998046875 558 l 2
 16.998046875 600 29.498046875 635 54.498046875 663 c 0
 79.498046875 691 115.665039062 705 162.998046875 705 c 0
 203.665039062 705 237.33203125 693 263.999023438 669 c 0
 277.999023438 656.333007812 288.666015625 640 295.999023438 620 c 0
 301.33203125 604 303.999023438 586 303.999023438 566 c 0
 303.999023438 516 289.666015625 478.333007812 260.999023438 453 c 0
 235.666015625 431 197.999023438 420 147.999023438 420 c 0
 120.666015625 420 96.8330078125 426.833007812 76.5 440.5 c 0
 56.1669921875 454.166992188 41.1669921875 471.166992188 31.5 491.5 c 0xfd
64.998046875 -45 m 0
 56.3310546875 -41 49.3310546875 -36.00390625 43.998046875 -30.00390625 c 0
 36.6650390625 -22.00390625 32.998046875 -12.50390625 32.998046875 -1.50390625 c 0
 32.998046875 9.49609375 36.3310546875 21.3291015625 42.998046875 33.99609375 c 0
 56.998046875 61.99609375 90.3310546875 120.329101562 142.998046875 208.99609375 c 0
 256.331054688 387.663085938 312.998046875 477.330078125 312.998046875 477.997070312 c 0
 369.665039062 567.997070312 407.665039062 632.6640625 426.998046875 671.997070312 c 1
 426.998046875 664.6640625 427.331054688 664.997070312 427.998046875 672.997070312 c 1
 438.665039062 687.6640625 452.33203125 696.331054688 468.999023438 698.998046875 c 0
 473.666015625 700.331054688 478.333007812 700.998046875 483 700.998046875 c 0
 493.666992188 700.998046875 504 698.331054688 514 692.998046875 c 0
 529.333007812 685.665039062 538 675.33203125 540 661.999023438 c 0
 540.666992188 659.33203125 541 656.665039062 541 653.998046875 c 0
 541 642.665039062 536.666992188 630.33203125 528 616.999023438 c 0
 503.333007812 577.666015625 441.666015625 477.333007812 342.999023438 316 c 0
 242.33203125 154.666992188 175.665039062 45.6669921875 142.998046875 -11 c 0
 127.665039062 -37.6669921875 109.665039062 -51 88.998046875 -51 c 0
 81.6650390625 -51 73.6650390625 -49 64.998046875 -45 c 0
189.498046875 597.49609375 m 0
 181.831054688 604.49609375 169.998046875 607.99609375 153.998046875 607.99609375 c 0
 141.331054688 607.99609375 131.998046875 604.329101562 125.998046875 596.99609375 c 0
 118.665039062 588.329101562 114.33203125 575.99609375 112.999023438 559.99609375 c 2
 112.999023438 556.99609375 l 2
 112.999023438 544.99609375 115.666015625 535.99609375 120.999023438 529.99609375 c 0
 126.33203125 523.99609375 138.665039062 520.329101562 157.998046875 518.99609375 c 2
 158.998046875 518.99609375 l 2
 171.665039062 518.99609375 181.33203125 522.329101562 187.999023438 528.99609375 c 0
 195.33203125 536.99609375 199.665039062 547.663085938 200.998046875 560.99609375 c 2
 200.998046875 563.99609375 l 2
 200.998046875 579.329101562 197.165039062 590.49609375 189.498046875 597.49609375 c 0
311.498046875 34.49609375 m 0
 301.165039062 55.49609375 295.998046875 77.9970703125 295.998046875 101.997070312 c 2
 295.998046875 103.997070312 l 2xfb
 295.998046875 147.997070312 309.665039062 184.497070312 336.998046875 213.497070312 c 0
 364.331054688 242.497070312 402.331054688 256.997070312 450.998046875 256.997070312 c 0
 488.998046875 256.997070312 520.998046875 244.6640625 546.998046875 219.997070312 c 0
 560.331054688 207.330078125 569.998046875 189.997070312 575.998046875 167.997070312 c 0
 580.665039062 151.997070312 582.998046875 134.330078125 582.998046875 114.997070312 c 0
 582.998046875 108.330078125 582.665039062 101.663085938 581.998046875 94.99609375 c 0
 579.998046875 50.99609375 567.331054688 17.49609375 543.998046875 -5.50390625 c 0
 520.665039062 -28.50390625 485.665039062 -40.00390625 438.998046875 -40.00390625 c 2
 433.998046875 -40.00390625 l 2
 405.998046875 -39.3369140625 381.165039062 -32.00390625 359.498046875 -18.00390625 c 0
 337.831054688 -4.00390625 321.831054688 13.49609375 311.498046875 34.49609375 c 0
445.998046875 60.9970703125 m 0
 446.665039062 60.9970703125 447.666992188 60.6640625 449 59.9970703125 c 0
 461 59.9970703125 469.666992188 63.6640625 475 70.9970703125 c 0
 482.333007812 79.6640625 486.666015625 91.6640625 487.999023438 106.997070312 c 2
 487.999023438 108.997070312 l 2
 487.999023438 124.997070312 484.999023438 136.997070312 478.999023438 144.997070312 c 0
 472.33203125 154.330078125 460.665039062 158.997070312 443.998046875 158.997070312 c 0
 431.331054688 158.997070312 421.6640625 154.6640625 414.997070312 145.997070312 c 0
 406.997070312 135.997070312 402.330078125 122.6640625 400.997070312 105.997070312 c 2
 400.997070312 102.997070312 l 2
 400.997070312 89.6640625 403.830078125 79.4970703125 409.497070312 72.4970703125 c 0
 415.1640625 65.4970703125 427.331054688 61.6640625 445.998046875 60.9970703125 c 0
EndSplineSet
Validated: 524289
EndChar

StartChar: ampersand
Encoding: 38 38 6
Width: 600
GlyphClass: 2
Flags: W
HStem: -53.9932 118<187.517 313.75> 633.005 103<243.922 333.087>
VStem: 28.998 124.001<100.286 273.189> 115.998 119.001<504.635 620.91> 349.999 108<508.115 617.229>
LayerCount: 2
Fore
SplineSet
557 11 m 0xd8
 557 7.6669921875 556.666015625 4.0048828125 555.999023438 0.0048828125 c 0
 553.33203125 -23.328125 545.33203125 -38.6611328125 531.999023438 -45.994140625 c 0
 519.33203125 -50.6611328125 511.33203125 -52.994140625 507.999023438 -52.994140625 c 2
 506.999023438 -52.994140625 l 2
 498.33203125 -52.994140625 488.999023438 -50.6611328125 478.999023438 -45.994140625 c 0
 461.666015625 -37.3271484375 446.999023438 -22.3271484375 434.999023438 -0.994140625 c 0
 432.999023438 2.3388671875 429.83203125 9.8388671875 425.499023438 21.505859375 c 0
 421.166015625 33.1728515625 417.999023438 41.6728515625 415.999023438 47.005859375 c 1
 400.999023438 27.505859375 l 2
 397.666015625 23.1728515625 391.999023438 16.83984375 383.999023438 8.5068359375 c 0
 375.999023438 0.173828125 369.166015625 -6.326171875 363.499023438 -10.9931640625 c 0
 357.83203125 -15.66015625 350.165039062 -21.16015625 340.498046875 -27.4931640625 c 0
 330.831054688 -33.826171875 321.331054688 -38.4931640625 311.998046875 -41.4931640625 c 0
 302.665039062 -44.4931640625 291.998046875 -47.326171875 279.998046875 -49.9931640625 c 0
 267.998046875 -52.66015625 255.665039062 -53.9931640625 242.998046875 -53.9931640625 c 0
 202.998046875 -53.9931640625 166.498046875 -43.826171875 133.498046875 -23.4931640625 c 0
 100.498046875 -3.16015625 74.8310546875 23.6728515625 56.498046875 57.005859375 c 0
 38.1650390625 90.3388671875 28.998046875 126.338867188 28.998046875 165.005859375 c 0xe8
 28.998046875 223.005859375 39.6650390625 272.672851562 60.998046875 314.005859375 c 0
 86.3310546875 362.672851562 125.998046875 400.672851562 179.998046875 428.005859375 c 1
 162.498046875 455.505859375 l 2
 155.498046875 466.505859375 150.165039062 475.005859375 146.498046875 481.005859375 c 0
 142.831054688 487.005859375 138.498046875 494.838867188 133.498046875 504.505859375 c 0
 128.498046875 514.172851562 124.998046875 522.672851562 122.998046875 530.005859375 c 0
 118.331054688 550.005859375 115.998046875 569.672851562 115.998046875 589.005859375 c 0
 115.998046875 601.672851562 117.665039062 614.505859375 120.998046875 627.505859375 c 0
 124.331054688 640.505859375 130.331054688 653.672851562 138.998046875 667.005859375 c 0
 147.665039062 680.338867188 158.33203125 692.171875 170.999023438 702.504882812 c 0
 183.666015625 712.837890625 199.999023438 721.004882812 219.999023438 727.004882812 c 0
 239.999023438 733.004882812 262.33203125 736.004882812 286.999023438 736.004882812 c 0
 307.666015625 736.004882812 327.999023438 732.837890625 347.999023438 726.504882812 c 0
 367.999023438 720.171875 386.33203125 710.671875 402.999023438 698.004882812 c 0
 419.666015625 685.337890625 432.999023438 668.670898438 442.999023438 648.00390625 c 0
 452.999023438 627.336914062 457.999023438 604.336914062 457.999023438 579.00390625 c 0
 457.999023438 556.336914062 454.999023438 535.169921875 448.999023438 515.502929688 c 0
 442.999023438 495.8359375 435.499023438 479.3359375 426.499023438 466.002929688 c 0
 417.499023438 452.669921875 406.33203125 440.169921875 392.999023438 428.502929688 c 0
 379.666015625 416.8359375 368.333007812 408.002929688 359 402.002929688 c 0
 349.666992188 396.002929688 340 390.669921875 330 386.002929688 c 1
 342 366.002929688 358.833007812 340.8359375 380.5 310.502929688 c 0
 402.166992188 280.169921875 418 257.669921875 428 243.002929688 c 1
 430 247.002929688 432.833007812 253.169921875 436.5 261.502929688 c 0
 440.166992188 269.8359375 443.833984375 278.002929688 447.500976562 286.002929688 c 0
 451.16796875 294.002929688 454.334960938 300.002929688 457.001953125 304.002929688 c 0
 470.334960938 324.002929688 483.66796875 336.3359375 497.000976562 341.002929688 c 0
 502.333984375 343.002929688 508.000976562 344.002929688 514.000976562 344.002929688 c 0
 523.333984375 344.002929688 532.666992188 341.669921875 542 337.002929688 c 0
 557.333007812 329.669921875 566.333007812 317.002929688 569 299.002929688 c 0
 569.666992188 295.002929688 570.333984375 290.669921875 571.000976562 286.002929688 c 0
 571.000976562 272.002929688 567.000976562 257.3359375 559.000976562 242.002929688 c 0
 555.66796875 235.3359375 546.000976562 222.168945312 530.000976562 202.501953125 c 0
 514.000976562 182.834960938 501.000976562 165.66796875 491.000976562 151.000976562 c 1
 498.333984375 139.000976562 508.166992188 122.16796875 520.5 100.500976562 c 0
 532.833007812 78.833984375 540.333007812 65.6669921875 543 61 c 0
 552.333007812 45 557 28.3330078125 557 11 c 0xd8
234.999023438 572.004882812 m 0xd8
 234.999023438 557.337890625 238.999023438 541.338867188 246.999023438 524.005859375 c 0
 254.999023438 506.672851562 263.999023438 491.672851562 273.999023438 479.005859375 c 1
 284.666015625 482.338867188 294.166015625 486.171875 302.499023438 490.504882812 c 0
 310.83203125 494.837890625 318.999023438 500.337890625 326.999023438 507.004882812 c 0
 334.999023438 513.671875 340.83203125 522.004882812 344.499023438 532.004882812 c 0
 348.166015625 542.004882812 349.999023438 554.337890625 349.999023438 569.004882812 c 0
 349.999023438 589.671875 343.666015625 605.504882812 330.999023438 616.504882812 c 0
 318.33203125 627.504882812 302.83203125 633.004882812 284.499023438 633.004882812 c 0
 266.166015625 633.004882812 252.999023438 627.337890625 244.999023438 616.004882812 c 0
 238.33203125 606.004882812 234.999023438 591.337890625 234.999023438 572.004882812 c 0xd8
152.999023438 174.005859375 m 0xe8
 152.999023438 142.005859375 161.50390625 115.673828125 178.50390625 95.0068359375 c 0
 195.50390625 74.33984375 217.336914062 64.0068359375 244.00390625 64.0068359375 c 0
 258.670898438 64.0068359375 274.00390625 66.673828125 290.00390625 72.0068359375 c 0
 295.336914062 74.0068359375 301.169921875 77.173828125 307.502929688 81.5068359375 c 0
 313.8359375 85.83984375 318.668945312 89.33984375 322.001953125 92.0068359375 c 0
 325.334960938 94.673828125 329.66796875 99.0068359375 335.000976562 105.006835938 c 0
 340.333984375 111.006835938 344.000976562 115.173828125 346.000976562 117.506835938 c 0
 348.000976562 119.83984375 350.66796875 123.506835938 354.000976562 128.506835938 c 0
 357.333984375 133.506835938 359.666992188 136.673828125 361 138.006835938 c 0
 351.666992188 158.006835938 342.666992188 176.006835938 334 192.006835938 c 0
 326 207.33984375 311 230.672851562 289 262.005859375 c 0
 267 293.338867188 250.666992188 317.338867188 240 334.005859375 c 1
 225.333007812 326.672851562 212.666015625 318.005859375 201.999023438 308.005859375 c 0
 189.33203125 296.005859375 179.499023438 283.005859375 172.499023438 269.005859375 c 0
 165.499023438 255.005859375 160.499023438 240.338867188 157.499023438 225.005859375 c 0
 154.499023438 209.672851562 152.999023438 192.672851562 152.999023438 174.005859375 c 0xe8
EndSplineSet
Validated: 524289
EndChar

StartChar: quotesingle
Encoding: 39 39 7
Width: 600
GlyphClass: 2
Flags: W
VStem: 234.999 130.001<452.314 772.656> 234.999 122<449.441 601.295>
LayerCount: 2
Fore
SplineSet
365 728 m 2x80
 365 687.000976562 l 2x80
 365 669.000976562 364.665039062 641.333984375 363.998046875 604.000976562 c 0
 362.665039062 546.000976562 360.33203125 506.000976562 356.999023438 484.000976562 c 0x40
 354.33203125 466.66796875 346.999023438 453.66796875 334.999023438 445.000976562 c 0
 324.33203125 437.66796875 312.665039062 434.000976562 299.998046875 434.000976562 c 0
 282.665039062 434.000976562 267.33203125 439.000976562 253.999023438 449.000976562 c 0
 241.33203125 458.333984375 234.999023438 471.333984375 234.999023438 488.000976562 c 0
 234.999023438 490.000976562 235.33203125 491.66796875 235.999023438 493.000976562 c 0
 237.33203125 519.66796875 237.999023438 549.66796875 237.999023438 583.000976562 c 0
 237.999023438 630.333984375 236.999023438 680.000976562 234.999023438 732.000976562 c 2
 234.999023438 735.000976562 l 2
 234.999023438 744.333984375 236.999023438 752.666992188 240.999023438 760 c 0
 245.666015625 768 252.333007812 774 261 778 c 0
 273 782.666992188 285.333007812 785 298 785 c 0
 308 785 316 784 322 782 c 0
 328.666992188 780 335 777.333007812 341 774 c 0
 348.333007812 770 354 763.666992188 358 755 c 0
 362 747 364.333007812 738 365 728 c 2x80
EndSplineSet
Validated: 524289
EndChar

StartChar: parenleft
Encoding: 40 40 8
Width: 600
GlyphClass: 2
Flags: W
HStem: -144 109<368.684 446.529> 721 105.053<354.655 444.498>
VStem: 137.998 122.75<154.284 548.553>
LayerCount: 2
Fore
SplineSet
461 -93 m 0
 461 -107.666992188 455.330078125 -119.666992188 443.997070312 -129 c 0
 432.6640625 -138.333007812 420.6640625 -143.333007812 407.997070312 -144 c 0
 359.997070312 -144 316.997070312 -127 278.997070312 -93 c 0
 240.997070312 -59 210.330078125 -13 186.997070312 45 c 0
 163.6640625 103 148.331054688 169.666992188 140.998046875 245 c 0
 138.998046875 265.666992188 137.998046875 291.333984375 137.998046875 322.000976562 c 0
 137.998046875 352.66796875 139.998046875 391.000976562 143.998046875 437.000976562 c 0
 150.665039062 516.333984375 163.998046875 581.666992188 183.998046875 633 c 0
 192.665039062 656.333007812 204.33203125 679 218.999023438 701 c 0
 233.666015625 723 250.999023438 743.666992188 270.999023438 763 c 0
 290.33203125 781.666992188 311.999023438 797 335.999023438 809 c 0
 359.3671875 820.368164062 382.435546875 826.052734375 405.205078125 826.052734375 c 0
 406.470703125 826.052734375 407.735351562 826.03515625 408.999023438 826 c 0
 427.666015625 826 441.666015625 820.333007812 450.999023438 809 c 0
 458.33203125 800.333007812 461.999023438 788.333007812 461.999023438 773 c 0
 461.999023438 755 456.33203125 741.666992188 444.999023438 733 c 0
 434.33203125 725 421.665039062 721 406.998046875 721 c 0
 392.331054688 721 378.331054688 716.333007812 364.998046875 707 c 0
 351.665039062 698.333007812 339.665039062 686 328.998046875 670 c 0
 307.665039062 638 291.665039062 598 280.998046875 550 c 0
 272.331054688 514.666992188 266.331054688 467.666992188 262.998046875 409 c 0
 261.498046875 386 260.748046875 364.875976562 260.748046875 345.626953125 c 0
 260.748046875 339.208984375 260.831054688 333.000976562 260.998046875 327 c 0
 260.998046875 303 261.665039062 281.666992188 262.998046875 263 c 0
 266.331054688 223.666992188 273.331054688 185 283.998046875 147 c 0
 294.665039062 109 307.33203125 77 321.999023438 51 c 0
 335.999023438 24.3330078125 350.999023438 3 366.999023438 -13 c 0
 381.666015625 -27.6669921875 395.333007812 -35 408 -35 c 0
 424 -35 437 -39.3330078125 447 -48 c 0
 456.333007812 -56.6669921875 461 -71.6669921875 461 -93 c 0
EndSplineSet
Validated: 524289
EndChar

StartChar: parenright
Encoding: 41 41 9
Width: 600
GlyphClass: 2
Flags: W
HStem: -144 109<153.412 231.234> 721.001 105.1<155.501 245.734>
VStem: 339.251 122.748<154.284 545.5>
LayerCount: 2
Fore
SplineSet
192 -144 m 0
 179.333007812 -144 167.333984375 -138.999023438 156.000976562 -128.999023438 c 0
 144.66796875 -119.666015625 139.000976562 -107.666015625 139.000976562 -92.9990234375 c 0
 139.000976562 -71.666015625 143.66796875 -56.666015625 153.000976562 -47.9990234375 c 0
 161.711914062 -39.2880859375 173.616210938 -34.93359375 188.71484375 -34.93359375 c 0
 189.793945312 -34.93359375 190.889648438 -34.955078125 192.000976562 -35 c 0
 204.000976562 -35 217.333984375 -27.6669921875 232.000976562 -13 c 0
 248.66796875 3 264.000976562 24.3330078125 278.000976562 51 c 0
 292.000976562 77.6669921875 304.66796875 109.666992188 316.000976562 147 c 0
 326.66796875 185 333.66796875 223.666992188 337.000976562 263 c 0
 338.500976562 278 339.250976562 294.124023438 339.250976562 311.373046875 c 0
 339.250976562 317.124023438 339.16796875 322.999023438 339.000976562 329 c 0
 339.000976562 352.333007812 338.333984375 379 337.000976562 409 c 0
 333.66796875 467.666992188 327.66796875 514.666992188 319.000976562 550 c 0
 308.333984375 597.333007812 292.333984375 637.333007812 271.000976562 670 c 0
 261.000976562 686 249.000976562 698.333007812 235.000976562 707 c 0
 221.66796875 715.666992188 207.66796875 720.333984375 193.000976562 721.000976562 c 0
 178.333984375 721.000976562 165.666992188 725.000976562 155 733.000976562 c 0
 143.666992188 741.66796875 138 755.000976562 138 773.000976562 c 0
 138 783.000976562 139.666992188 792.000976562 143 800.000976562 c 0
 146.333007812 807.333984375 151.333007812 813.333984375 158 818.000976562 c 0
 166.399414062 823.400390625 176.149414062 826.100585938 187.249023438 826.100585938 c 0
 188.482421875 826.100585938 189.733398438 826.067382812 191 826.000976562 c 0
 215.666992188 826.000976562 240 820.333984375 264 809.000976562 c 0
 288 797.000976562 309.666992188 781.66796875 329 763.000976562 c 0
 348.333007812 744.333984375 365.333007812 723.666992188 380 701 c 0
 394.666992188 679 406.666992188 656.333007812 416 633 c 0
 435.333007812 581.666992188 448.666015625 516.333984375 455.999023438 437.000976562 c 0
 459.999023438 391.000976562 461.999023438 352.66796875 461.999023438 322.000976562 c 0
 461.999023438 291.333984375 460.999023438 265.666992188 458.999023438 245 c 0
 451.666015625 169.666992188 436.333007812 103 413 45 c 0
 389.666992188 -13 358.666992188 -59 320 -93 c 0
 282.666992188 -127 240 -144 192 -144 c 0
EndSplineSet
Validated: 524289
EndChar

StartChar: asterisk
Encoding: 42 42 10
Width: 600
GlyphClass: 2
Flags: W
HStem: 281.004 127.999<53.5315 196.973> 289.002 119.001<394.145 549.84> 294.001 101.002<393 508.872>
LayerCount: 2
Fore
SplineSet
213 102 m 2x20
 202.997070312 102 l 2
 198.330078125 102 192.497070312 102.670898438 185.497070312 104.00390625 c 0
 178.497070312 105.336914062 171.6640625 108 164.997070312 112 c 0
 158.330078125 116 152.330078125 122.00390625 146.997070312 130.00390625 c 0
 141.6640625 138.00390625 137.997070312 147.336914062 135.997070312 158.00390625 c 2
 135.997070312 165.00390625 l 2
 135.997070312 175.00390625 138.6640625 185.333984375 143.997070312 196.000976562 c 2
 198.997070312 285.00390625 l 1
 155.6640625 282.336914062 122.6640625 281.00390625 99.9970703125 281.00390625 c 0
 79.9970703125 281.00390625 64.330078125 287.670898438 52.9970703125 301.00390625 c 0
 42.9970703125 313.00390625 37.6640625 327.00390625 36.9970703125 343.00390625 c 2
 36.9970703125 346.00390625 l 2
 36.9970703125 359.336914062 40.6640625 372.669921875 47.9970703125 386.002929688 c 0
 52.6640625 394.002929688 59.6640625 400.002929688 68.9970703125 404.002929688 c 0
 76.330078125 407.3359375 84.330078125 409.002929688 92.9970703125 409.002929688 c 2
 97.9970703125 409.002929688 l 2x80
 124.6640625 407.002929688 162.331054688 404.3359375 210.998046875 401.002929688 c 1
 187.665039062 439.669921875 167.998046875 470.002929688 151.998046875 492.002929688 c 0
 142.665039062 507.3359375 137.998046875 522.3359375 137.998046875 537.002929688 c 0
 137.998046875 539.669921875 138.331054688 542.336914062 138.998046875 545.00390625 c 0
 140.998046875 563.670898438 148.998046875 576.670898438 162.998046875 584.00390625 c 0
 171.665039062 589.336914062 181.498046875 592.00390625 192.498046875 592.00390625 c 0
 203.498046875 592.00390625 214.665039062 588.669921875 225.998046875 582.002929688 c 0
 237.331054688 575.3359375 246.331054688 565.669921875 252.998046875 553.002929688 c 0
 259.665039062 539.002929688 275.665039062 507.669921875 300.998046875 459.002929688 c 1
 320.331054688 493.669921875 336.331054688 524.669921875 348.998046875 552.002929688 c 0
 354.998046875 564.669921875 363.331054688 574.169921875 373.998046875 580.502929688 c 0
 384.665039062 586.8359375 394.998046875 590.002929688 404.998046875 590.002929688 c 0
 415.665039062 590.002929688 425.665039062 587.3359375 434.998046875 582.002929688 c 0
 443.665039062 577.3359375 450.665039062 570.502929688 455.998046875 561.502929688 c 0
 461.331054688 552.502929688 463.998046875 542.002929688 463.998046875 530.002929688 c 0
 463.998046875 516.669921875 459.998046875 504.336914062 451.998046875 493.00390625 c 0
 433.998046875 466.336914062 413.998046875 433.669921875 391.998046875 395.002929688 c 1x20
 437.998046875 395.669921875 471.331054688 399.002929688 491.998046875 405.002929688 c 0
 500.665039062 407.002929688 506.33203125 408.002929688 508.999023438 408.002929688 c 0x40
 521.666015625 408.002929688 532.666015625 403.669921875 541.999023438 395.002929688 c 0x20
 555.33203125 382.3359375 562.33203125 368.668945312 562.999023438 354.001953125 c 0
 562.999023438 339.334960938 559.33203125 325.334960938 551.999023438 312.001953125 c 0
 547.33203125 304.001953125 540.999023438 297.668945312 532.999023438 293.001953125 c 0
 526.999023438 290.334960938 520.666015625 289.001953125 513.999023438 289.001953125 c 0x40
 510.666015625 289.001953125 507.333007812 289.334960938 504 290.001953125 c 0
 490.112304688 292.779296875 467.430664062 294.16796875 435.954101562 294.16796875 c 0
 429.654296875 294.16796875 423.00390625 294.112304688 416 294.000976562 c 2
 393 294.000976562 l 1
 450 196.000976562 l 2
 457.333007812 181.333984375 461 168.000976562 461 156.000976562 c 0
 461 153.333984375 460.666992188 150.666992188 460 148 c 0
 458 132 451 120.666992188 439 114 c 0
 429.666992188 108 418 105 404 105 c 0
 393.333007812 105 382.666015625 107.333007812 371.999023438 112 c 0
 358.666015625 118 349.666015625 128 344.999023438 142 c 0
 337.666015625 164 324.333007812 194.666992188 305 234 c 1
 280.333007812 184.666992188 264.666015625 151.666992188 257.999023438 135 c 0
 254.666015625 124.333007812 248.833007812 116.333007812 240.5 111 c 0
 232.166992188 105.666992188 223 102.666992188 213 102 c 2x20
EndSplineSet
Validated: 524289
EndChar

StartChar: plus
Encoding: 43 43 11
Width: 600
GlyphClass: 2
Flags: W
HStem: 346 105.998<112.471 245.999 350.999 489.62>
VStem: 245.999 105<209.378 344.998 452.998 593.588>
LayerCount: 2
Fore
SplineSet
350 347 m 1
 350.999023438 249.999023438 l 2
 350.999023438 230.666015625 346.33203125 216.999023438 336.999023438 208.999023438 c 0
 327.666015625 200.33203125 315.999023438 195.665039062 301.999023438 194.998046875 c 2
 300.999023438 194.998046875 l 2
 284.999023438 194.998046875 272.666015625 198.665039062 263.999023438 205.998046875 c 0
 251.999023438 215.331054688 245.999023438 229.998046875 245.999023438 249.998046875 c 2
 245.999023438 344.998046875 l 1
 156.999023438 343.998046875 l 2
 136.999023438 343.998046875 121.999023438 349.331054688 111.999023438 359.998046875 c 0
 101.33203125 370.665039062 95.9990234375 383.665039062 95.9990234375 398.998046875 c 2
 95.9990234375 401.998046875 l 2
 95.9990234375 415.998046875 100.666015625 428.331054688 109.999023438 438.998046875 c 0
 119.999023438 449.665039062 134.33203125 454.998046875 152.999023438 454.998046875 c 0
 154.33203125 454.998046875 164.999023438 454.665039062 184.999023438 453.998046875 c 0
 204.999023438 453.331054688 225.33203125 452.998046875 245.999023438 452.998046875 c 1
 245.999023438 492.331054688 244.999023438 525.6640625 242.999023438 552.997070312 c 0
 242.999023438 571.6640625 249.33203125 585.331054688 261.999023438 593.998046875 c 0
 271.33203125 600.665039062 283.33203125 603.998046875 297.999023438 603.998046875 c 2
 301.999023438 603.998046875 l 2
 315.999023438 603.998046875 327.999023438 600.665039062 337.999023438 593.998046875 c 0
 349.33203125 585.998046875 354.999023438 572.998046875 354.999023438 554.998046875 c 2
 354.999023438 548.998046875 l 2
 352.999023438 514.998046875 351.666015625 482.665039062 350.999023438 451.998046875 c 1
 448.999023438 451.998046875 l 2
 468.33203125 451.998046875 481.999023438 447.331054688 489.999023438 437.998046875 c 0
 497.999023438 428.665039062 502.666015625 416.998046875 503.999023438 402.998046875 c 2
 503.999023438 401.998046875 l 2
 503.999023438 394.665039062 503.33203125 388.33203125 501.999023438 382.999023438 c 0
 500.666015625 376.999023438 497.999023438 370.999023438 493.999023438 364.999023438 c 0
 489.33203125 357.666015625 482.999023438 352.333007812 474.999023438 349 c 0
 468.999023438 347 462.33203125 346 454.999023438 346 c 2
 447.999023438 346 l 2
 437.999023438 347.333007812 423.666015625 348 404.999023438 348 c 0
 385.666015625 348 367.333007812 347.666992188 350 347 c 1
EndSplineSet
Validated: 524289
EndChar

StartChar: comma
Encoding: 44 44 12
Width: 600
GlyphClass: 2
Flags: W
VStem: 185.003 229.999
LayerCount: 2
Fore
SplineSet
271 -223 m 0
 260.333007812 -227 251.001953125 -228.999023438 243.001953125 -228.999023438 c 0
 235.001953125 -228.999023438 228.001953125 -227.666015625 222.001953125 -224.999023438 c 0
 213.334960938 -222.33203125 205.334960938 -217.33203125 198.001953125 -209.999023438 c 0
 190.668945312 -202.666015625 186.3359375 -193.333007812 185.002929688 -182 c 2
 185.002929688 -176 l 2
 185.002929688 -166 188.3359375 -156 195.002929688 -146 c 0
 208.3359375 -127.333007812 227.002929688 -84.3330078125 251.002929688 -17 c 0
 275.002929688 49 290.002929688 96 296.002929688 124 c 0
 298.669921875 136 304.669921875 145.333007812 314.002929688 152 c 0
 323.3359375 159.333007812 333.668945312 163 345.001953125 163 c 2
 347.001953125 163 l 2
 355.001953125 163 363.334960938 162.333007812 372.001953125 161 c 0
 385.334960938 157 396.334960938 149 405.001953125 137 c 0
 411.668945312 127.666992188 415.001953125 117.333984375 415.001953125 106.000976562 c 0
 415.001953125 101.333984375 414.668945312 97.333984375 414.001953125 94.0009765625 c 0
 407.334960938 61.333984375 392.66796875 10.6669921875 370.000976562 -58 c 0
 347.333984375 -127.333007812 330.000976562 -170.333007812 318.000976562 -187 c 0
 305.333984375 -204.333007812 289.666992188 -216.333007812 271 -223 c 0
EndSplineSet
Validated: 524289
EndChar

StartChar: hyphen
Encoding: 45 45 13
Width: 600
GlyphClass: 2
Flags: W
HStem: 230.001 111.999<151.44 450.172> 239.002 106<313.731 452.621>
LayerCount: 2
Fore
SplineSet
187 342 m 0x80
 225 342 270 342.333984375 322 343.000976562 c 0
 374.666992188 343.66796875 404.666992188 344.334960938 412 345.001953125 c 0
 431.333007812 345.001953125 445 340.334960938 453 331.001953125 c 0
 461 321.668945312 465.666992188 310.001953125 467 296.001953125 c 2
 467 295.001953125 l 2
 467 279.001953125 463.333007812 266.668945312 456 258.001953125 c 0
 446.666992188 246.001953125 432 239.668945312 412 239.001953125 c 0x40
 403.333007812 239.001953125 369.666015625 237.668945312 310.999023438 235.001953125 c 0
 252.33203125 232.334960938 211.33203125 230.66796875 187.999023438 230.000976562 c 0
 172.666015625 230.000976562 160.333007812 234.000976562 151 242.000976562 c 0
 139 251.333984375 133 265.666992188 133 285 c 2
 133 290 l 2
 133 308.666992188 139 322.666992188 151 332 c 0
 159.666992188 338.666992188 171.666992188 342 187 342 c 0x80
EndSplineSet
Validated: 524289
EndChar

StartChar: period
Encoding: 46 46 14
Width: 600
GlyphClass: 2
Flags: W
HStem: -26 178.037<241.663 359.871>
VStem: 206.001 187.036<6.96988 117.608>
LayerCount: 2
Fore
SplineSet
292 -26 m 2
 268.666992188 -26 249.000976562 -18 233.000976562 -2 c 0
 215.000976562 16.6669921875 206.000976562 38.333984375 206.000976562 63.0009765625 c 0
 206.000976562 87.66796875 216.000976562 108.66796875 236.000976562 126.000976562 c 0
 255.9296875 143.357421875 278.02734375 152.037109375 302.294921875 152.037109375 c 0
 303.193359375 152.037109375 304.095703125 152.024414062 305.000976562 152.000976562 c 0
 330.333984375 152.000976562 351.333984375 144.000976562 368.000976562 128.000976562 c 0
 384.69140625 111.310546875 393.037109375 91.5283203125 393.037109375 68.6552734375 c 0
 393.037109375 55.5234375 392.401367188 28.376953125 369 4 c 0
 352.333007812 -12.6669921875 330.333007812 -22.6669921875 303 -26 c 2
 292 -26 l 2
EndSplineSet
Validated: 524289
EndChar

StartChar: slash
Encoding: 47 47 15
Width: 600
GlyphClass: 2
Flags: W
HStem: 746.004 20G<492.667 503.333>
LayerCount: 2
Fore
SplineSet
116 -67 m 0
 106.666992188 -71.6669921875 97.33203125 -73.9970703125 87.9990234375 -73.9970703125 c 0
 78.666015625 -73.9970703125 69.9990234375 -71.330078125 61.9990234375 -65.9970703125 c 0
 48.666015625 -57.9970703125 40.666015625 -42.6640625 37.9990234375 -19.9970703125 c 0
 37.33203125 -16.6640625 37.33203125 -12.9970703125 37.9990234375 -8.9970703125 c 0
 37.9990234375 9.0029296875 42.666015625 25.669921875 51.9990234375 41.0029296875 c 0
 149.33203125 201.002929688 232.665039062 343.002929688 301.998046875 467.002929688 c 1
 345.331054688 543.002929688 391.331054688 629.669921875 439.998046875 727.002929688 c 0
 446.665039062 739.669921875 455.33203125 749.002929688 465.999023438 755.002929688 c 0
 476.666015625 761.669921875 487.333007812 765.336914062 498 766.00390625 c 0
 508.666992188 766.00390625 519.333984375 763.670898438 530.000976562 759.00390625 c 0
 545.333984375 751.00390625 555.333984375 739.00390625 560.000976562 723.00390625 c 0
 561.333984375 718.336914062 562.000976562 713.669921875 562.000976562 709.002929688 c 0
 562.000976562 697.669921875 558.66796875 685.002929688 552.000976562 671.002929688 c 0
 534.66796875 636.3359375 486.000976562 552.668945312 406.000976562 420.001953125 c 0
 326.000976562 287.334960938 277.333984375 204.66796875 260.000976562 172.000976562 c 0
 249.333984375 151.333984375 232.000976562 116.333984375 208.000976562 67.0009765625 c 0
 184.000976562 17.66796875 169.000976562 -12.33203125 163.000976562 -22.9990234375 c 0
 150.333984375 -43.666015625 134.666992188 -58.3330078125 116 -67 c 0
EndSplineSet
Validated: 524289
EndChar

StartChar: zero
Encoding: 48 48 16
Width: 600
GlyphClass: 2
Flags: W
HStem: -24.001 107.996<210.582 370.455> 611.995 106.005<226.514 377.24>
VStem: 41.001 121<228.996 530.163> 439.001 115.999<165.933 399.325 400.71 457.995>
LayerCount: 2
Fore
SplineSet
439.000976562 457.995117188 m 1
 366.333984375 330.662109375 282.668945312 221.995117188 188.001953125 131.995117188 c 1
 206.001953125 100.662109375 235.333984375 84.662109375 276.000976562 83.9951171875 c 0
 295.333984375 83.9951171875 312.001953125 85.4951171875 326.001953125 88.4951171875 c 0
 340.001953125 91.4951171875 353.334960938 96.328125 366.001953125 102.995117188 c 0
 391.334960938 116.328125 410.66796875 143.328125 424.000976562 183.995117188 c 0
 426.66796875 191.995117188 429.66796875 213.495117188 433.000976562 248.495117188 c 0
 436.333984375 283.495117188 438.666992188 323.995117188 440 369.995117188 c 0
 440.22265625 380 440.333984375 389.930664062 440.333984375 399.787109375 c 0
 440.333984375 419.486328125 439.889648438 438.888671875 439.000976562 457.995117188 c 1
361.001953125 599.997070312 m 0
 343.668945312 607.997070312 324.66796875 611.995117188 304.000976562 611.995117188 c 0
 267.333984375 611.995117188 238.833984375 602.828125 218.500976562 584.495117188 c 0
 198.16796875 566.162109375 182.334960938 534.995117188 171.001953125 490.995117188 c 0
 166.334960938 473.662109375 163.001953125 455.329101562 161.001953125 435.99609375 c 0
 159.668945312 415.99609375 159.001953125 393.329101562 159.001953125 367.99609375 c 0
 159.001953125 327.99609375 160.000976562 281.663085938 162.000976562 228.99609375 c 1
 248.66796875 339.663085938 328.001953125 453.330078125 400.001953125 569.997070312 c 1
 388.668945312 582.6640625 375.668945312 592.6640625 361.001953125 599.997070312 c 0
555 490.995117188 m 2
 555 489.998046875 l 2
 558.333007812 450.665039062 560.001953125 410.662109375 560.001953125 369.995117188 c 0
 560.001953125 329.328125 558.668945312 289.331054688 556.001953125 249.998046875 c 0
 553.334960938 210.665039062 549.001953125 179.665039062 543.001953125 156.998046875 c 0
 531.001953125 114.331054688 516.001953125 79.6640625 498.001953125 52.9970703125 c 0
 488.668945312 39.6640625 478.168945312 28.3310546875 466.501953125 18.998046875 c 0
 454.834960938 9.6650390625 442.66796875 2.33203125 430.000976562 -3.0009765625 c 0
 416.66796875 -8.333984375 401.66796875 -13.0009765625 385.000976562 -17.0009765625 c 0
 367.66796875 -20.333984375 350.66796875 -22.333984375 334.000976562 -23.0009765625 c 0
 317.333984375 -23.66796875 298.000976562 -24.0009765625 276.000976562 -24.0009765625 c 0
 240.000976562 -24.0009765625 206.66796875 -18.333984375 176.000976562 -7.0009765625 c 0
 147.333984375 4.33203125 123.000976562 20.4990234375 103.000976562 41.4990234375 c 0
 83.0009765625 62.4990234375 67.66796875 87.666015625 57.0009765625 116.999023438 c 0
 46.333984375 146.33203125 41.0009765625 177.999023438 41.0009765625 211.999023438 c 2
 41.0009765625 217.999023438 l 2
 41.0009765625 250.666015625 40.66796875 281.333007812 40.0009765625 310 c 0
 40.0009765625 330.666992188 40.5009765625 356 41.5009765625 386 c 0
 42.5009765625 416 44.16796875 440.833007812 46.5009765625 460.5 c 0
 48.833984375 480.166992188 52.333984375 501.333984375 57.0009765625 524.000976562 c 0
 61.66796875 547.333984375 67.66796875 567.666992188 75.0009765625 585 c 0
 92.333984375 628.333007812 121.333984375 661.333007812 162.000976562 684 c 0
 206.000976562 706.666992188 259.333984375 718 322.000976562 718 c 0
 353.333984375 718 382.666992188 713.333007812 410 704 c 0
 436.666992188 694.666992188 460.166992188 680.666992188 480.5 662 c 0
 500.833007812 643.333007812 517.5 619.5 530.5 590.5 c 0
 543.5 561.5 551.666992188 528.328125 555 490.995117188 c 2
EndSplineSet
Validated: 524289
EndChar

StartChar: one
Encoding: 49 49 17
Width: 600
GlyphClass: 2
Flags: W
HStem: -9.00098 110.501<89.3245 236.996 368 551.559> -5.00098 114.001<45.437 236.996 368 436.522>
VStem: 236.996 131.004<107 552.809> 247.997 123.003<266.377 552.809>
LayerCount: 2
Fore
SplineSet
568 49.9990234375 m 1xa0
 568 46.9990234375 l 2
 568 31.666015625 563.330078125 18.666015625 553.997070312 7.9990234375 c 0
 543.997070312 -3.333984375 526.997070312 -9.0009765625 502.997070312 -9.0009765625 c 0xa0
 250.330078125 -7.0009765625 111.663085938 -5.66796875 86.99609375 -5.0009765625 c 0
 68.3291015625 -5.0009765625 54.3291015625 0.33203125 44.99609375 10.9990234375 c 0
 36.3291015625 21.666015625 31.99609375 34.666015625 31.99609375 49.9990234375 c 2
 31.99609375 52.9990234375 l 2
 31.99609375 67.666015625 35.99609375 80.3330078125 43.99609375 91 c 0
 53.3291015625 103 67.99609375 109 87.99609375 109 c 0
 115.99609375 109 165.663085938 108.333007812 236.99609375 107 c 1x60
 236.99609375 127 236.663085938 143.666992188 235.99609375 157 c 0
 235.329101562 163 234.99609375 180.333007812 234.99609375 209 c 0
 234.99609375 234.333007812 235.329101562 255 235.99609375 271 c 0
 235.99609375 289 237.329101562 325 239.99609375 379 c 0
 244.663085938 480.333007812 247.330078125 539.333007812 247.997070312 556 c 1
 204.6640625 526 171.6640625 507 148.997070312 499 c 0
 140.997070312 497 135.6640625 496 132.997070312 496 c 0
 120.997070312 496 108.997070312 501 96.9970703125 511 c 0
 80.9970703125 524.333007812 72.9970703125 538 72.9970703125 552 c 0
 72.9970703125 565.333007812 75.9970703125 576.833007812 81.9970703125 586.5 c 0
 87.9970703125 596.166992188 97.6640625 606 110.997070312 616 c 0
 129.6640625 630 154.331054688 648.666992188 184.998046875 672 c 1
 197.665039062 674 210.33203125 683 222.999023438 699 c 0
 234.33203125 707 245.999023438 714.333007812 257.999023438 721 c 0
 268.907226562 727.060546875 279.265625 730.090820312 289.072265625 730.090820312 c 0
 290.053710938 730.090820312 291.029296875 730.060546875 291.999023438 730 c 0
 310.666015625 730 329.333007812 723.333007812 348 710 c 0
 358 702.666992188 365.5 696 370.5 690 c 0
 375.5 684 378 678 378 672 c 2
 378 671 l 2
 377.333007812 655.666992188 375 603.166992188 371 513.5 c 0x50
 367 423.833007812 365 371.333007812 365 356 c 0
 365 292 365.333007812 238.666992188 366 196 c 0
 366 174 366.666992188 143 368 103 c 1
 404 102.333007812 427 102 437 102 c 0
 446.333007812 102 458.833007812 101.833007812 474.5 101.5 c 0
 490.166992188 101.166992188 500.333984375 101 505.000976562 101 c 0
 527.000976562 101 542.66796875 96.1669921875 552.000976562 86.5 c 0
 561.333984375 76.8330078125 566.666992188 65 568 51 c 2
 568 49.9990234375 l 1xa0
EndSplineSet
Validated: 524289
EndChar

StartChar: two
Encoding: 50 50 18
Width: 600
GlyphClass: 2
Flags: W
HStem: -18.0029 108.432<168.593 482.109> -12.0029 113.999<485.313 542.625> 506.999 21G<116.668 121.668> 612.998 109.001<228.89 392.111>
VStem: 417.002 126<456.851 587.935>
LayerCount: 2
Fore
SplineSet
485 101 m 1xb8
 491.666992188 109.666992188 498.669921875 109.99609375 506.002929688 101.99609375 c 0
 508.002929688 101.99609375 511.8359375 101.829101562 517.502929688 101.49609375 c 0
 523.169921875 101.163085938 527.669921875 100.163085938 531.002929688 98.49609375 c 0
 534.3359375 96.8291015625 537.668945312 94.99609375 541.001953125 92.99609375 c 0
 546.334960938 89.6630859375 550.001953125 85.6630859375 552.001953125 80.99609375 c 0
 556.001953125 72.99609375 558.001953125 63.6630859375 558.001953125 52.99609375 c 0
 558.001953125 33.6630859375 553.001953125 17.330078125 543.001953125 3.9970703125 c 0
 535.001953125 -6.669921875 524.668945312 -12.0029296875 512.001953125 -12.0029296875 c 0x78
 464.668945312 -12.0029296875 388.668945312 -14.0029296875 284.001953125 -18.0029296875 c 0
 248.668945312 -19.3359375 212.3359375 -20.0029296875 175.002929688 -20.0029296875 c 0
 140.3359375 -20.0029296875 113.3359375 -18.669921875 94.0029296875 -16.0029296875 c 0
 83.3359375 -14.669921875 74.0029296875 -10.3369140625 66.0029296875 -3.00390625 c 0
 60.0029296875 2.3291015625 55.3359375 9.3291015625 52.0029296875 17.99609375 c 0
 45.3359375 35.3291015625 42.0029296875 59.3291015625 42.0029296875 89.99609375 c 0
 42.0029296875 120.663085938 48.3359375 151.663085938 61.0029296875 182.99609375 c 0
 73.669921875 214.329101562 92.669921875 244.49609375 118.002929688 273.49609375 c 0
 143.3359375 302.49609375 173.668945312 325.99609375 209.001953125 343.99609375 c 0
 287.001953125 381.99609375 337.001953125 408.663085938 359.001953125 423.99609375 c 0
 385.668945312 442.663085938 403.001953125 462.330078125 411.001953125 482.997070312 c 0
 415.001953125 495.6640625 417.001953125 511.331054688 417.001953125 529.998046875 c 0
 417.001953125 559.331054688 408.001953125 580.331054688 390.001953125 592.998046875 c 0
 370.668945312 606.331054688 341.668945312 612.998046875 303.001953125 612.998046875 c 0
 277.001953125 612.998046875 252.168945312 605.665039062 228.501953125 590.998046875 c 0
 204.834960938 576.331054688 186.334960938 559.998046875 173.001953125 541.998046875 c 0
 166.334960938 532.665039062 159.334960938 524.83203125 152.001953125 518.499023438 c 0
 144.668945312 512.166015625 137.001953125 508.666015625 129.001953125 507.999023438 c 0
 126.334960938 507.999023438 123.334960938 507.666015625 120.001953125 506.999023438 c 0
 113.334960938 506.999023438 102.334960938 510.33203125 87.001953125 516.999023438 c 0
 72.3349609375 524.999023438 63.001953125 536.33203125 59.001953125 550.999023438 c 0
 58.3349609375 554.999023438 58.001953125 558.666015625 58.001953125 561.999023438 c 0
 58.001953125 573.33203125 61.6689453125 586.999023438 69.001953125 602.999023438 c 0
 76.3349609375 616.999023438 87.001953125 630.83203125 101.001953125 644.499023438 c 0
 115.001953125 658.166015625 131.001953125 670.999023438 149.001953125 682.999023438 c 0
 168.334960938 694.999023438 191.334960938 704.499023438 218.001953125 711.499023438 c 0
 244.668945312 718.499023438 271.668945312 721.999023438 299.001953125 721.999023438 c 0
 381.001953125 721.999023438 442.334960938 704.999023438 483.001953125 670.999023438 c 0
 523.001953125 636.999023438 543.001953125 585.999023438 543.001953125 517.999023438 c 0
 543.001953125 461.999023438 528.001953125 416.666015625 498.001953125 381.999023438 c 0
 476.001953125 357.33203125 436.001953125 330.33203125 378.001953125 300.999023438 c 0
 363.334960938 293.666015625 338.001953125 281.666015625 302.001953125 264.999023438 c 0
 272.001953125 250.999023438 247.001953125 233.83203125 227.001953125 213.499023438 c 0
 207.001953125 193.166015625 192.334960938 172.333007812 183.001953125 151 c 0
 175.668945312 133 170.668945312 113.666992188 168.001953125 93 c 1
 201.71875 91.28515625 233.965820312 90.4287109375 264.743164062 90.4287109375 c 0
 269.870117188 90.4287109375 274.956054688 90.4521484375 280.000976562 90.5 c 0
 315.333984375 90.8330078125 342.666992188 91.3330078125 362 92 c 0
 382 93.3330078125 423 96.3330078125 485 101 c 1xb8
EndSplineSet
Validated: 524289
EndChar

StartChar: three
Encoding: 51 51 19
Width: 600
GlyphClass: 2
Flags: W
HStem: -24.0166 108.017<217.007 377.042> 306 125<179.22 343.449> 520.002 21G<119.001 126.334> 613.001 109.001<212.346 376.71>
VStem: 403.002 126.997<479.219 589.309> 428 124<130.061 255.137>
LayerCount: 2
Fore
SplineSet
541 279.5 m 0xf8
 548.333007812 257.833007812 552 232.330078125 552 202.997070312 c 0
 552 133.6640625 529.666992188 78.3310546875 485 36.998046875 c 0
 439.73046875 -3.6787109375 374.768554688 -24.0166015625 290.11328125 -24.0166015625 c 0
 288.747070312 -24.0166015625 287.375976562 -24.01171875 286 -24.0009765625 c 0
 258.666992188 -24.0009765625 231.666992188 -20.333984375 205 -13.0009765625 c 0
 178.333007812 -5.66796875 155.833007812 3.6650390625 137.5 14.998046875 c 0
 119.166992188 26.3310546875 103 38.998046875 89 52.998046875 c 0
 75 66.998046875 64.5 80.8310546875 57.5 94.498046875 c 0
 50.5 108.165039062 47 120.998046875 47 132.998046875 c 0
 47 136.998046875 47.6669921875 140.998046875 49 144.998046875 c 0
 52.3330078125 161.665039062 61.3330078125 173.33203125 76 179.999023438 c 0
 86.6669921875 185.33203125 96.6669921875 187.999023438 106 187.999023438 c 0
 126 187.999023438 144 177.33203125 160 155.999023438 c 0
 174.666992188 136.666015625 193.666992188 119.833007812 217 105.5 c 0
 240.333007812 91.1669921875 265 84 291 84 c 0
 331.666992188 84 364.666992188 93.8330078125 390 113.5 c 0
 415.333007812 133.166992188 428 158 428 188 c 0xf4
 428 207.333007812 424.666992188 223.833007812 418 237.5 c 0
 411.333007812 251.166992188 400.833007812 263.166992188 386.5 273.5 c 0
 372.166992188 283.833007812 351.833984375 291.833007812 325.500976562 297.5 c 0
 299.16796875 303.166992188 267.000976562 306 229.000976562 306 c 0
 209.66796875 306 193.66796875 312.666992188 181.000976562 326 c 0
 167.66796875 339.333007812 161.000976562 354.333007812 161.000976562 371 c 0
 161.000976562 387.666992188 165.66796875 401.666992188 175.000976562 413 c 0
 185.66796875 425 201.000976562 431 221.000976562 431 c 0
 279.66796875 431 325.334960938 440.666992188 358.001953125 460 c 0
 388.001953125 478 403.001953125 504 403.001953125 538 c 2
 403.001953125 541 l 1
 403.001953125 545 l 2
 403.001953125 567.666992188 393.668945312 584.333984375 375.001953125 595.000976562 c 0
 353.001953125 607.000976562 321.001953125 613.000976562 279.001953125 613.000976562 c 0
 266.334960938 613.000976562 252.66796875 611.000976562 238.000976562 607.000976562 c 0
 234.000976562 605.66796875 229.333984375 603.16796875 224.000976562 599.500976562 c 0
 218.66796875 595.833984375 214.500976562 592.833984375 211.500976562 590.500976562 c 0
 208.500976562 588.16796875 204.500976562 584.334960938 199.500976562 579.001953125 c 0
 194.500976562 573.668945312 191.000976562 569.668945312 189.000976562 567.001953125 c 0
 185.000976562 554.334960938 181.333984375 549.66796875 178.000976562 553.000976562 c 1
 164.66796875 535.66796875 151.000976562 525.334960938 137.000976562 522.001953125 c 0
 133.000976562 520.668945312 128.66796875 520.001953125 124.000976562 520.001953125 c 0
 114.000976562 520.001953125 103.66796875 523.001953125 93.0009765625 529.001953125 c 0
 78.333984375 536.334960938 69.333984375 548.001953125 66.0009765625 564.001953125 c 0
 65.333984375 568.001953125 65.0009765625 572.001953125 65.0009765625 576.001953125 c 0
 65.0009765625 588.001953125 68.333984375 601.001953125 75.0009765625 615.001953125 c 0
 89.0009765625 643.668945312 110.66796875 668.001953125 140.000976562 688.001953125 c 0
 155.333984375 698.668945312 174.666992188 707.001953125 198 713.001953125 c 0
 221.333007812 719.001953125 246.666015625 722.001953125 273.999023438 722.001953125 c 0
 361.999023438 722.001953125 426.999023438 705.668945312 468.999023438 673.001953125 c 0
 509.666015625 640.334960938 529.999023438 592.66796875 529.999023438 530.000976562 c 2
 529.999023438 526.000976562 l 1
 529.999023438 523.000976562 l 2
 529.999023438 504.333984375 527.166015625 486.833984375 521.499023438 470.500976562 c 0
 515.83203125 454.16796875 508.165039062 440.334960938 498.498046875 429.001953125 c 0
 488.831054688 417.668945312 477.331054688 407.668945312 463.998046875 399.001953125 c 0
 450.665039062 390.334960938 436.998046875 383.66796875 422.998046875 379.000976562 c 1
 433.665039062 375.66796875 443.33203125 372.334960938 451.999023438 369.001953125 c 0
 472.666015625 360.334960938 490.833007812 348.66796875 506.5 334.000976562 c 0
 522.166992188 319.333984375 533.666992188 301.166992188 541 279.5 c 0xf8
EndSplineSet
Validated: 524289
EndChar

StartChar: four
Encoding: 52 52 20
Width: 600
GlyphClass: 2
Flags: W
HStem: -23 21G<427.999 443.333> 218.999 90.001<170.215 371.998 473 541.168>
VStem: 365 98.999<456.567 587.448> 370.998 102.002<37.313 218 309 587.448> 371.998 109.002<-7.4969 213.685>
LayerCount: 2
Fore
SplineSet
479 59 m 0xd0
 480.333007812 51 481 43.6669921875 481 37 c 0xc8
 481 23.6669921875 478.333007812 12 473 2 c 0xd0
 464.333007812 -14.6669921875 451.666015625 -23 434.999023438 -23 c 0
 420.999023438 -23 407.166015625 -17.8330078125 393.499023438 -7.5 c 0
 379.83203125 2.8330078125 372.665039062 13.666015625 371.998046875 24.9990234375 c 0xc8
 371.331054688 32.9990234375 370.998046875 45.666015625 370.998046875 62.9990234375 c 2
 370.998046875 138.999023438 l 2xd0
 370.998046875 166.33203125 371.331054688 192.999023438 371.998046875 218.999023438 c 1xc8
 326.998046875 218.999023438 l 2
 228.331054688 218.999023438 158.6640625 214.666015625 117.997070312 205.999023438 c 0
 113.330078125 204.666015625 108.330078125 204.166015625 102.997070312 204.499023438 c 0
 97.6640625 204.83203125 92.3310546875 205.665039062 86.998046875 206.998046875 c 0
 77.6650390625 210.331054688 70.1650390625 215.498046875 64.498046875 222.498046875 c 0
 58.8310546875 229.498046875 54.498046875 237.498046875 51.498046875 246.498046875 c 0
 48.498046875 255.498046875 46.998046875 264.665039062 46.998046875 273.998046875 c 0
 46.998046875 284.665039062 48.6650390625 294.665039062 51.998046875 303.998046875 c 0
 58.6650390625 323.331054688 76.6650390625 353.831054688 105.998046875 395.498046875 c 0
 135.331054688 437.165039062 173.998046875 488.998046875 221.998046875 550.998046875 c 0
 264.665039062 605.665039062 298.665039062 650.33203125 323.998046875 684.999023438 c 0
 333.331054688 697.666015625 343.998046875 707.499023438 355.998046875 714.499023438 c 0
 367.998046875 721.499023438 379.665039062 724.999023438 390.998046875 724.999023438 c 2
 397.998046875 724.999023438 l 2
 409.998046875 724.999023438 420.998046875 722.666015625 430.998046875 717.999023438 c 0
 443.665039062 711.33203125 451.33203125 699.999023438 453.999023438 683.999023438 c 2
 453.999023438 682.999023438 l 1
 457.999023438 659.666015625 461.33203125 624.166015625 463.999023438 576.499023438 c 0xe0
 466.666015625 528.83203125 468.333007812 488.33203125 469 454.999023438 c 0
 469.666992188 405.666015625 470.666992188 356.666015625 472 307.999023438 c 1
 482 307.33203125 493 306.999023438 505 306.999023438 c 0
 522.333007812 306.999023438 534.5 303.166015625 541.5 295.499023438 c 0
 548.5 287.83203125 552.333007812 277.999023438 553 265.999023438 c 2
 553 265 l 2
 553 251 549.666992188 240 543 232 c 0
 535 222 522.333007812 217 505 217 c 0
 493.666992188 217 483 217.333007812 473 218 c 1
 474.333007812 125.333007812 476.333007812 72.3330078125 479 59 c 0xd0
304 309 m 2
 371.998046875 309 l 1xc8
 371.998046875 424.333007812 369.666992188 517.666015625 365 588.999023438 c 1xe0
 270.333007812 469.666015625 205 375.333007812 169 306 c 1
 206.333007812 308 251.333007812 309 304 309 c 2
EndSplineSet
Validated: 524289
EndChar

StartChar: five
Encoding: 53 53 21
Width: 600
GlyphClass: 2
Flags: W
HStem: -18.002 109.001<194.264 356.338> 407.998 113.043<230.815 400.174> 594.995 112.998<276.102 536.618> 605.995 103.998<169.999 499.386>
VStem: 48 118.999<466.431 602.995> 437.997 124.002<181.147 368.764>
LayerCount: 2
Fore
SplineSet
53 561 m 0xdc
 54.3330078125 581.666992188 54.994140625 596.993164062 54.994140625 606.993164062 c 1
 48.2724609375 617.9921875 44.912109375 630.672851562 44.912109375 645.033203125 c 0
 44.912109375 658.096679688 45.4404296875 681.393554688 64.9951171875 698.993164062 c 0
 74.328125 707.66015625 84.9951171875 711.993164062 96.9951171875 711.993164062 c 0
 121.662109375 711.993164062 183.662109375 711.326171875 282.995117188 709.993164062 c 0xdc
 383.662109375 708.66015625 457.995117188 707.993164062 505.995117188 707.993164062 c 0
 518.662109375 707.993164062 528.995117188 702.66015625 536.995117188 691.993164062 c 0
 546.995117188 678.66015625 551.995117188 662.327148438 551.995117188 642.994140625 c 0
 551.995117188 622.994140625 546.328125 609.661132812 534.995117188 602.994140625 c 0
 531.662109375 600.994140625 528.329101562 599.327148438 524.99609375 597.994140625 c 0
 521.663085938 596.661132812 517.163085938 595.828125 511.49609375 595.495117188 c 0
 505.829101562 595.162109375 501.829101562 594.995117188 499.49609375 594.995117188 c 0xec
 497.163085938 594.995117188 493.49609375 595.162109375 488.49609375 595.495117188 c 0
 483.49609375 595.828125 480.329101562 595.995117188 478.99609375 595.995117188 c 1
 469.663085938 595.995117188 452.330078125 597.328125 426.997070312 599.995117188 c 0
 400.330078125 601.995117188 376.830078125 603.495117188 356.497070312 604.495117188 c 0
 336.1640625 605.495117188 308.831054688 605.995117188 274.498046875 605.995117188 c 0
 240.165039062 605.995117188 205.33203125 604.995117188 169.999023438 602.995117188 c 1
 167.865234375 562.998046875 166.798828125 535.798828125 166.798828125 521.3984375 c 0
 166.798828125 517.796875 166.865234375 514.99609375 166.999023438 512.995117188 c 0
 166.999023438 500.995117188 166.83203125 492.495117188 166.499023438 487.495117188 c 0
 166.166015625 482.495117188 166.333007812 475.328125 167 465.995117188 c 1
 185 479.328125 206.666992188 490.995117188 232 500.995117188 c 0
 267 514.358398438 306.250976562 521.041015625 349.75390625 521.041015625 c 0
 351.826171875 521.041015625 353.908203125 521.025390625 356 520.995117188 c 0
 390.666992188 520.995117188 421.666992188 515.328125 449 503.995117188 c 0
 474.333007812 492.662109375 495.166015625 476.829101562 511.499023438 456.49609375 c 0
 527.83203125 436.163085938 540.33203125 412.830078125 548.999023438 386.497070312 c 0
 557.666015625 360.1640625 561.999023438 331.6640625 561.999023438 300.997070312 c 0
 561.999023438 251.6640625 555.666015625 206.831054688 542.999023438 166.498046875 c 0
 530.33203125 126.165039062 512.165039062 92.498046875 488.498046875 65.498046875 c 0
 464.831054688 38.498046875 435.331054688 17.998046875 399.998046875 3.998046875 c 0
 363.998046875 -10.6689453125 324.998046875 -18.001953125 282.998046875 -18.001953125 c 0
 249.665039062 -18.001953125 218.665039062 -14.6689453125 189.998046875 -8.001953125 c 0
 161.998046875 -1.3349609375 139.331054688 7.33203125 121.998046875 17.9990234375 c 0
 104.665039062 28.666015625 89.998046875 40.3330078125 77.998046875 53 c 0
 65.998046875 65.6669921875 55.998046875 79 47.998046875 93 c 0
 40.6650390625 109 36.998046875 122.666992188 36.998046875 134 c 0
 36.998046875 138 37.6650390625 142 38.998046875 146 c 0
 42.3310546875 160.666992188 51.6640625 172 66.9970703125 180 c 0
 74.9970703125 183.333007812 81.4970703125 185.666015625 86.4970703125 186.999023438 c 0
 91.4970703125 188.33203125 95.830078125 188.999023438 99.4970703125 188.999023438 c 0
 103.1640625 188.999023438 105.997070312 188.666015625 107.997070312 187.999023438 c 0
 116.6640625 187.33203125 124.6640625 183.665039062 131.997070312 176.998046875 c 0
 137.997070312 171.665039062 144.330078125 164.33203125 150.997070312 154.999023438 c 0
 180.997070312 112.33203125 221.330078125 90.9990234375 271.997070312 90.9990234375 c 0
 322.6640625 90.9990234375 362.6640625 108.33203125 391.997070312 142.999023438 c 0
 422.6640625 178.999023438 437.997070312 227.666015625 437.997070312 288.999023438 c 0
 437.997070312 326.33203125 428.6640625 355.665039062 409.997070312 376.998046875 c 0
 392.6640625 397.665039062 365.331054688 407.998046875 327.998046875 407.998046875 c 0
 310.665039062 407.998046875 292.33203125 405.998046875 272.999023438 401.998046875 c 0
 263.666015625 399.998046875 250.666015625 395.331054688 233.999023438 387.998046875 c 0
 229.999023438 385.998046875 224.83203125 382.665039062 218.499023438 377.998046875 c 0
 212.166015625 373.331054688 207.999023438 369.998046875 205.999023438 367.998046875 c 0
 194.666015625 358.665039062 185.333007812 350.665039062 178 343.998046875 c 0
 162.666992188 331.331054688 145 323.998046875 125 321.998046875 c 2
 118 321.998046875 l 2
 108.666992188 321.998046875 99.6669921875 323.998046875 91 327.998046875 c 0
 77 333.998046875 66.3330078125 346.665039062 59 365.998046875 c 0
 53 382.665039062 49.3330078125 403.33203125 48 427.999023438 c 0
 47.666015625 433.33203125 47.5 438.666015625 47.5 444 c 0
 47.5 449.333007812 47.666015625 454.666015625 48 460 c 0
 48 483.333007812 49.6669921875 517 53 561 c 0xdc
EndSplineSet
Validated: 524289
EndChar

StartChar: six
Encoding: 54 54 22
Width: 600
GlyphClass: 2
Flags: W
HStem: -22.002 107.997<226.313 367.936> 379.996 114.002<222.446 403.643>
VStem: 35.001 116<167.545 324.488> 442 123.001<163.55 341.372>
LayerCount: 2
Fore
SplineSet
550 361 m 0
 560 329.666992188 565.000976562 293.331054688 565.000976562 251.998046875 c 0
 565.000976562 213.998046875 558.333984375 178.331054688 545.000976562 144.998046875 c 0
 519.000976562 76.998046875 473.66796875 28.3310546875 409.000976562 -1.001953125 c 0
 376.479492188 -15.03125 341.82421875 -22.0458984375 305.033203125 -22.0458984375 c 0
 303.360351562 -22.0458984375 301.682617188 -22.03125 300.000976562 -22.001953125 c 0
 253.333984375 -22.001953125 212.000976562 -14.001953125 176.000976562 1.998046875 c 0
 142.000976562 18.6650390625 114.833984375 41.998046875 94.5009765625 71.998046875 c 0
 74.16796875 101.998046875 59.16796875 136.831054688 49.5009765625 176.498046875 c 0
 39.833984375 216.165039062 35.0009765625 259.665039062 35.0009765625 306.998046875 c 0
 35.0009765625 366.998046875 40.833984375 420.498046875 52.5009765625 467.498046875 c 0
 64.16796875 514.498046875 79.8349609375 553.831054688 99.501953125 585.498046875 c 0
 119.168945312 617.165039062 144.001953125 643.665039062 174.001953125 664.998046875 c 0
 205.334960938 686.998046875 239.334960938 703.665039062 276.001953125 714.998046875 c 0
 312.668945312 726.331054688 353.001953125 733.6640625 397.001953125 736.997070312 c 2
 408.001953125 736.997070312 l 2
 423.334960938 736.997070312 436.66796875 734.330078125 448.000976562 728.997070312 c 0
 463.333984375 721.6640625 472.333984375 709.997070312 475.000976562 693.997070312 c 2
 475.000976562 689.997070312 l 2
 475.000976562 679.997070312 470.000976562 669.6640625 460.000976562 658.997070312 c 0
 449.333984375 648.330078125 437.000976562 640.997070312 423.000976562 636.997070312 c 0
 415.000976562 634.997070312 402.66796875 632.497070312 386.000976562 629.497070312 c 0
 369.333984375 626.497070312 355.333984375 623.6640625 344.000976562 620.997070312 c 0
 332.66796875 618.330078125 319.66796875 614.330078125 305.000976562 608.997070312 c 0
 275.66796875 598.330078125 246.000976562 577.997070312 216.000976562 547.997070312 c 0
 200.66796875 531.997070312 186.66796875 510.330078125 174.000976562 482.997070312 c 0
 168.000976562 468.997070312 162.66796875 455.997070312 158.000976562 443.997070312 c 1
 176.000976562 456.6640625 196.333984375 466.6640625 219.000976562 473.997070312 c 0
 256.333984375 486.6640625 298.333984375 493.331054688 345.000976562 493.998046875 c 0
 380.333984375 493.998046875 411.666992188 489.331054688 439 479.998046875 c 0
 465 470.665039062 487.5 456.33203125 506.5 436.999023438 c 0
 525.5 417.666015625 540 392.333007812 550 361 c 0
250.000976562 94.9970703125 m 0
 265.333984375 88.9970703125 281.666992188 85.9951171875 299 85.9951171875 c 2
 301 85.9951171875 l 1
 302 85.9951171875 l 2
 325.333007812 85.9951171875 348 93.662109375 370 108.995117188 c 0
 392 124.328125 409.5 143.828125 422.5 167.495117188 c 0
 435.5 191.162109375 442 215.329101562 442 239.99609375 c 0
 442 297.329101562 431 335.329101562 409 353.99609375 c 0
 397.666992188 363.329101562 384.833984375 369.99609375 370.500976562 373.99609375 c 0
 356.16796875 377.99609375 338.000976562 379.99609375 316.000976562 379.99609375 c 0
 282.000976562 379.99609375 250.333984375 372.49609375 221.000976562 357.49609375 c 0
 191.66796875 342.49609375 168.000976562 323.329101562 150.000976562 299.99609375 c 1
 150.000976562 274.663085938 150.333984375 253.663085938 151.000976562 236.99609375 c 0
 153.66796875 208.99609375 163.334960938 181.663085938 180.001953125 154.99609375 c 0
 188.668945312 141.663085938 198.668945312 129.830078125 210.001953125 119.497070312 c 0
 221.334960938 109.1640625 234.66796875 100.997070312 250.000976562 94.9970703125 c 0
EndSplineSet
Validated: 524289
EndChar

StartChar: seven
Encoding: 55 55 23
Width: 600
GlyphClass: 2
Flags: W
HStem: -23 21G<124.998 132.665> 601 113.001<86.733 414.999>
LayerCount: 2
Fore
SplineSet
228 601 m 0
 162 599.666992188 119.33203125 596.669921875 99.9990234375 592.002929688 c 0
 95.9990234375 590.669921875 91.4990234375 590.002929688 86.4990234375 590.002929688 c 0
 81.4990234375 590.002929688 76.33203125 591.002929688 70.9990234375 593.002929688 c 0
 62.33203125 596.3359375 55.6650390625 601.3359375 50.998046875 608.002929688 c 0
 41.6650390625 620.002929688 36.6650390625 633.669921875 35.998046875 649.002929688 c 1
 35.998046875 642.3359375 35.998046875 642.668945312 35.998046875 650.001953125 c 0
 35.998046875 664.001953125 39.998046875 675.668945312 47.998046875 685.001953125 c 0
 55.998046875 694.334960938 69.6650390625 700.66796875 88.998046875 704.000976562 c 0
 124.998046875 710.66796875 185.331054688 714.000976562 269.998046875 714.000976562 c 0
 304.665039062 714.000976562 352.33203125 712.66796875 412.999023438 710.000976562 c 0
 470.33203125 708.000976562 500.33203125 707.000976562 502.999023438 707.000976562 c 0
 511.666015625 707.000976562 520.166015625 705.16796875 528.499023438 701.500976562 c 0
 536.83203125 697.833984375 544.665039062 692.000976562 551.998046875 684.000976562 c 0
 559.331054688 675.333984375 563.331054688 664.000976562 563.998046875 650.000976562 c 0
 563.998046875 638.000976562 560.331054688 624.66796875 552.998046875 610.000976562 c 0
 543.665039062 590.000976562 526.665039062 560.500976562 501.998046875 521.500976562 c 0
 477.331054688 482.500976562 451.331054688 442.66796875 423.998046875 402.000976562 c 0
 395.331054688 361.333984375 360.331054688 307.166992188 318.998046875 239.5 c 0
 277.665039062 171.833007812 238.665039062 102.666015625 201.998046875 31.9990234375 c 0
 192.665039062 12.666015625 179.665039062 -1.6669921875 162.998046875 -11 c 0
 150.331054688 -19 138.331054688 -23 126.998046875 -23 c 0
 122.998046875 -23 118.998046875 -22.6669921875 114.998046875 -22 c 0
 96.998046875 -18 84.3310546875 -8 76.998046875 8 c 0
 73.6650390625 15.3330078125 71.998046875 23.166015625 71.998046875 31.4990234375 c 0
 71.998046875 39.83203125 74.3310546875 48.9990234375 78.998046875 58.9990234375 c 0
 112.998046875 125.666015625 150.665039062 191.999023438 191.998046875 257.999023438 c 0
 234.665039062 323.999023438 269.83203125 376.33203125 297.499023438 414.999023438 c 0
 325.166015625 453.666015625 349.499023438 489.333007812 370.499023438 522 c 0
 391.499023438 554.666992188 406.33203125 581 414.999023438 601 c 1
 386.33203125 601.666015625 356.416015625 602 325.25 602 c 0
 294.083007812 602 261.666015625 601.666015625 228 601 c 0
EndSplineSet
Validated: 524289
EndChar

StartChar: eight
Encoding: 56 56 24
Width: 600
GlyphClass: 2
Flags: W
HStem: -28.001 110<203.683 385.136> 621.999 96.002<221.262 357.578>
VStem: 28.998 111.003<137.082 263.615> 55.998 121.003<482.059 579.145> 409 117.001<478.907 573.656> 453.001 116.998<140 269.94>
LayerCount: 2
Fore
SplineSet
218.000976562 96.9990234375 m 0xe4
 241.333984375 86.9990234375 266.333984375 81.9990234375 293.000976562 81.9990234375 c 0
 311.66796875 81.9990234375 330.500976562 84.666015625 349.500976562 89.9990234375 c 0
 368.500976562 95.33203125 385.833984375 102.999023438 401.500976562 112.999023438 c 0
 417.16796875 122.999023438 429.66796875 135.666015625 439.000976562 150.999023438 c 0
 448.333984375 166.33203125 453.000976562 182.999023438 453.000976562 200.999023438 c 0
 453.000976562 210.999023438 452.000976562 220.33203125 450.000976562 228.999023438 c 0
 448.000976562 237.666015625 444.000976562 247.666015625 438.000976562 258.999023438 c 0
 432.000976562 270.33203125 423.66796875 280.999023438 413.000976562 290.999023438 c 0
 402.333984375 300.999023438 387.500976562 311.33203125 368.500976562 321.999023438 c 0
 349.500976562 332.666015625 327.000976562 342.333007812 301.000976562 351 c 1
 253.000976562 339 214.000976562 318.666992188 184.000976562 290 c 0
 154.66796875 261.333007812 140.000976562 230.666015625 140.000976562 197.999023438 c 0
 140.000976562 175.999023438 147.000976562 155.999023438 161.000976562 137.999023438 c 0
 176.333984375 119.999023438 195.333984375 106.33203125 218.000976562 96.9990234375 c 0xe4
210.499023438 591.499023438 m 0
 188.166015625 571.166015625 177.000976562 549.333007812 177.000976562 526 c 0
 177.000976562 507.333007812 186.66796875 490.666015625 206.000976562 475.999023438 c 0
 226.000976562 460.666015625 259.66796875 444.999023438 307.000976562 428.999023438 c 1
 334.333984375 439.666015625 358.166992188 453.666015625 378.5 470.999023438 c 0
 398.833007812 488.33203125 409 503.33203125 409 515.999023438 c 0xd8
 409 532.666015625 403.833007812 548.999023438 393.5 564.999023438 c 0
 383.166992188 580.999023438 368.666992188 594.499023438 350 605.499023438 c 0
 331.333007812 616.499023438 311.666015625 621.999023438 290.999023438 621.999023438 c 2
 288.999023438 621.999023438 l 2
 258.999023438 621.999023438 232.83203125 611.83203125 210.499023438 591.499023438 c 0
566.5 246 m 0
 568.833007812 234 569.999023438 221.33203125 569.999023438 207.999023438 c 0
 569.999023438 185.999023438 566.999023438 164.33203125 560.999023438 142.999023438 c 0
 554.999023438 121.666015625 544.999023438 100.499023438 530.999023438 79.4990234375 c 0
 516.999023438 58.4990234375 499.666015625 40.33203125 478.999023438 24.9990234375 c 0
 458.33203125 9.666015625 431.165039062 -3.0009765625 397.498046875 -13.0009765625 c 0
 363.831054688 -23.0009765625 327.1640625 -28.0009765625 287.497070312 -28.0009765625 c 0
 247.830078125 -28.0009765625 212.330078125 -23.333984375 180.997070312 -14.0009765625 c 0
 150.997070312 -4.66796875 126.830078125 7.4990234375 108.497070312 22.4990234375 c 0
 90.1640625 37.4990234375 74.8310546875 55.166015625 62.498046875 75.4990234375 c 0
 50.1650390625 95.83203125 41.498046875 116.33203125 36.498046875 136.999023438 c 0
 31.498046875 157.666015625 28.998046875 179.333007812 28.998046875 202 c 0xe4
 28.998046875 224.666992188 34.998046875 249.166992188 46.998046875 275.5 c 0
 58.998046875 301.833007812 76.6650390625 326.333007812 99.998046875 349 c 0
 115.998046875 365 133.331054688 377.666992188 151.998046875 387 c 1
 125.331054688 402.333007812 103.998046875 420.666015625 87.998046875 441.999023438 c 0
 66.6650390625 469.999023438 55.998046875 498.666015625 55.998046875 527.999023438 c 0
 55.998046875 536.666015625 56.6650390625 545.666015625 57.998046875 554.999023438 c 0
 59.3310546875 564.33203125 62.1640625 575.33203125 66.4970703125 587.999023438 c 0
 70.830078125 600.666015625 76.330078125 612.83203125 82.9970703125 624.499023438 c 0
 89.6640625 636.166015625 98.8310546875 647.833007812 110.498046875 659.5 c 0
 122.165039062 671.166992188 135.33203125 681.000976562 149.999023438 689.000976562 c 0
 166.666015625 697.66796875 186.999023438 704.66796875 210.999023438 710.000976562 c 0
 234.999023438 715.333984375 261.33203125 718.000976562 289.999023438 718.000976562 c 0
 318.666015625 718.000976562 344.999023438 715.333984375 368.999023438 710.000976562 c 0
 392.999023438 704.66796875 413.33203125 698.000976562 429.999023438 690.000976562 c 0
 446.666015625 681.333984375 460.833007812 671.166992188 472.5 659.5 c 0
 484.166992188 647.833007812 493.333984375 636.166015625 500.000976562 624.499023438 c 0
 506.66796875 612.83203125 512.000976562 600.499023438 516.000976562 587.499023438 c 0
 520.000976562 574.499023438 522.66796875 563.166015625 524.000976562 553.499023438 c 0
 525.333984375 543.83203125 526.000976562 534.33203125 526.000976562 524.999023438 c 0
 526.000976562 515.666015625 524.833984375 506.833007812 522.500976562 498.5 c 0
 520.16796875 490.166992188 517.334960938 482.666015625 514.001953125 475.999023438 c 0
 510.668945312 469.33203125 506.000976562 462.5 500.000976562 455.5 c 0
 494.000976562 448.5 488.501953125 442.666992188 483.501953125 438 c 0
 478.501953125 433.333007812 472.168945312 428 464.501953125 422 c 0
 456.834960938 416 450.66796875 411.666992188 446.000976562 409 c 0
 441.333984375 406.333007812 435.333984375 402.333007812 428.000976562 397 c 1
 446.66796875 389 463.000976562 380 477.000976562 370 c 0
 496.333984375 356.666992188 511.833984375 343.166992188 523.500976562 329.5 c 0
 535.16796875 315.833007812 544.66796875 301.5 552.000976562 286.5 c 0
 559.333984375 271.5 564.166992188 258 566.5 246 c 0
EndSplineSet
Validated: 524289
EndChar

StartChar: nine
Encoding: 57 57 25
Width: 600
GlyphClass: 2
Flags: W
HStem: -22.9951 21G<159.667 168.667> 223.002 113.005<211.64 393.074> 630.006 108.993<228.43 375.931>
VStem: 35 122.002<391.618 557.824> 451.002 113.997<379.658 542.364>
LayerCount: 2
Fore
SplineSet
177 555.004882812 m 0
 163.666992188 532.337890625 157.001953125 509.006835938 157.001953125 485.006835938 c 0
 157.001953125 385.673828125 204 336.006835938 298 336.006835938 c 0
 328 336.006835938 357.001953125 342.006835938 385.001953125 354.006835938 c 0
 413.001953125 366.006835938 435.001953125 381.33984375 451.001953125 400.006835938 c 1
 451.001953125 409.006835938 l 2
 451.001953125 427.006835938 450.001953125 450.673828125 448.001953125 480.006835938 c 0
 445.334960938 508.006835938 435.66796875 535.33984375 419.000976562 562.006835938 c 0
 410.333984375 575.33984375 400.500976562 587.172851562 389.500976562 597.505859375 c 0
 378.500976562 607.838867188 365.16796875 615.838867188 349.500976562 621.505859375 c 0
 333.833984375 627.172851562 317.666992188 630.005859375 301 630.005859375 c 2
 298 630.005859375 l 2
 274 630.005859375 251.166992188 623.172851562 229.5 609.505859375 c 0
 207.833007812 595.838867188 190.333007812 577.671875 177 555.004882812 c 0
177 -22 m 0
 173.666992188 -22 170.333984375 -22.328125 167.000976562 -22.9951171875 c 0
 152.333984375 -22.9951171875 139.333984375 -19.9951171875 128.000976562 -13.9951171875 c 0
 112.66796875 -6.662109375 104.000976562 5.0048828125 102.000976562 21.0048828125 c 0
 102.000976562 22.337890625 101.66796875 23.337890625 101.000976562 24.0048828125 c 0
 101.000976562 34.671875 106.16796875 45.171875 116.500976562 55.5048828125 c 0
 126.833984375 65.837890625 138.333984375 73.0048828125 151.000976562 77.0048828125 c 0
 159.000976562 79.0048828125 172.16796875 81.671875 190.500976562 85.0048828125 c 0
 208.833984375 88.337890625 225.000976562 91.6708984375 239.000976562 95.00390625 c 0
 253.000976562 98.3369140625 268.333984375 102.669921875 285.000976562 108.002929688 c 0
 320.333984375 120.002929688 351.333984375 139.002929688 378.000976562 165.002929688 c 0
 395.333984375 183.002929688 411.000976562 203.669921875 425.000976562 227.002929688 c 0
 430.333984375 236.3359375 435.000976562 245.668945312 439.000976562 255.001953125 c 1
 424.333984375 247.001953125 408.333984375 240.668945312 391.000976562 236.001953125 c 0
 358.333984375 228.001953125 318.000976562 223.668945312 270.000976562 223.001953125 c 0
 236.000976562 223.001953125 203.66796875 230.001953125 173.000976562 244.001953125 c 0
 143.66796875 258.001953125 119.16796875 276.668945312 99.5009765625 300.001953125 c 0
 79.833984375 323.334960938 64.1669921875 350.16796875 52.5 380.500976562 c 0
 40.8330078125 410.833984375 35 441.666992188 35 473 c 0
 35 511 41.5 546.5 54.5 579.5 c 0
 67.5 612.5 85.1669921875 640.666992188 107.5 664 c 0
 129.833007812 687.333007812 157.666015625 705.666015625 190.999023438 718.999023438 c 0
 224.999023438 732.33203125 260.999023438 738.999023438 298.999023438 738.999023438 c 0
 392.999023438 738.999023438 461.33203125 706.999023438 503.999023438 642.999023438 c 0
 543.999023438 582.999023438 564.33203125 498.33203125 564.999023438 388.999023438 c 0
 564.999023438 331.666015625 558.33203125 280.999023438 544.999023438 236.999023438 c 0
 531.666015625 192.999023438 513.833007812 155.83203125 491.5 125.499023438 c 0
 469.166992188 95.166015625 441.666992188 69.3330078125 409 48 c 0
 375 26.6669921875 338.833007812 10.5 300.5 -0.5 c 0
 262.166992188 -11.5 221 -18.6669921875 177 -22 c 0
EndSplineSet
Validated: 524289
EndChar

StartChar: colon
Encoding: 58 58 26
Width: 600
GlyphClass: 2
Flags: W
HStem: 27.001 180<242.159 356.079> 295.001 179<252.565 352.156>
VStem: 223 155<49.1377 186.712 322.001 455.644>
LayerCount: 2
Fore
SplineSet
375 404 m 0
 375 384.666992188 372 364.668945312 366 344.001953125 c 0
 362 327.334960938 353 314.66796875 339 306.000976562 c 0
 327 298.66796875 315 295.000976562 303 295.000976562 c 2
 300 295.000976562 l 2
 280 296.333984375 264 300.333984375 252 307.000976562 c 0
 235.333007812 317.000976562 226 332.000976562 224 352.000976562 c 1
 222.666992188 364.000976562 222 376.000976562 222 388.000976562 c 0
 222 400.66796875 222.333007812 412.334960938 223 423.001953125 c 0
 223.666992188 433.668945312 227 443.001953125 233 451.001953125 c 0
 239 458.334960938 246.333007812 463.66796875 255 467.000976562 c 0
 263.666992188 470.333984375 271.333984375 472.333984375 278.000976562 473.000976562 c 0
 284.66796875 473.66796875 289.66796875 474.000976562 293.000976562 474.000976562 c 0
 304.333984375 474.000976562 314.000976562 473.333984375 322.000976562 472.000976562 c 0
 329.333984375 470.66796875 336.666992188 468.000976562 344 464.000976562 c 0
 352 460.000976562 359 454.000976562 365 446.000976562 c 0
 370.333007812 438.000976562 373.333007812 428.66796875 374 418.000976562 c 0
 374.666992188 413.333984375 375 408.666992188 375 404 c 0
378 124.001953125 m 0
 378 108.001953125 375.66796875 91.6689453125 371.000976562 75.001953125 c 0
 367.000976562 58.3349609375 356.66796875 46.001953125 340.000976562 38.001953125 c 0
 326.000976562 31.3349609375 312.66796875 27.66796875 300.000976562 27.0009765625 c 0
 283.333984375 27.0009765625 267.000976562 32.0009765625 251.000976562 42.0009765625 c 0
 235.000976562 52.0009765625 226.333984375 66.0009765625 225.000976562 84.0009765625 c 0
 224.333984375 102.66796875 223.666992188 113.334960938 223 116.001953125 c 0
 223 118.668945312 223.333007812 124.668945312 224 134.001953125 c 0
 224.666992188 143.334960938 225.333984375 150.66796875 226.000976562 156.000976562 c 0
 226.000976562 166.66796875 229.000976562 176.000976562 235.000976562 184.000976562 c 0
 241.000976562 192.000976562 249.000976562 197.333984375 259.000976562 200.000976562 c 0
 272.333984375 204.66796875 285.333984375 207.000976562 298.000976562 207.000976562 c 0
 310.000976562 207.000976562 320.66796875 205.66796875 330.000976562 203.000976562 c 0
 339.333984375 200.333984375 348.666992188 194.333984375 358 185.000976562 c 0
 367.333007812 176.333984375 373 165.333984375 375 152.000976562 c 0
 377 142.66796875 378 133.334960938 378 124.001953125 c 0
EndSplineSet
Validated: 524289
EndChar

StartChar: semicolon
Encoding: 59 59 27
Width: 600
GlyphClass: 2
Flags: W
HStem: 253 180.001<273.692 382.11>
VStem: 252.001 152.999<275.988 416.875>
LayerCount: 2
Fore
SplineSet
405 363 m 2
 405 343.666992188 401.999023438 323.333984375 395.999023438 302.000976562 c 0
 391.999023438 285.333984375 382.999023438 272.666992188 368.999023438 264 c 0
 356.999023438 256.666992188 344.999023438 253 332.999023438 253 c 0
 323.666015625 253 313.333007812 255 302 259 c 0
 290.666992188 263 280.333984375 269 271.000976562 277 c 0
 261.000976562 286.333007812 255.333984375 297.333007812 254.000976562 310 c 1
 252.66796875 322 252.000976562 334.333007812 252.000976562 347 c 0
 252.000976562 359.666992188 252.333984375 371 253.000976562 381 c 0
 253.66796875 391.666992188 257.000976562 401 263.000976562 409 c 0
 269.000976562 417 276.333984375 422.333007812 285.000976562 425 c 0
 299.66796875 429.666992188 313.66796875 432.333984375 327.000976562 433.000976562 c 0
 337.000976562 433.000976562 345.333984375 432.000976562 352.000976562 430.000976562 c 0
 359.333984375 428.66796875 367.000976562 426.000976562 375.000976562 422.000976562 c 0
 383.000976562 418.000976562 389.66796875 412.333984375 395.000976562 405.000976562 c 0
 400.333984375 396.333984375 403.666992188 386.666992188 405 376 c 2
 405 363 l 2
384.999023438 79 m 2
 385 73 l 2
 383 51 361.333007812 -36.6669921875 320 -190 c 0
 315.333007812 -206.666992188 306.666015625 -219 293.999023438 -227 c 0
 282.666015625 -234.333007812 271.333007812 -238 260 -238 c 0
 242.666992188 -238 227 -233 213 -223 c 0
 200.966796875 -214.133789062 194.950195312 -202.258789062 194.950195312 -187.375976562 c 0
 194.950195312 -168.400390625 205.454101562 -113.73046875 215 -65.9990234375 c 0
 228.333007812 0.0009765625 239 49.333984375 247 82.0009765625 c 0
 249.666992188 93.333984375 253.333984375 103.000976562 258.000976562 111.000976562 c 0
 263.333984375 119.000976562 269.333984375 124.000976562 276.000976562 126.000976562 c 0
 285.333984375 129.333984375 294.333984375 131.333984375 303.000976562 132.000976562 c 0
 306.333984375 132.000976562 309.666992188 131.66796875 313 131.000976562 c 0
 327 131.000976562 341.333007812 127.66796875 356 121.000976562 c 0
 365.333007812 117.000976562 372.666015625 110.66796875 377.999023438 102.000976562 c 0
 382.666015625 95.333984375 384.999023438 87.6669921875 384.999023438 79 c 2
EndSplineSet
Validated: 524289
EndChar

StartChar: less
Encoding: 60 60 28
Width: 600
GlyphClass: 2
Flags: W
HStem: -25 21G<490.667 497.667>
LayerCount: 2
Fore
SplineSet
496 -25 m 0
 485.333007812 -25 473.333007812 -22.662109375 460 -17.9951171875 c 0
 442 -12.662109375 420.333007812 -0.662109375 395 18.0048828125 c 0
 369.666992188 36.671875 342.666992188 58.671875 314 84.0048828125 c 0
 285.333007812 109.337890625 257 135.004882812 229 161.004882812 c 0
 201 187.004882812 171.666992188 213.671875 141 241.004882812 c 0
 110.333007812 268.337890625 84.3330078125 290.004882812 63 306.004882812 c 0
 52.3330078125 314.004882812 45 325.004882812 41 339.004882812 c 0
 39.6669921875 345.004882812 39 351.671875 39 359.004882812 c 0
 39 365.671875 40 372.671875 42 380.004882812 c 0
 46 394.004882812 53.3330078125 404.004882812 64 410.004882812 c 0
 101.333007812 438.004882812 145.666015625 473.004882812 196.999023438 515.004882812 c 0
 247.666015625 557.671875 294.333007812 596.004882812 337 630.004882812 c 0
 379.666992188 664.671875 418 692.004882812 452 712.004882812 c 0
 465.333007812 720.671875 478.666015625 725.004882812 491.999023438 725.004882812 c 0
 501.999023438 725.004882812 510.666015625 722.671875 517.999023438 718.004882812 c 0
 532.666015625 709.337890625 543.333007812 697.670898438 550 683.00390625 c 0
 553.333007812 676.336914062 555 669.00390625 555 661.00390625 c 0
 555 653.00390625 552.666992188 644.670898438 548 636.00390625 c 0
 540 622.670898438 523.666992188 607.670898438 499 591.00390625 c 0
 462.333007812 565.00390625 409 524.670898438 339 470.00390625 c 0
 269 415.336914062 221.666992188 378.669921875 197 360.002929688 c 1
 219.666992188 342.002929688 245.666992188 319.669921875 275 293.002929688 c 0
 305 266.3359375 332 241.668945312 356 219.001953125 c 0
 380 196.334960938 406 173.001953125 434 149.001953125 c 0
 462 125.001953125 486.666992188 106.334960938 508 93.001953125 c 0
 530 79.001953125 545 65.6689453125 553 53.001953125 c 0
 558.333007812 45.001953125 561 36.6689453125 561 28.001953125 c 0
 561 21.3349609375 559.666992188 14.66796875 557 8.0009765625 c 0
 548.333007812 -10.666015625 531 -21.3330078125 505 -24 c 0
 502.333007812 -24.6669921875 499.333007812 -25 496 -25 c 0
EndSplineSet
Validated: 524289
EndChar

StartChar: equal
Encoding: 61 61 29
Width: 600
GlyphClass: 2
Flags: W
HStem: 235 107<112.503 489.62> 435 106<114.565 489.621>
LayerCount: 2
Fore
SplineSet
449 541 m 0
 468.333007812 541 482 536.333007812 490 527 c 0
 498 517.666992188 502.666992188 506 504 492 c 2
 504 491 l 2
 504 483.666992188 503.333007812 477 502 471 c 0
 500.666992188 465 498 459 494 453 c 0
 490 447 483.666992188 442 475 438 c 0
 469 435.333007812 462.666992188 434.333007812 456 435 c 2
 448 435 l 2
 424 435.666992188 399.333007812 436 374 436 c 2
 264 433 l 2
 217.333007812 431.666992188 183 431 161 431 c 0
 141.666992188 431 126 436 114 446 c 0
 102 456 96 468.666992188 96 484 c 2
 96 487 l 2
 96 501 100.666992188 513.666992188 110 525 c 0
 120 535.666992188 134.333007812 541 153 541 c 2
 157 541 l 2
 196.599609375 539.799804688 239.91796875 539.200195312 286.95703125 539.200195312 c 0
 318.318359375 539.200195312 351.33203125 539.466796875 386 540 c 0
 420.666992188 540.666992188 441.666992188 541 449 541 c 0
456 239 m 2
 448 239 l 2
 432.666992188 239.666992188 418.666992188 240 406 240 c 0
 378 240 335 239.333007812 277 238 c 0
 219 236 179.666992188 235 159 235 c 0
 138.333007812 235 122.666015625 240.333007812 111.999023438 251 c 0
 101.33203125 261.666992188 95.9990234375 274.666992188 95.9990234375 290 c 2
 95.9990234375 292 l 2
 95.9990234375 306 101.33203125 318 111.999023438 328 c 0
 122.666015625 337.333007812 137.666015625 342 156.999023438 342 c 2
 174.999023438 342 l 2
 189.228515625 341.77734375 204.940429688 341.666015625 222.135742188 341.666015625 c 0
 256.5 341.666015625 296.788085938 342.110351562 342.999023438 342.999023438 c 2
 448.999023438 344.999023438 l 2
 468.33203125 344.999023438 481.999023438 340.33203125 489.999023438 330.999023438 c 0
 497.999023438 321.666015625 502.666015625 309.999023438 503.999023438 295.999023438 c 2
 503.999023438 294.999023438 l 2
 503.999023438 287.666015625 503.33203125 281.333007812 501.999023438 276 c 0
 500.666015625 270 497.999023438 264 493.999023438 258 c 0
 489.999023438 251.333007812 483.666015625 246 474.999023438 242 c 0
 469.666015625 240 463.333007812 239 456 239 c 2
EndSplineSet
Validated: 524289
EndChar

StartChar: greater
Encoding: 62 62 30
Width: 600
GlyphClass: 2
Flags: W
HStem: -18 21G<103.333 114.667>
LayerCount: 2
Fore
SplineSet
108 -18 m 0
 98.6669921875 -18 89.998046875 -15.6708984375 81.998046875 -11.00390625 c 0
 74.6650390625 -6.3369140625 67.998046875 -1.00390625 61.998046875 4.99609375 c 0
 56.6650390625 10.99609375 52.6650390625 17.6630859375 49.998046875 24.99609375 c 0
 46.6650390625 31.6630859375 44.6650390625 38.6630859375 43.998046875 45.99609375 c 0
 43.998046875 53.99609375 46.6650390625 62.3291015625 51.998046875 70.99609375 c 0
 59.998046875 84.3291015625 75.998046875 99.3291015625 99.998046875 115.99609375 c 0
 136.665039062 141.99609375 190.33203125 182.329101562 260.999023438 236.99609375 c 0
 330.999023438 291.663085938 378.33203125 328.330078125 402.999023438 346.997070312 c 1
 380.33203125 364.997070312 353.999023438 387.330078125 323.999023438 413.997070312 c 0
 293.999023438 440.6640625 267.33203125 465.331054688 243.999023438 487.998046875 c 0
 219.999023438 510.665039062 193.999023438 533.998046875 165.999023438 557.998046875 c 0
 137.999023438 581.998046875 113.33203125 600.665039062 91.9990234375 613.998046875 c 0
 69.9990234375 627.998046875 54.9990234375 641.331054688 46.9990234375 653.998046875 c 0
 41.666015625 661.998046875 38.9990234375 670.665039062 38.9990234375 679.998046875 c 0
 38.9990234375 686.665039062 40.33203125 692.998046875 42.9990234375 698.998046875 c 0
 51.666015625 717.665039062 68.9990234375 728.33203125 94.9990234375 730.999023438 c 0
 98.33203125 731.666015625 101.33203125 731.999023438 103.999023438 731.999023438 c 0
 114.666015625 731.999023438 126.666015625 729.666015625 139.999023438 724.999023438 c 0
 157.999023438 719.666015625 179.666015625 707.666015625 204.999023438 688.999023438 c 0
 230.33203125 670.33203125 257.33203125 648.33203125 285.999023438 622.999023438 c 0
 314.666015625 597.666015625 342.999023438 571.999023438 370.999023438 545.999023438 c 0
 398.999023438 519.999023438 428.33203125 493.33203125 458.999023438 465.999023438 c 0
 489.666015625 438.666015625 515.666015625 417.333007812 536.999023438 402 c 0
 547.666015625 394 554.999023438 382.666992188 558.999023438 368 c 0
 560.33203125 362 560.999023438 355.333007812 560.999023438 348 c 0
 560.999023438 341.333007812 559.999023438 334.333007812 557.999023438 327 c 0
 553.999023438 313 546.666015625 303 535.999023438 297 c 0
 498.666015625 269.666992188 454.333007812 234.666992188 403 192 c 0
 352.333007812 149.333007812 305.666015625 111 262.999023438 77 c 0
 220.33203125 43 181.999023438 15.6669921875 147.999023438 -5 c 0
 134.666015625 -13.6669921875 121.333007812 -18 108 -18 c 0
EndSplineSet
Validated: 524289
EndChar

StartChar: question
Encoding: 63 63 31
Width: 600
GlyphClass: 2
Flags: W
HStem: -26.002 178.001<219.892 336.37> 508.999 21G<140.334 155.001> 625 109.069<241.464 370.064>
VStem: 184.003 187.001<7.88811 117.73> 217.003 125.996<216.992 316.186> 395.038 124.961<484.855 602.144>
LayerCount: 2
Fore
SplineSet
287 201 m 0xec
 281 201 274.669921875 201.665039062 268.002929688 202.998046875 c 0
 234.669921875 211.665039062 217.669921875 232.33203125 217.002929688 264.999023438 c 0
 217.002929688 274.33203125 218.669921875 284.33203125 222.002929688 294.999023438 c 0
 226.669921875 314.33203125 233.669921875 332.33203125 243.002929688 348.999023438 c 0
 252.3359375 365.666015625 262.668945312 379.999023438 274.001953125 391.999023438 c 0
 284.668945312 403.999023438 296.001953125 414.999023438 308.001953125 424.999023438 c 0
 320.001953125 435.666015625 331.334960938 445.333007812 342.001953125 454 c 0
 352.668945312 462.666992188 362.001953125 471.666992188 370.001953125 481 c 0
 386.692382812 498.975585938 395.038085938 517.568359375 395.038085938 536.779296875 c 0
 395.038085938 554.662109375 393.403320312 586.278320312 370.000976562 605 c 0
 352.819335938 618.36328125 328.045898438 625.045898438 295.678710938 625.045898438 c 0
 294.13671875 625.045898438 292.577148438 625.030273438 291.000976562 625 c 0
 283.000976562 625 275.333984375 623.333007812 268.000976562 620 c 0
 260.000976562 616 252.66796875 611.666992188 246.000976562 607 c 0
 240.000976562 602.333007812 233.333984375 595.666015625 226.000976562 586.999023438 c 0
 218.66796875 578.33203125 213.000976562 570.999023438 209.000976562 564.999023438 c 0
 205.000976562 558.999023438 199.66796875 551.666015625 193.000976562 542.999023438 c 0
 187.000976562 533.666015625 180.333984375 525.999023438 173.000976562 519.999023438 c 0
 166.333984375 513.999023438 159.000976562 510.33203125 151.000976562 508.999023438 c 2
 142.000976562 508.999023438 l 2
 138.66796875 508.999023438 134.66796875 509.666015625 130.000976562 510.999023438 c 0
 125.333984375 512.33203125 118.666992188 514.665039062 110 517.998046875 c 0
 95.3330078125 525.998046875 86 537.331054688 82 551.998046875 c 2
 80 563.998046875 l 2
 80 575.331054688 83.6669921875 588.998046875 91 604.998046875 c 0
 98.3330078125 619.665039062 107.666015625 633.665039062 118.999023438 646.998046875 c 0
 130.33203125 660.998046875 143.999023438 674.665039062 159.999023438 687.998046875 c 0
 175.999023438 701.998046875 194.999023438 713.331054688 216.999023438 721.998046875 c 0
 237.426757812 730.045898438 259.00390625 734.069335938 281.731445312 734.069335938 c 0
 283.48046875 734.069335938 285.236328125 734.045898438 286.999023438 733.998046875 c 0
 362.33203125 733.998046875 419.999023438 716.331054688 459.999023438 680.998046875 c 0
 499.999023438 645.665039062 519.999023438 592.665039062 519.999023438 521.998046875 c 0
 519.999023438 502.665039062 516.666015625 484.998046875 509.999023438 468.998046875 c 0
 503.999023438 452.998046875 495.999023438 438.998046875 485.999023438 426.998046875 c 0
 475.999023438 415.665039062 464.999023438 405.33203125 452.999023438 395.999023438 c 2
 416.999023438 367.999023438 l 2
 404.999023438 358.666015625 393.999023438 349.333007812 383.999023438 340 c 0
 373.999023438 330.666992188 365.33203125 319 357.999023438 305 c 0
 350.666015625 291.666992188 345.666015625 276.666992188 342.999023438 260 c 0
 339.666015625 240 332.333007812 224.666992188 321 214 c 0
 312.333007812 205.333007812 301 201 287 201 c 0xec
270.002929688 -26.001953125 m 2
 246.669921875 -26.001953125 227.002929688 -18.0029296875 211.002929688 -2.0029296875 c 0
 193.002929688 16.6640625 184.002929688 38.3310546875 184.002929688 62.998046875 c 0
 184.002929688 87.6650390625 193.669921875 108.33203125 213.002929688 124.999023438 c 0
 233.669921875 142.999023438 257.336914062 151.999023438 284.00390625 151.999023438 c 0
 308.670898438 151.999023438 329.00390625 143.999023438 345.00390625 127.999023438 c 0
 362.336914062 110.666015625 371.00390625 89.9990234375 371.00390625 65.9990234375 c 0xf4
 371.00390625 41.33203125 362.670898438 20.6650390625 346.00390625 3.998046875 c 0
 329.336914062 -12.6689453125 307.669921875 -22.6689453125 281.002929688 -26.001953125 c 2
 270.002929688 -26.001953125 l 2
EndSplineSet
Validated: 524289
EndChar

StartChar: at
Encoding: 64 64 32
Width: 600
GlyphClass: 2
Flags: W
HStem: -141.995 110<233.143 386.131> 105.006 104.999<262.361 322.779> 369.005 101.001<274.14 374.622> 601.005 113.998<255.093 393.154>
VStem: 30 110.996<95.6791 430.758> 153 100.998<212.861 350.422> 334.999 104.8<217.922 335.271> 472.997 97.002<192.56 481.464>
LayerCount: 2
Fore
SplineSet
373 148 m 1
 353.666992188 119.333007812 326 105.005859375 290 105.005859375 c 0
 246.666992188 105.005859375 213 118.672851562 189 146.005859375 c 0
 165 173.338867188 153 214.005859375 153 268.005859375 c 0
 153 294.672851562 156 319.005859375 162 341.005859375 c 0
 168 363.672851562 176 383.005859375 186 399.005859375 c 0
 196.666992188 415.005859375 209 428.672851562 223 440.005859375 c 0
 248.333007812 460.005859375 278 470.005859375 312 470.005859375 c 0
 332.666992188 470.005859375 353 466.338867188 373 459.005859375 c 0
 390.333007812 452.338867188 404 443.005859375 414 431.005859375 c 0
 422 421.672851562 426 412.672851562 426 404.005859375 c 0
 426 399.338867188 424.666992188 394.338867188 422 389.005859375 c 0
 419.333007812 383.672851562 415.666015625 378.672851562 410.999023438 374.005859375 c 0
 406.33203125 369.338867188 400.999023438 366.005859375 394.999023438 364.005859375 c 0
 386.33203125 361.338867188 379.665039062 360.005859375 374.998046875 360.005859375 c 0
 366.998046875 360.005859375 357.331054688 361.338867188 345.998046875 364.005859375 c 0
 342.665039062 364.672851562 337.665039062 366.005859375 330.998046875 368.005859375 c 0
 323.665039062 369.338867188 316.665039062 369.671875 309.998046875 369.004882812 c 0
 303.331054688 368.337890625 296.6640625 366.004882812 289.997070312 362.004882812 c 0
 283.330078125 358.004882812 277.330078125 352.671875 271.997070312 346.004882812 c 0
 266.6640625 339.337890625 262.331054688 330.337890625 258.998046875 319.004882812 c 0
 255.665039062 307.671875 253.998046875 294.671875 253.998046875 280.004882812 c 0
 253.998046875 272.004882812 254.665039062 264.337890625 255.998046875 257.004882812 c 0
 256.665039062 249.671875 258.33203125 242.004882812 260.999023438 234.004882812 c 0
 266.33203125 218.004882812 274.999023438 210.004882812 286.999023438 210.004882812 c 0
 294.33203125 210.004882812 300.999023438 211.337890625 306.999023438 214.004882812 c 0
 312.999023438 216.671875 317.666015625 221.338867188 320.999023438 228.005859375 c 0
 328.999023438 242.672851562 333.666015625 268.005859375 334.999023438 304.005859375 c 0
 335.666015625 320.005859375 346.666015625 332.338867188 367.999023438 341.005859375 c 0
 379.2578125 345.74609375 389.462890625 348.116210938 398.614257812 348.116210938 c 0
 399.758789062 348.116210938 400.887695312 348.079101562 401.999023438 348.004882812 c 0
 409.999023438 348.004882812 416.999023438 347.004882812 422.999023438 345.004882812 c 0
 436.33203125 339.671875 443.33203125 330.004882812 443.999023438 316.004882812 c 0
 443.999023438 314.671875 443.666015625 313.338867188 442.999023438 312.005859375 c 0
 440.865234375 293.340820312 439.798828125 277.021484375 439.798828125 263.048828125 c 0
 439.798828125 259.5546875 439.865234375 256.20703125 439.999023438 253.005859375 c 0
 439.999023438 234.338867188 441.666015625 219.005859375 444.999023438 207.005859375 c 0
 446.33203125 202.338867188 447.665039062 199.005859375 448.998046875 197.005859375 c 0
 450.998046875 193.672851562 453.665039062 192.005859375 456.998046875 192.005859375 c 0
 458.331054688 193.338867188 459.6640625 195.338867188 460.997070312 198.005859375 c 0
 464.330078125 206.005859375 466.997070312 216.338867188 468.997070312 229.005859375 c 0
 471.6640625 253.005859375 472.997070312 275.005859375 472.997070312 295.005859375 c 0
 472.997070312 328.338867188 471.330078125 359.338867188 467.997070312 388.005859375 c 0
 465.330078125 416.005859375 461.663085938 440.005859375 456.99609375 460.005859375 c 0
 452.329101562 480.005859375 446.662109375 497.672851562 439.995117188 513.005859375 c 0
 432.662109375 529.005859375 426.329101562 541.672851562 420.99609375 551.005859375 c 0
 414.99609375 560.338867188 407.663085938 568.338867188 398.99609375 575.005859375 c 0
 390.329101562 581.672851562 382.99609375 586.672851562 376.99609375 590.005859375 c 0
 370.99609375 593.338867188 363.99609375 595.671875 355.99609375 597.004882812 c 0
 347.99609375 599.004882812 341.663085938 600.004882812 336.99609375 600.004882812 c 0
 332.99609375 600.004882812 327.663085938 600.337890625 320.99609375 601.004882812 c 0
 296.99609375 601.004882812 274.329101562 593.337890625 252.99609375 578.004882812 c 0
 231.663085938 562.671875 212.663085938 540.671875 195.99609375 512.004882812 c 0
 179.329101562 483.337890625 165.99609375 447.670898438 155.99609375 405.00390625 c 0
 145.99609375 362.336914062 140.99609375 315.336914062 140.99609375 264.00390625 c 0
 140.99609375 219.336914062 144.329101562 179.336914062 150.99609375 144.00390625 c 0
 157.663085938 108.670898438 166.330078125 80.337890625 176.997070312 59.0048828125 c 0
 187.6640625 37.671875 199.997070312 20.0048828125 213.997070312 6.0048828125 c 0
 227.997070312 -7.9951171875 241.6640625 -17.9951171875 254.997070312 -23.9951171875 c 0
 268.330078125 -29.328125 282.997070312 -31.9951171875 298.997070312 -31.9951171875 c 0
 314.997070312 -31.9951171875 329.6640625 -30.328125 342.997070312 -26.9951171875 c 0
 356.330078125 -23.662109375 367.330078125 -19.9951171875 375.997070312 -15.9951171875 c 0
 384.6640625 -11.9951171875 392.6640625 -6.328125 399.997070312 1.0048828125 c 0
 407.997070312 8.337890625 414.330078125 15.337890625 418.997070312 22.0048828125 c 0
 423.6640625 28.671875 428.997070312 36.671875 434.997070312 46.0048828125 c 0
 437.6640625 51.337890625 439.997070312 55.337890625 441.997070312 58.0048828125 c 0
 443.997070312 60.671875 446.6640625 64.0048828125 449.997070312 68.0048828125 c 0
 452.6640625 72.0048828125 455.331054688 75.337890625 457.998046875 78.0048828125 c 0
 460.665039062 80.0048828125 463.998046875 82.0048828125 467.998046875 84.0048828125 c 0
 471.998046875 86.0048828125 476.665039062 87.0048828125 481.998046875 87.0048828125 c 0
 486.665039062 87.0048828125 491.665039062 86.0048828125 496.998046875 84.0048828125 c 0
 503.665039062 81.337890625 509.33203125 78.0048828125 513.999023438 74.0048828125 c 0
 518.666015625 70.0048828125 522.333007812 65.0048828125 525 59.0048828125 c 0
 527.666992188 53.671875 528.666992188 48.0048828125 528 42.0048828125 c 0
 528 30.671875 525 17.0048828125 519 1.0048828125 c 0
 515 -8.9951171875 511.333007812 -17.662109375 508 -24.9951171875 c 0
 504 -32.328125 498.666992188 -41.328125 492 -51.9951171875 c 0
 485.333007812 -62.662109375 478 -71.9951171875 470 -79.9951171875 c 0
 462 -87.9951171875 452.333007812 -95.9951171875 441 -103.995117188 c 0
 429 -111.995117188 416 -118.995117188 402 -124.995117188 c 0
 388 -130.328125 372 -134.328125 354 -136.995117188 c 0
 336 -140.328125 317.333007812 -141.995117188 298 -141.995117188 c 2
 292 -141.995117188 l 2
 254.666992188 -141.995117188 220 -132.662109375 188 -113.995117188 c 0
 155.333007812 -95.328125 127.333007812 -69.9951171875 104 -37.9951171875 c 0
 80.6669921875 -5.9951171875 62.6669921875 33.0048828125 50 79.0048828125 c 0
 36.6669921875 125.004882812 30 174.671875 30 228.004882812 c 0
 30 287.337890625 34.6669921875 342.670898438 44 394.00390625 c 0
 53.3330078125 445.336914062 66.3330078125 490.669921875 83 530.002929688 c 0
 100.333007812 568.669921875 120.666015625 602.002929688 143.999023438 630.002929688 c 0
 167.33203125 658.002929688 193.33203125 679.002929688 221.999023438 693.002929688 c 0
 250.666015625 707.002929688 281.333007812 714.3359375 314 715.002929688 c 0
 337.333007812 715.002929688 358.333007812 713.002929688 377 709.002929688 c 0
 396.333007812 705.669921875 415 699.669921875 433 691.002929688 c 0
 451 681.669921875 467 669.669921875 481 655.002929688 c 0
 495 640.3359375 507.666992188 622.002929688 519 600.002929688 c 0
 530.333007812 578.002929688 539.666015625 552.3359375 546.999023438 523.002929688 c 0
 562.33203125 461.669921875 569.999023438 385.002929688 569.999023438 293.002929688 c 0
 569.999023438 242.3359375 562.666015625 197.668945312 547.999023438 159.001953125 c 0
 539.999023438 138.334960938 528.33203125 121.66796875 512.999023438 109.000976562 c 0
 497.666015625 96.333984375 479.333007812 89.6669921875 458 89 c 0
 427.333007812 89 404 99.3330078125 388 120 c 0
 382 128 377 137.333007812 373 148 c 1
EndSplineSet
Validated: 524289
EndChar

StartChar: A
Encoding: 65 65 33
Width: 600
GlyphClass: 2
Flags: W
HStem: -5.99902 21G<59.9961 67.9961 527.666 533.666> 251.001 91.998<237.71 393.995>
LayerCount: 2
Fore
SplineSet
234.995117188 331.999023438 m 1
 292.995117188 337.999023438 345.995117188 341.666015625 393.995117188 342.999023438 c 1
 343.995117188 568.999023438 l 1
 315.328125 520.33203125 278.995117188 441.33203125 234.995117188 331.999023438 c 1
123 49 m 0
 115.666992188 25 104.329101562 8.9990234375 88.99609375 0.9990234375 c 0
 80.3291015625 -3.66796875 71.99609375 -5.9990234375 63.99609375 -5.9990234375 c 0
 55.99609375 -5.9990234375 48.3291015625 -4.333984375 40.99609375 -1.0009765625 c 0
 28.99609375 4.33203125 20.3291015625 12.6650390625 14.99609375 23.998046875 c 0
 10.99609375 32.6650390625 8.99609375 42.1650390625 8.99609375 52.498046875 c 0
 8.99609375 62.8310546875 10.3291015625 73.998046875 12.99609375 85.998046875 c 0
 16.99609375 106.665039062 35.3291015625 154.665039062 67.99609375 229.998046875 c 1
 58.6630859375 238.665039062 53.330078125 249.33203125 51.9970703125 261.999023438 c 2
 51.9970703125 263.999023438 l 2
 51.9970703125 275.33203125 57.6640625 285.999023438 68.9970703125 295.999023438 c 0
 78.330078125 304.666015625 89.9970703125 311.333007812 103.997070312 316 c 1
 189.997070312 498.666992188 256.6640625 621 303.997070312 683 c 0
 315.330078125 697 325.997070312 707.333007812 335.997070312 714 c 0
 345.997070312 721.333007812 357.330078125 725 369.997070312 725 c 2
 377.997070312 725 l 2
 391.330078125 725 403.330078125 722 413.997070312 716 c 0
 428.6640625 708 437.6640625 695.333007812 440.997070312 678 c 0
 455.6640625 598 479.6640625 485 512.997070312 339 c 0
 531.6640625 257.666992188 546.331054688 197.833984375 556.998046875 159.500976562 c 0
 567.665039062 121.16796875 575.665039062 97.66796875 580.998046875 89.0009765625 c 0
 587.665039062 77.0009765625 590.998046875 65.66796875 590.998046875 55.0009765625 c 2
 590.998046875 49 l 2
 589.665039062 37 585.498046875 26.66796875 578.498046875 18.0009765625 c 0
 571.498046875 9.333984375 563.331054688 2.9990234375 553.998046875 -1.0009765625 c 0
 542.665039062 -4.333984375 535.33203125 -5.9990234375 531.999023438 -5.9990234375 c 0
 523.33203125 -5.9990234375 514.665039062 -3.66796875 505.998046875 0.9990234375 c 0
 490.665039062 8.9990234375 478.33203125 24.66796875 468.999023438 48.0009765625 c 0
 459.666015625 69.333984375 441.999023438 137.000976562 415.999023438 251.000976562 c 1
 332.666015625 247.66796875 257.333007812 241.000976562 190 231.000976562 c 1
 167.333007812 178.333984375 145 117.666992188 123 49 c 0
EndSplineSet
Validated: 524289
EndChar

StartChar: B
Encoding: 66 66 34
Width: 600
GlyphClass: 2
Flags: W
HStem: -23 21G<113.333 120.666> -9.65137 90.1543<205.37 245.727> 285.003 96.4492<157 348.74> 605.004 103.999<161.533 353.001>
VStem: 33 121<82.114 137.826 144.104 285.003 383.002 598.597> 408.001 119<431.807 557.715> 445 124.001<157.259 228.28>
LayerCount: 2
Fore
SplineSet
36 41 m 2xba
 37.3330078125 60.3330078125 38.3330078125 93.3369140625 39 140.00390625 c 0
 39 227.336914062 37 324.00390625 33 430.00390625 c 1
 31.6669921875 473.336914062 31 502.50390625 31 517.50390625 c 0
 31 532.50390625 31.5 552.50390625 32.5 577.50390625 c 0
 33.5 602.50390625 34 620.00390625 34 630.00390625 c 0
 34.6669921875 650.670898438 40.833984375 666.50390625 52.5009765625 677.50390625 c 0
 64.16796875 688.50390625 78.66796875 694.00390625 96.0009765625 694.00390625 c 2
 99.0009765625 694.00390625 l 1
 117.000976562 699.336914062 139.333984375 703.336914062 166.000976562 706.00390625 c 0
 176.66796875 707.336914062 188.16796875 708.169921875 200.500976562 708.502929688 c 0
 212.833984375 708.8359375 222.333984375 709.002929688 229.000976562 709.002929688 c 2
 251.000976562 709.002929688 l 1
 263.000976562 709.002929688 l 2
 314.333984375 709.002929688 360.333984375 700.669921875 401.000976562 684.002929688 c 0
 441.000976562 666.669921875 471.66796875 642.002929688 493.000976562 610.002929688 c 0
 515.66796875 576.669921875 527.000976562 537.669921875 527.000976562 493.002929688 c 0xbc
 527.000976562 455.002929688 517.66796875 422.002929688 499.000976562 394.002929688 c 0
 484.333984375 372.669921875 466.000976562 355.669921875 444.000976562 343.002929688 c 1
 458.66796875 336.3359375 473.000976562 328.668945312 487.000976562 320.001953125 c 0
 509.66796875 305.334960938 529.000976562 288.66796875 545.000976562 270.000976562 c 0
 561.000976562 251.333984375 569.000976562 233.000976562 569.000976562 215.000976562 c 2
 569.000976562 214.000976562 l 2
 569.000976562 188.000976562 562.16796875 162.333984375 548.500976562 137.000976562 c 0
 534.833984375 111.66796875 515.166992188 88.5009765625 489.5 67.5009765625 c 0
 463.833007812 46.5009765625 429.666015625 28.66796875 386.999023438 14.0009765625 c 0
 344.33203125 -0.666015625 297.33203125 -9.9990234375 245.999023438 -13.9990234375 c 1
 240.202148438 -11.1005859375 234.341796875 -9.6513671875 228.418945312 -9.6513671875 c 0x7a
 220.71875 -9.6513671875 212.912109375 -12.1005859375 204.999023438 -16.9990234375 c 1
 170.33203125 -19.666015625 148.999023438 -21.3330078125 140.999023438 -22 c 0
 132.33203125 -22.6669921875 124.33203125 -23 116.999023438 -23 c 0
 109.666015625 -23 102.333007812 -22.3330078125 95 -21 c 2
 93 -21 l 2
 76.3330078125 -21 62.3330078125 -15.3330078125 51 -4 c 0
 41 6 36 19 36 35 c 2
 36 41 l 2xba
154 403.00390625 m 2
 154 383.001953125 l 1
 183.333007812 382.334960938 210 381.834960938 234 381.501953125 c 0
 236.3984375 381.46875 238.76171875 381.452148438 241.090820312 381.452148438 c 0
 262.0625 381.452148438 280.19921875 382.801757812 295.5 385.501953125 c 0
 312.5 388.501953125 326.666992188 392.334960938 338 397.001953125 c 0
 349.333007812 401.668945312 359.333007812 407.3359375 368 414.002929688 c 0
 376.666992188 420.669921875 383.333984375 427.336914062 388.000976562 434.00390625 c 0
 392.66796875 440.670898438 396.500976562 448.170898438 399.500976562 456.50390625 c 0
 402.500976562 464.836914062 404.66796875 472.336914062 406.000976562 479.00390625 c 0
 407.333984375 485.670898438 408.000976562 492.670898438 408.000976562 500.00390625 c 0
 408.000976562 514.670898438 404.66796875 528.170898438 398.000976562 540.50390625 c 0
 391.333984375 552.836914062 382.833984375 563.00390625 372.500976562 571.00390625 c 0
 362.16796875 579.00390625 350.334960938 585.670898438 337.001953125 591.00390625 c 0
 314.502929688 600.37890625 290.831054688 605.06640625 265.98828125 605.06640625 c 0
 264.331054688 605.06640625 262.668945312 605.045898438 261.001953125 605.00390625 c 0
 226.334960938 605.00390625 192.66796875 602.00390625 160.000976562 596.00390625 c 1
 159.333984375 584.00390625 158.666992188 566.00390625 158 542.00390625 c 0
 155.333007812 493.336914062 154 447.00390625 154 403.00390625 c 2
430.5 165.501953125 m 0
 440.166992188 177.834960938 445 189.004882812 445 199.004882812 c 0
 445 204.337890625 441.666992188 210.670898438 435 218.00390625 c 0
 428.333007812 225.336914062 417.666015625 233.169921875 402.999023438 241.502929688 c 0
 388.33203125 249.8359375 367.33203125 258.002929688 339.999023438 266.002929688 c 0
 312.666015625 274.002929688 281.333007812 280.3359375 246 285.002929688 c 1
 157 285.002929688 l 1
 159.666992188 193.002929688 162 124.669921875 164 80.0029296875 c 1
 171.333007812 80.0029296875 182 80.169921875 196 80.5029296875 c 0x7a
 210 80.8359375 222 81.3359375 232 82.0029296875 c 0
 264 83.3359375 294 88.3359375 322 97.0029296875 c 0
 350 105.669921875 372.666992188 116.169921875 390 128.502929688 c 0
 407.333007812 140.8359375 420.833007812 153.168945312 430.5 165.501953125 c 0
EndSplineSet
Validated: 524289
EndChar

StartChar: C
Encoding: 67 67 35
Width: 600
GlyphClass: 2
Flags: W
HStem: -30.998 114.001<212.46 392.023> 494.006 246.994<466.919 557.66> 608.006 104.995<328.246 454.261>
VStem: 18.001 124<159.984 372.712> 454.002 127<517.69 584.105>
LayerCount: 2
Fore
SplineSet
573 692 m 0xd8
 579 666 582.001953125 638.338867188 582.001953125 609.005859375 c 0
 582.001953125 589.005859375 581.668945312 577.005859375 581.001953125 573.005859375 c 0
 581.001953125 556.338867188 575.001953125 539.505859375 563.001953125 522.505859375 c 0
 551.001953125 505.505859375 538.001953125 496.338867188 524.001953125 495.005859375 c 0
 521.334960938 494.338867188 518.334960938 494.005859375 515.001953125 494.005859375 c 0xd8
 503.001953125 494.005859375 491.001953125 498.005859375 479.001953125 506.005859375 c 0
 462.334960938 516.672851562 454.001953125 531.005859375 454.001953125 549.005859375 c 0
 454.001953125 553.672851562 454.668945312 565.672851562 456.001953125 585.005859375 c 1
 446.668945312 591.005859375 440.668945312 594.672851562 438.001953125 596.005859375 c 0
 435.334960938 597.338867188 431.66796875 599.338867188 427.000976562 602.005859375 c 0
 418.333984375 606.005859375 409.666992188 608.005859375 401 608.005859375 c 0
 381 608.005859375 359 602.005859375 335 590.005859375 c 0
 311 578.005859375 287.666992188 560.505859375 265 537.505859375 c 0
 242.333007812 514.505859375 221.833007812 488.172851562 203.5 458.505859375 c 0
 185.166992188 428.838867188 170.333984375 395.171875 159.000976562 357.504882812 c 0
 147.66796875 319.837890625 142.000976562 282.004882812 142.000976562 244.004882812 c 0
 142.000976562 217.337890625 148.000976562 191.670898438 160.000976562 167.00390625 c 0
 172.000976562 142.336914062 188.500976562 122.169921875 209.500976562 106.502929688 c 0
 230.500976562 90.8359375 252.333984375 83.0029296875 275.000976562 83.0029296875 c 0
 297.66796875 83.0029296875 319.66796875 85.169921875 341.000976562 89.5029296875 c 0
 362.333984375 93.8359375 381.500976562 99.3359375 398.500976562 106.002929688 c 0
 415.500976562 112.669921875 430.16796875 119.502929688 442.500976562 126.502929688 c 0
 454.833984375 133.502929688 465.666992188 140.669921875 475 148.002929688 c 0
 484.333007812 154.669921875 492.666015625 159.669921875 499.999023438 163.002929688 c 0
 507.999023438 167.002929688 516.83203125 169.002929688 526.499023438 169.002929688 c 0
 536.166015625 169.002929688 545.333007812 166.002929688 554 160.002929688 c 0
 568.666992188 148.669921875 576 135.169921875 576 119.502929688 c 0
 576 103.8359375 567.666992188 86.6689453125 551 68.001953125 c 0
 493 2.001953125 400.333007812 -30.998046875 273 -30.998046875 c 2
 263 -30.998046875 l 2
 231.666992188 -30.998046875 202.333984375 -26.3310546875 175.000976562 -16.998046875 c 0
 147.66796875 -7.6650390625 124.66796875 5.16796875 106.000976562 21.5009765625 c 0
 87.333984375 37.833984375 71.333984375 56.333984375 58.0009765625 77.0009765625 c 0
 44.66796875 97.66796875 34.66796875 119.500976562 28.0009765625 142.500976562 c 0
 21.333984375 165.500976562 18.0009765625 188.66796875 18.0009765625 212.000976562 c 0
 18.0009765625 260.000976562 23.16796875 306.500976562 33.5009765625 351.500976562 c 0
 43.833984375 396.500976562 57.6669921875 437.000976562 75 473.000976562 c 0
 92.3330078125 509.000976562 112.666015625 542.333984375 135.999023438 573.000976562 c 0
 161.33203125 603.66796875 187.999023438 629.000976562 215.999023438 649.000976562 c 0
 243.999023438 669.000976562 273.33203125 684.66796875 303.999023438 696.000976562 c 0
 334.666015625 707.333984375 364.333007812 713.000976562 393 713.000976562 c 0xb8
 416.333007812 713.000976562 438 711.000976562 458 707.000976562 c 1
 462 714.333984375 467 720.666992188 473 726 c 0
 482.333007812 734 492.666015625 738.666992188 503.999023438 740 c 0
 508.666015625 740.666992188 511.333007812 741 512 741 c 2
 513 741 l 2
 523.666992188 741 534.666992188 737.666992188 546 731 c 0
 560 721.666992188 569 708.666992188 573 692 c 0xd8
EndSplineSet
Validated: 524289
EndChar

StartChar: D
Encoding: 68 68 36
Width: 600
GlyphClass: 2
Flags: W
HStem: -31 109.998<168.457 393.05> 694 20G<71.3364 91.3364>
VStem: 15.4043 121.477<109.381 166.726 194.179 614.997> 23.0039 125<100.593 519.491> 464.006 119.992<169.195 388.265>
LayerCount: 2
Fore
SplineSet
21 62 m 2xe8
 22.3330078125 84.6669921875 23.00390625 120.331054688 23.00390625 168.998046875 c 0xd8
 23.00390625 256.998046875 21.00390625 361.331054688 17.00390625 481.998046875 c 1
 16.3369140625 517.998046875 15.8369140625 541.831054688 15.50390625 553.498046875 c 0
 15.4375 555.830078125 15.404296875 558.401367188 15.404296875 561.212890625 c 0
 15.404296875 572.467773438 15.9375 587.5625 17.00390625 606.499023438 c 0
 18.3369140625 630.166015625 19.00390625 644.666015625 19.00390625 649.999023438 c 1
 19.6708984375 670.666015625 25.6708984375 686.333007812 37.00390625 697 c 0
 48.3369140625 708.333007812 62.669921875 714 80.0029296875 714 c 0
 102.669921875 714 132.669921875 710.666992188 170.002929688 704 c 0
 193.3359375 700 217.168945312 694.5 241.501953125 687.5 c 0
 265.834960938 680.5 292.16796875 670.666992188 320.500976562 658 c 0
 348.833984375 645.333007812 375.666992188 630.833007812 401 614.5 c 0
 426.333007812 598.166992188 450.666015625 577.333984375 473.999023438 552.000976562 c 0
 495.999023438 527.333984375 515.166015625 500.166992188 531.499023438 470.5 c 0
 547.83203125 440.833007812 560.665039062 405.833007812 569.998046875 365.5 c 0
 579.331054688 325.166992188 583.998046875 281.666992188 583.998046875 235 c 0
 583.998046875 211.666992188 580.665039062 187.666992188 573.998046875 163 c 0
 567.331054688 138.333007812 557.331054688 114.666015625 543.998046875 91.9990234375 c 0
 530.665039062 69.33203125 514.83203125 48.83203125 496.499023438 30.4990234375 c 0
 478.166015625 12.166015625 455.333007812 -2.6669921875 428 -14 c 0
 400 -25.3330078125 370.333007812 -31 339 -31 c 2
 329 -31 l 2
 296.333007812 -31 263.333007812 -29.5 230 -26.5 c 0
 196.666992188 -23.5 170 -20 150 -16 c 0
 130 -12 113.5 -8.3330078125 100.5 -5 c 0
 87.5 -1.6669921875 79.6669921875 0 77 0 c 0
 60.3330078125 0 46.3330078125 5.6669921875 35 17 c 0
 25.625 26.375 20.9375 38.09375 20.9375 52.1552734375 c 0
 20.9375 53.0927734375 20.9580078125 54.041015625 21 55 c 2
 21 62 l 2xe8
232.50390625 85.9970703125 m 0
 262.836914062 81.330078125 298.005859375 78.998046875 338.005859375 78.998046875 c 0
 355.338867188 78.998046875 371.838867188 84.6650390625 387.505859375 95.998046875 c 0
 403.172851562 107.331054688 416.505859375 122.1640625 427.505859375 140.497070312 c 0
 438.505859375 158.830078125 447.338867188 179.330078125 454.005859375 201.997070312 c 0
 460.672851562 224.6640625 464.005859375 246.6640625 464.005859375 267.997070312 c 0
 464.005859375 388.6640625 410.672851562 480.997070312 304.005859375 544.997070312 c 0
 266.005859375 567.6640625 210.672851562 590.997070312 138.005859375 614.997070312 c 1
 137.255859375 584.499023438 136.880859375 553.485351562 136.880859375 521.955078125 c 0xe8
 136.880859375 469.401367188 137.922851562 415.416015625 140.005859375 359.997070312 c 0
 141.338867188 331.330078125 142.671875 289.497070312 144.004882812 234.497070312 c 0
 145.337890625 179.497070312 146.670898438 137.330078125 148.00390625 107.997070312 c 1
 174.00390625 97.9970703125 202.170898438 90.6640625 232.50390625 85.9970703125 c 0
EndSplineSet
Validated: 524289
EndChar

StartChar: E
Encoding: 69 69 37
Width: 600
GlyphClass: 2
Flags: W
HStem: -20 112.001<155.752 499.955> -6 115<239.933 557.529> 301.002 108.999<151.002 424.637> 319.002 106<231.85 544.107> 590 107.999<156.198 559.709>
VStem: 28.001 124.001<95.1892 301.002 410.001 581.907>
LayerCount: 2
Fore
SplineSet
95 704 m 2x8c
 111.666992188 704 125.672851562 698.666015625 137.005859375 687.999023438 c 1
 194.338867188 694.666015625 268.002929688 697.999023438 358.002929688 697.999023438 c 0
 381.3359375 697.999023438 403.005859375 697.666015625 423.005859375 696.999023438 c 0
 464.338867188 695.666015625 496.671875 693.666015625 520.004882812 690.999023438 c 0
 538.671875 688.999023438 552.171875 683.83203125 560.504882812 675.499023438 c 0
 568.837890625 667.166015625 573.337890625 655.999023438 574.004882812 641.999023438 c 0
 574.004882812 634.666015625 573.171875 627.833007812 571.504882812 621.5 c 0
 569.837890625 615.166992188 567.337890625 609.333984375 564.004882812 604.000976562 c 0
 560.004882812 597.333984375 553.671875 592.333984375 545.004882812 589.000976562 c 0
 539.004882812 586.333984375 532.671875 585.000976562 526.004882812 585.000976562 c 0
 523.337890625 585.000976562 520.670898438 585.333984375 518.00390625 586.000976562 c 0
 479.673828125 588.778320312 439.724609375 590.166992188 398.155273438 590.166992188 c 0
 389.8359375 590.166992188 381.452148438 590.111328125 373.00390625 590 c 2
 319.00390625 590 l 2
 255.670898438 588.666992188 200.670898438 585.333984375 154.00390625 580.000976562 c 1
 151.336914062 522.000976562 150.00390625 465.333984375 150.00390625 410.000976562 c 1xac
 201.336914062 410.66796875 270.669921875 413.334960938 358.002929688 418.001953125 c 0
 444.002929688 422.668945312 492.334960938 425.001953125 503.001953125 425.001953125 c 0
 522.334960938 425.001953125 536.168945312 420.334960938 544.501953125 411.001953125 c 0
 552.834960938 401.668945312 557.001953125 390.001953125 557.001953125 376.001953125 c 0
 557.001953125 360.001953125 553.668945312 347.334960938 547.001953125 338.001953125 c 0
 537.668945312 326.001953125 523.001953125 319.668945312 503.001953125 319.001953125 c 0x1c
 491.001953125 319.001953125 439.334960938 316.334960938 348.001953125 311.001953125 c 0
 254.668945312 305.001953125 189.001953125 301.668945312 151.001953125 301.001953125 c 1
 151.668945312 284.334960938 152.001953125 268.16796875 152.001953125 252.500976562 c 2
 152.001953125 203.000976562 l 2
 152.668945312 158.333984375 154.001953125 127.333984375 156.001953125 110.000976562 c 0
 156.668945312 104.000976562 157.3359375 99.0009765625 158.002929688 95.0009765625 c 0
 171.3359375 93.0009765625 191.168945312 92.0009765625 217.501953125 92.0009765625 c 0xac
 243.834960938 92.0009765625 277.001953125 92.66796875 317.001953125 94.0009765625 c 0
 410.334960938 97.333984375 469.001953125 101.666992188 493.001953125 107 c 0
 503.001953125 108.333007812 512.168945312 109 520.501953125 109 c 0
 528.834960938 109 536.16796875 107.333007812 542.500976562 104 c 0
 548.833984375 100.666992188 554.000976562 97.1669921875 558.000976562 93.5 c 0
 562.000976562 89.8330078125 565.16796875 85.3330078125 567.500976562 80 c 0
 569.833984375 74.6669921875 571.500976562 70 572.500976562 66 c 0
 573.500976562 62 574.004882812 57.6669921875 574.004882812 53 c 0
 574.004882812 37 568.66796875 23 558.000976562 11 c 0
 548.000976562 -0.3330078125 534.000976562 -6.3330078125 516.000976562 -7 c 1
 510.66796875 1.6669921875 505.334960938 2 500.001953125 -6 c 1
 497.001953125 -6 l 2x4c
 481.668945312 -6 452.668945312 -7.3330078125 410.001953125 -10 c 0
 366.001953125 -12.6669921875 321.168945312 -15 275.501953125 -17 c 0
 229.834960938 -19 195.334960938 -20 172.001953125 -20 c 0
 149.334960938 -20 130.66796875 -19.3330078125 116.000976562 -18 c 0
 97.333984375 -16.6669921875 79.333984375 -8 62.0009765625 8 c 0
 44.66796875 24 34.66796875 43 32.0009765625 65 c 0
 30.0009765625 81 28.66796875 109 28.0009765625 149 c 0
 28.0009765625 185.666992188 28.333984375 222.5 29.0009765625 259.5 c 0
 29.66796875 296.5 30.0009765625 327.833007812 30.0009765625 353.5 c 0
 30.0009765625 379.166992188 29.333984375 415 28.0009765625 461 c 0
 27.333984375 499.666992188 26.833984375 525.5 26.5009765625 538.5 c 0
 26.4345703125 541.098632812 26.4013671875 543.916992188 26.4013671875 546.955078125 c 0
 26.4013671875 559.115234375 26.9345703125 574.796875 28.0009765625 594 c 0
 29.333984375 618 30.0009765625 633 30.0009765625 639 c 2
 30.0009765625 640 l 2
 30.66796875 660.666992188 36.66796875 676.5 48.0009765625 687.5 c 0
 59.333984375 698.5 73.6669921875 704 91 704 c 2
 95 704 l 2x8c
EndSplineSet
Validated: 524289
EndChar

StartChar: F
Encoding: 70 70 38
Width: 600
GlyphClass: 2
Flags: W
HStem: -22.002 21G<90.3325 98.6655> 313.498 106.502<150.999 507.152> 597 109.099<157.966 559.043> 695 20G<95.6665 104.667>
VStem: 28 121.749<39.4946 142.728 166.745 310.581 416 589> 32 127.999<-3.56057 304.932>
LayerCount: 2
Fore
SplineSet
96 715 m 0xd8
 113.333007812 715 127.333007812 709.33203125 138 697.999023438 c 1
 215.397460938 703.3984375 290.905273438 706.098632812 364.522460938 706.098632812 c 0
 372.705078125 706.098632812 380.864257812 706.065429688 389 705.999023438 c 0
 442.333007812 705.999023438 486 704.666015625 520 701.999023438 c 0
 538.666992188 700.666015625 552.166992188 695.666015625 560.5 686.999023438 c 0
 568.833007812 678.33203125 573.333007812 666.999023438 574 652.999023438 c 2
 574 651.999023438 l 2
 574 636.666015625 569.166992188 623.333007812 559.5 612 c 0
 549.833007812 600.666992188 535.333007812 595 516 595 c 2
 514 595 l 2
 486.500976562 596.5 457.688476562 597.25 427.565429688 597.25 c 0
 417.522460938 597.25 407.333984375 597.166992188 397 597 c 0
 319.666992188 597 238.666992188 594.333007812 154 589 c 1
 153.333007812 579 152.666015625 563.666992188 151.999023438 543 c 0
 150.499023438 513.500976562 149.749023438 485.501953125 149.749023438 459.002929688 c 0xe8
 149.749023438 450.16796875 149.83203125 441.500976562 149.999023438 433 c 2
 149.999023438 416 l 1
 177.33203125 418.666992188 206.999023438 420 238.999023438 420 c 0
 247.666015625 420 256.333007812 419.666992188 265 419 c 0
 313 418.333007812 356.333007812 416.666015625 395 413.999023438 c 0
 434.333007812 411.33203125 463.833007812 408.165039062 483.5 404.498046875 c 0
 503.166992188 400.831054688 516.833984375 395.1640625 524.500976562 387.497070312 c 0
 532.16796875 379.830078125 536.66796875 369.330078125 538.000976562 355.997070312 c 0
 538.000976562 341.997070312 534.66796875 329.6640625 528.000976562 318.997070312 c 0
 523.333984375 312.330078125 516.666992188 307.330078125 508 303.997070312 c 0
 502 301.997070312 495.333007812 300.997070312 488 300.997070312 c 2
 481 300.997070312 l 2
 460.333007812 304.330078125 430.333007812 307.330078125 391 309.997070312 c 0
 353.662109375 312.368164062 315.270507812 313.553710938 275.825195312 313.553710938 c 0
 270.899414062 313.553710938 265.958007812 313.53515625 261 313.498046875 c 0
 216.333007812 313.165039062 179.666015625 311.665039062 150.999023438 308.998046875 c 1
 154.33203125 222.331054688 157.33203125 130.998046875 159.999023438 34.998046875 c 0
 157.999023438 16.998046875 149.33203125 2.998046875 133.999023438 -7.001953125 c 0
 120.666015625 -16.3349609375 106.33203125 -21.3349609375 90.9990234375 -22.001953125 c 0
 89.666015625 -22.001953125 88.6669921875 -21.6689453125 88 -21.001953125 c 0
 71.3330078125 -21.001953125 57.3330078125 -15.3349609375 46 -4.001953125 c 0
 36.625 5.373046875 31.9375 17.3837890625 31.9375 32.0322265625 c 0
 31.9375 33.0087890625 31.9580078125 33.998046875 32 34.998046875 c 2
 32 40.998046875 l 2xe4
 33.3330078125 61.6650390625 34 96.33203125 34 144.999023438 c 0
 34 236.999023438 32 338.999023438 28 450.999023438 c 0
 26.6669921875 494.33203125 26 523.499023438 26 538.499023438 c 0
 26 553.499023438 26.5 573.499023438 27.5 598.499023438 c 0
 28.5 623.499023438 29.3330078125 640.666015625 30 649.999023438 c 0
 30.6669921875 670.666015625 36.6669921875 686.333007812 48 697 c 0
 59.3330078125 708.333007812 73.666015625 714 90.9990234375 714 c 0
 93.666015625 714.666992188 95.3330078125 715 96 715 c 0xd8
EndSplineSet
Validated: 524289
EndChar

StartChar: G
Encoding: 71 71 39
Width: 600
GlyphClass: 2
Flags: W
HStem: -30.9951 113.997<210.076 334.133> 619.005 104.999<327.596 465.145>
VStem: 16.0049 123.998<160.189 376.151>
LayerCount: 2
Fore
SplineSet
344 -16 m 0
 317.333007812 -26 290.671875 -30.9951171875 264.004882812 -30.9951171875 c 0
 231.337890625 -30.9951171875 201.004882812 -26.328125 173.004882812 -16.9951171875 c 0
 145.671875 -7.662109375 122.838867188 5.1708984375 104.505859375 21.50390625 c 0
 86.1728515625 37.8369140625 70.1728515625 56.3369140625 56.505859375 77.00390625 c 0
 42.8388671875 97.6708984375 32.671875 119.50390625 26.0048828125 142.50390625 c 0
 19.337890625 165.50390625 16.0048828125 188.670898438 16.0048828125 212.00390625 c 0
 16.0048828125 260.670898438 21.171875 308.00390625 31.5048828125 354.00390625 c 0
 41.837890625 400.00390625 55.6708984375 441.336914062 73.00390625 478.00390625 c 0
 90.3369140625 514.670898438 110.669921875 548.670898438 134.002929688 580.00390625 c 0
 159.3359375 610.670898438 186.168945312 636.50390625 214.501953125 657.50390625 c 0
 242.834960938 678.50390625 272.001953125 694.670898438 302.001953125 706.00390625 c 0
 332.668945312 718.00390625 363.001953125 724.00390625 393.001953125 724.00390625 c 0
 423.001953125 724.00390625 456.668945312 717.336914062 494.001953125 704.00390625 c 0
 530.001953125 690.670898438 553.668945312 678.337890625 565.001953125 667.004882812 c 0
 577.001953125 655.004882812 583.334960938 640.671875 584.001953125 624.004882812 c 0
 584.001953125 616.004882812 582.334960938 607.337890625 579.001953125 598.004882812 c 0
 575.001953125 586.004882812 566.334960938 577.337890625 553.001953125 572.004882812 c 0
 546.334960938 569.337890625 539.66796875 568.004882812 533.000976562 568.004882812 c 0
 525.66796875 568.004882812 519.334960938 569.004882812 514.001953125 571.004882812 c 0
 508.668945312 573.004882812 498.668945312 578.337890625 484.001953125 587.004882812 c 0
 469.334960938 595.671875 454.334960938 603.171875 439.001953125 609.504882812 c 0
 423.668945312 615.837890625 410.3359375 619.004882812 399.002929688 619.004882812 c 0
 379.002929688 619.004882812 357.002929688 612.837890625 333.002929688 600.504882812 c 0
 309.002929688 588.171875 285.8359375 570.171875 263.502929688 546.504882812 c 0
 241.169921875 522.837890625 220.669921875 495.670898438 202.002929688 465.00390625 c 0
 183.3359375 434.336914062 168.3359375 399.669921875 157.002929688 361.002929688 c 0
 145.669921875 322.3359375 140.002929688 283.668945312 140.002929688 245.001953125 c 0
 140.002929688 218.334960938 146.002929688 192.501953125 158.002929688 167.501953125 c 0
 170.002929688 142.501953125 186.502929688 122.168945312 207.502929688 106.501953125 c 0
 228.502929688 90.8349609375 250.669921875 83.001953125 274.002929688 83.001953125 c 0
 289.3359375 83.001953125 305.002929688 87.501953125 321.002929688 96.501953125 c 0
 337.002929688 105.501953125 352.002929688 117.334960938 366.002929688 132.001953125 c 0
 380.002929688 146.668945312 393.3359375 163.3359375 406.002929688 182.002929688 c 0
 425.3359375 210.669921875 440.668945312 240.002929688 452.001953125 270.002929688 c 1
 413.334960938 268.002929688 374.334960938 264.502929688 335.001953125 259.502929688 c 0
 295.668945312 254.502929688 268.3359375 248.3359375 253.002929688 241.002929688 c 0
 245.002929688 237.002929688 237.002929688 235.002929688 229.002929688 235.002929688 c 0
 221.002929688 235.002929688 213.002929688 237.3359375 205.002929688 242.002929688 c 0
 190.3359375 250.002929688 181.668945312 261.3359375 179.001953125 276.002929688 c 0
 178.334960938 279.3359375 178.001953125 282.668945312 178.001953125 286.001953125 c 0
 178.001953125 300.001953125 183.668945312 312.668945312 195.001953125 324.001953125 c 0
 203.001953125 332.001953125 214.001953125 339.001953125 228.001953125 345.001953125 c 0
 250.001953125 355.001953125 295.334960938 362.334960938 364.001953125 367.001953125 c 0
 413.334960938 370.334960938 454.66796875 372.001953125 488.000976562 372.001953125 c 2
 521.000976562 372.001953125 l 2
 540.333984375 370.668945312 554.333984375 366.668945312 563.000976562 360.001953125 c 0
 574.333984375 351.334960938 580.000976562 337.66796875 580.000976562 319.000976562 c 0
 580.000976562 299.000976562 572.66796875 284.66796875 558.000976562 276.000976562 c 0
 558.000976562 274.000976562 557.333984375 270.000976562 556.000976562 264.000976562 c 0
 555.333984375 260.66796875 554.666992188 255.000976562 554 247.000976562 c 0
 550.666992188 218.333984375 537.333984375 181.666992188 514.000976562 137 c 0
 502.66796875 116.333007812 488.66796875 96 472.000976562 76 c 0
 454.66796875 56 435.66796875 38.1669921875 415.000976562 22.5 c 0
 394.333984375 6.8330078125 370.666992188 -6 344 -16 c 0
EndSplineSet
Validated: 524289
EndChar

StartChar: H
Encoding: 72 72 40
Width: 600
GlyphClass: 2
Flags: W
HStem: -21.999 21G<95.3335 103.667 487.333 496> 312.001 86.0049<167.997 374.943> 694.003 20G<98.3306 117.997 490.666 510.333>
VStem: 43.498 122.499<-3.04591 184.934 189.06 312.001 398.006 696.499> 427.999 128.001<-5.04489 337.626> 437.999 124<32.915 341.001 420.784 696.468>
LayerCount: 2
Fore
SplineSet
36.998046875 33 m 2xf4
 36.998046875 41.0048828125 l 2
 38.3310546875 59.0048828125 38.998046875 103.671875 38.998046875 175.004882812 c 0
 38.998046875 215.671875 39.8310546875 265.171875 41.498046875 323.504882812 c 0
 43.1650390625 381.837890625 43.998046875 416.837890625 43.998046875 428.504882812 c 2
 43.998046875 463.504882812 l 2
 43.998046875 475.171875 43.8310546875 494.671875 43.498046875 522.004882812 c 0
 43.1650390625 549.337890625 42.998046875 567.504882812 42.998046875 576.504882812 c 0
 42.998046875 585.504882812 43.1650390625 594.671875 43.498046875 604.004882812 c 0
 43.8310546875 613.337890625 43.998046875 619.004882812 43.998046875 621.004882812 c 0
 43.998046875 623.004882812 44.1650390625 625.671875 44.498046875 629.004882812 c 0
 44.8310546875 632.337890625 44.998046875 635.504882812 44.998046875 638.504882812 c 2
 44.998046875 646.504882812 l 1
 44.998046875 650.004882812 l 2
 45.6650390625 670.671875 51.998046875 686.3359375 63.998046875 697.002929688 c 0
 75.3310546875 708.3359375 89.6640625 714.002929688 106.997070312 714.002929688 c 2
 109.997070312 714.002929688 l 2
 125.997070312 714.002929688 139.6640625 709.3359375 150.997070312 700.002929688 c 0
 164.330078125 689.3359375 171.330078125 673.005859375 171.997070312 651.005859375 c 0
 171.997070312 643.672851562 170.997070312 629.005859375 168.997070312 607.005859375 c 0
 166.997070312 585.005859375 165.997070312 565.172851562 165.997070312 547.505859375 c 0
 165.997070312 529.838867188 166.330078125 505.005859375 166.997070312 473.005859375 c 0
 167.6640625 441.005859375 167.997070312 416.005859375 167.997070312 398.005859375 c 1
 225.997070312 399.338867188 296.6640625 405.338867188 379.997070312 416.005859375 c 0
 404.6640625 419.338867188 423.331054688 421.671875 435.998046875 423.004882812 c 0
 435.998046875 425.671875 435.831054688 430.171875 435.498046875 436.504882812 c 0
 435.165039062 442.837890625 434.83203125 457.670898438 434.499023438 481.00390625 c 0
 434.166015625 504.336914062 433.999023438 522.50390625 433.999023438 535.50390625 c 0
 433.999023438 548.50390625 434.498046875 569.00390625 435.498046875 597.00390625 c 0
 436.498046875 625.00390625 437.33203125 642.00390625 437.999023438 648.00390625 c 0
 438.666015625 669.336914062 444.666015625 685.669921875 455.999023438 697.002929688 c 0
 467.999023438 708.3359375 482.33203125 714.002929688 498.999023438 714.002929688 c 2
 501.999023438 714.002929688 l 2
 518.666015625 714.002929688 532.666015625 709.3359375 543.999023438 700.002929688 c 0
 556.666015625 689.3359375 562.999023438 673.668945312 562.999023438 653.001953125 c 0
 562.999023438 640.334960938 562.666015625 615.001953125 561.999023438 577.001953125 c 0
 561.33203125 530.334960938 560.83203125 488.501953125 560.499023438 451.501953125 c 0
 560.387695312 439.180664062 560.333007812 427.709960938 560.333007812 417.088867188 c 0
 560.333007812 395.815429688 560.5546875 377.954101562 561 363.501953125 c 0
 561.666992188 341.834960938 561.999023438 321.66796875 561.999023438 303.000976562 c 0xf4
 561.999023438 266.333984375 561 219.500976562 559 162.500976562 c 0
 557 105.500976562 556 65.66796875 556 43.0009765625 c 2
 556 35.0009765625 l 2
 554 17.0009765625 546 3.0009765625 532 -6.9990234375 c 0
 518.666992188 -16.33203125 504 -21.33203125 488 -21.9990234375 c 0
 486.666992188 -21.9990234375 485.666992188 -21.666015625 485 -20.9990234375 c 0
 468.333007812 -20.9990234375 454.666015625 -15.33203125 443.999023438 -3.9990234375 c 0
 433.33203125 6.0009765625 427.999023438 19.333984375 427.999023438 36.0009765625 c 2
 427.999023438 43.0009765625 l 1xf8
 434.666015625 127.000976562 437.999023438 220.333984375 437.999023438 323.000976562 c 2
 437.999023438 341.000976562 l 1
 415.999023438 339.000976562 373.499023438 333.833984375 310.499023438 325.500976562 c 0
 247.499023438 317.16796875 198.999023438 312.66796875 164.999023438 312.000976562 c 1
 164.999023438 303.000976562 l 2
 162.999023438 269.66796875 161.999023438 231.000976562 161.999023438 187.000976562 c 0
 161.999023438 143.000976562 162.999023438 92.66796875 164.999023438 36.0009765625 c 0
 162.999023438 17.333984375 154.33203125 3.0009765625 138.999023438 -6.9990234375 c 0
 125.666015625 -16.33203125 111.333007812 -21.33203125 96 -21.9990234375 c 0
 94.6669921875 -21.9990234375 93.6669921875 -21.666015625 93 -20.9990234375 c 0
 76.3330078125 -20.9990234375 62.3330078125 -15.33203125 51 -3.9990234375 c 0
 41.6669921875 5.333984375 36.998046875 17.6669921875 36.998046875 33 c 2xf4
EndSplineSet
Validated: 524289
EndChar

StartChar: I
Encoding: 73 73 41
Width: 600
GlyphClass: 2
Flags: W
HStem: -11.001 102.999<42.5044 221.312 365 425.94 429.959 516 519 561.104> -7.00098 98.999<365 516 519 561.104> 599.998 110.001<50.0194 235.002>
VStem: 229.002 135.998<92.998 192.728> 236.002 134.999<94.249 597.999>
LayerCount: 2
Fore
SplineSet
179 -12 m 1x70
 135 -13.3330078125 104.66796875 -14.001953125 88.0009765625 -14.001953125 c 0
 68.0009765625 -14.001953125 52.66796875 -9.6689453125 42.0009765625 -1.001953125 c 0
 30.66796875 7.6650390625 25.0009765625 18.998046875 25.0009765625 32.998046875 c 2
 25.0009765625 35.998046875 l 2
 25.0009765625 49.3310546875 29.833984375 60.998046875 39.5009765625 70.998046875 c 0
 49.16796875 80.998046875 64.3349609375 86.3310546875 85.001953125 86.998046875 c 0
 111.668945312 88.3310546875 159.668945312 89.6640625 229.001953125 90.9970703125 c 1x70
 233.668945312 160.330078125 236.001953125 232.330078125 236.001953125 306.997070312 c 0
 236.001953125 346.330078125 235.334960938 386.330078125 234.001953125 426.997070312 c 0
 232.668945312 455.6640625 232.001953125 486.6640625 232.001953125 519.997070312 c 2
 232.001953125 540.997070312 l 2
 232.001953125 547.6640625 232.501953125 557.831054688 233.501953125 571.498046875 c 0
 234.501953125 585.165039062 235.001953125 594.665039062 235.001953125 599.998046875 c 1
 196.334960938 600.665039062 167.66796875 600.998046875 149.000976562 600.998046875 c 0
 131.66796875 600.998046875 114.000976562 600.665039062 96.0009765625 599.998046875 c 2
 94.0009765625 599.998046875 l 2
 75.333984375 599.998046875 60.5009765625 604.665039062 49.5009765625 613.998046875 c 0
 38.5009765625 623.331054688 32.66796875 635.998046875 32.0009765625 651.998046875 c 2
 32.0009765625 653.998046875 l 2
 32.0009765625 667.998046875 37.16796875 680.331054688 47.5009765625 690.998046875 c 0
 57.833984375 701.665039062 73.333984375 707.33203125 94.0009765625 707.999023438 c 0
 151.333984375 709.33203125 206.333984375 709.999023438 259.000976562 709.999023438 c 0
 363.66796875 709.999023438 449.333007812 706.999023438 516 700.999023438 c 0
 531.333007812 699.666015625 543.66796875 695.333007812 553.000976562 688 c 0
 565.66796875 678.666992188 572.334960938 665.666992188 573.001953125 649 c 2
 573.001953125 648 l 2
 573.001953125 633.333007812 568.668945312 619.666015625 560.001953125 606.999023438 c 0
 555.334960938 599.666015625 548.66796875 593.999023438 540.000976562 589.999023438 c 0
 534.66796875 587.33203125 528.66796875 585.999023438 522.000976562 585.999023438 c 0
 518.66796875 585.999023438 514.66796875 586.666015625 510.000976562 587.999023438 c 0
 491.333984375 590.666015625 445.333984375 593.999023438 372.000976562 597.999023438 c 1
 372.000976562 590.666015625 371.333984375 577.333007812 370.000976562 558 c 0
 369.333984375 539.333007812 369.000976562 524.833007812 369.000976562 514.5 c 2
 369.000976562 484 l 2
 369.000976562 444.666992188 369.333984375 412.166992188 370.000976562 386.5 c 0
 370.66796875 360.833007812 371.000976562 334.666015625 371.000976562 307.999023438 c 0x68
 371.000976562 281.33203125 370.16796875 243.665039062 368.500976562 194.998046875 c 0
 366.833984375 146.331054688 365.666992188 112.331054688 365 92.998046875 c 1
 393 92.998046875 416 92.6650390625 434 91.998046875 c 2
 516 91.998046875 l 1xb0
 516 97.3310546875 516.333007812 97.3310546875 517 91.998046875 c 1
 517 97.3310546875 517.33203125 97.3310546875 517.999023438 91.998046875 c 1
 517.999023438 97.3310546875 518.333007812 97.3310546875 519 91.998046875 c 1x70
 519 97.3310546875 519.333007812 97.3310546875 520 91.998046875 c 1
 539.333007812 91.998046875 553.166015625 87.498046875 561.499023438 78.498046875 c 0
 569.83203125 69.498046875 574.33203125 58.3310546875 574.999023438 44.998046875 c 2
 574.999023438 43.9990234375 l 2
 574.999023438 37.33203125 574.334960938 30.9990234375 573.001953125 24.9990234375 c 0
 571.668945312 18.9990234375 569.333007812 12.9990234375 566 6.9990234375 c 0
 561.333007812 -0.333984375 554.666015625 -5.333984375 545.999023438 -8.0009765625 c 0
 540.666015625 -10.0009765625 535.666015625 -11.0009765625 530.999023438 -11.0009765625 c 2
 517.999023438 -11.0009765625 l 2xb0
 499.999023438 -8.333984375 469.999023438 -7.0009765625 427.999023438 -7.0009765625 c 0
 383.999023438 -7.0009765625 344.33203125 -7.333984375 308.999023438 -8.0009765625 c 1
 290.942382812 -5.22265625 272.88671875 -3.833984375 254.830078125 -3.833984375 c 0
 179 -12 l 1x70
EndSplineSet
Validated: 524289
EndChar

StartChar: J
Encoding: 74 74 42
Width: 600
GlyphClass: 2
Flags: W
HStem: -35 125.998<194.069 296.459> 599.998 110.002<54.5039 297.002 418 525.844>
VStem: 22.5029 114.499<150.857 256.964> 296.752 121.248<425.658 596.001> 300.002 125.998<103.937 595.189>
LayerCount: 2
Fore
SplineSet
423 217 m 0xe8
 411.666992188 101 388.002929688 26.3330078125 352.002929688 -7 c 0
 332.669921875 -25.6669921875 309.669921875 -35 283.002929688 -35 c 0
 256.3359375 -35 230.502929688 -30.6669921875 205.502929688 -22 c 0
 180.502929688 -13.3330078125 159.002929688 -2.3330078125 141.002929688 11 c 0
 123.669921875 25 107.836914062 40.1669921875 93.50390625 56.5 c 0
 79.1708984375 72.8330078125 67.1708984375 89 57.50390625 105 c 0
 47.8369140625 121 40.169921875 135.666992188 34.5029296875 149 c 0
 28.8359375 162.333007812 25.3359375 173 24.0029296875 181 c 0
 22.0029296875 188.333007812 21.5029296875 196.5 22.5029296875 205.5 c 0
 23.5029296875 214.5 25.0029296875 223 27.0029296875 231 c 0
 29.669921875 240.333007812 35.0029296875 248.666015625 43.0029296875 255.999023438 c 0
 51.0029296875 263.33203125 61.3359375 267.999023438 74.0029296875 269.999023438 c 0
 78.0029296875 270.666015625 82.0029296875 270.999023438 86.0029296875 270.999023438 c 0
 99.3359375 270.999023438 110.668945312 266.999023438 120.001953125 258.999023438 c 0
 131.334960938 248.33203125 137.001953125 234.665039062 137.001953125 217.998046875 c 0
 137.001953125 201.998046875 142.334960938 182.998046875 153.001953125 160.998046875 c 0
 159.668945312 148.331054688 167.668945312 136.998046875 177.001953125 126.998046875 c 0
 186.334960938 116.998046875 199.001953125 108.498046875 215.001953125 101.498046875 c 0
 231.001953125 94.498046875 249.001953125 90.998046875 269.001953125 90.998046875 c 0
 269.668945312 90.998046875 270.3359375 91.3310546875 271.002929688 91.998046875 c 0
 275.669921875 95.3310546875 280.002929688 102.998046875 284.002929688 114.998046875 c 0
 293.3359375 143.665039062 298.668945312 186.998046875 300.001953125 244.998046875 c 2
 300.001953125 246.998046875 l 1
 300.001953125 267.498046875 l 2xe8
 300.001953125 279.831054688 299.668945312 312.998046875 299.001953125 366.998046875 c 0
 297.501953125 426.99609375 296.751953125 485.682617188 296.751953125 543.055664062 c 0
 296.751953125 562.182617188 296.834960938 581.163085938 297.001953125 599.998046875 c 1
 259.3359375 600.998046875 224.0859375 601.498046875 191.251953125 601.498046875 c 0
 158.418945312 601.498046875 128.001953125 600.998046875 100.001953125 599.998046875 c 2
 98.001953125 599.998046875 l 2
 79.3349609375 599.998046875 64.66796875 604.665039062 54.0009765625 613.998046875 c 0
 43.333984375 623.331054688 37.6669921875 635.998046875 37 651.998046875 c 0
 37 652.665039062 36.6669921875 653.33203125 36 653.999023438 c 0
 36 667.999023438 41.3330078125 680.33203125 52 690.999023438 c 0
 62.6669921875 701.666015625 78.333984375 707.333007812 99.0009765625 708 c 0
 157.000976562 709.333007812 212.000976562 710 264.000976562 710 c 0
 368.000976562 710 453.333984375 707 520.000976562 701 c 0
 535.333984375 699.666992188 547.666992188 695.333984375 557 688.000976562 c 0
 569.666992188 678.66796875 576.666992188 665.334960938 578 648.001953125 c 0
 578 633.334960938 573.666992188 619.66796875 565 607.000976562 c 0
 560.333007812 599.66796875 553.333007812 594.000976562 544 590.000976562 c 0
 538.666992188 587.333984375 532.666992188 586.000976562 526 586.000976562 c 0
 522.666992188 586.000976562 519 586.66796875 515 588.000976562 c 0
 494.333007812 591.333984375 462 594.000976562 418 596.000976562 c 1xf0
 418 579.333984375 420.333007812 521.000976562 425 421.000976562 c 0
 426.06640625 399.131835938 426.599609375 380.036132812 426.599609375 363.713867188 c 0
 426.599609375 359.63671875 426.56640625 355.732421875 426.5 352.000976562 c 0
 426.166992188 333.333984375 426 321.666992188 426 317 c 0
 426 275 425 241.666992188 423 217 c 0xe8
EndSplineSet
Validated: 524289
EndChar

StartChar: K
Encoding: 75 75 43
Width: 600
GlyphClass: 2
Flags: W
HStem: -22 21G<92.3335 101 516.155 519.004> 694.065 20G<81.6699 90.1362 480.667 485.333>
VStem: 36.001 116.999<107.028 271.001 452.999 540.271 541.723 700.529>
LayerCount: 2
Fore
SplineSet
93 -22 m 0
 91.6669921875 -22 90.3349609375 -21.666015625 89.001953125 -20.9990234375 c 0
 72.3349609375 -20.9990234375 58.66796875 -16.666015625 48.0009765625 -7.9990234375 c 0
 38.0009765625 0.0009765625 33.0009765625 10.66796875 33.0009765625 24.0009765625 c 0
 33.0009765625 26.66796875 33.333984375 29.3349609375 34.0009765625 32.001953125 c 0
 35.333984375 53.3349609375 36.0009765625 88.66796875 36.0009765625 138.000976562 c 0
 36.0009765625 233.333984375 34.0009765625 338.666992188 30.0009765625 454 c 0
 28.66796875 496.666992188 28.0009765625 525.666992188 28.0009765625 541 c 0
 28.0009765625 556.333007812 28.66796875 578 30.0009765625 606 c 0
 31.333984375 634.666992188 32.0009765625 652.666992188 32.0009765625 660 c 1
 32.66796875 677.333007812 38.66796875 691 50.0009765625 701 c 0
 60.578125 709.7109375 73.7685546875 714.065429688 89.5712890625 714.065429688 c 0
 90.701171875 714.065429688 91.84375 714.043945312 93 713.999023438 c 2
 96 713.999023438 l 2
 112 713.999023438 126 710.33203125 138 702.999023438 c 0
 150.698242188 694.745117188 157.046875 682.258789062 157.046875 665.540039062 c 0
 157.046875 651.19921875 156.41015625 618.120117188 154.999023438 567.999023438 c 0
 153.666015625 521.33203125 152.666015625 482.999023438 151.999023438 452.999023438 c 1
 176.666015625 472.999023438 211.999023438 501.666015625 257.999023438 538.999023438 c 0
 356.666015625 627.666015625 414.999023438 679.333007812 432.999023438 694 c 0
 444.33203125 702.666992188 455.33203125 708.666992188 465.999023438 712 c 0
 472.666015625 714 478.333007812 715 483 715 c 0
 487.666992188 715 492 714.666992188 496 714 c 0
 504.666992188 712 512.333984375 708 519.000976562 702 c 0
 528.333984375 694 533.000976562 685.333007812 533.000976562 676 c 0
 533.000976562 658 525.66796875 638.666992188 511.000976562 618 c 0
 501.000976562 605.333007812 465.000976562 569 403.000976562 509 c 1
 339.000976562 453 282.66796875 404.333007812 234.000976562 363 c 1
 259.333984375 339 299.666992188 303.333007812 355 256 c 0
 410.333007812 211.333007812 458.333007812 171 499 135 c 0
 521.666992188 113 538.333984375 95.6669921875 549.000976562 83 c 0
 560.333984375 67.6669921875 567.000976562 57 569.000976562 51 c 0
 571.66796875 42.3330078125 572.66796875 34 572.000976562 26 c 0
 572.000976562 20.6669921875 571.000976562 15.333984375 569.000976562 10.0009765625 c 0
 564.333984375 0.66796875 556.666992188 -6.6650390625 546 -11.998046875 c 0
 531.455078125 -18.05859375 521.59375 -21.0888671875 516.4140625 -21.0888671875 c 0
 515.895507812 -21.0888671875 515.424804688 -21.05859375 515 -20.998046875 c 2
 514 -20.998046875 l 2
 496 -20.998046875 479 -12.6650390625 463 4.001953125 c 0
 456.333007812 12.001953125 431 35.001953125 387 73.001953125 c 0
 343 110.334960938 295 151.66796875 243 197.000976562 c 0
 205.666992188 226.333984375 175.666992188 251.000976562 153 271.000976562 c 1
 162 25.0009765625 l 2
 160 10.333984375 151.333007812 -1.3330078125 136 -10 c 0
 123.333007812 -18 109 -22 93 -22 c 0
EndSplineSet
Validated: 524289
EndChar

StartChar: L
Encoding: 76 76 44
Width: 600
GlyphClass: 2
Flags: W
HStem: -14.999 116.996<156.011 156.996 157.996 440.635>
VStem: 27.999 127.996<95.9971 265.875> 54.998 127.048<172.937 688.982>
LayerCount: 2
Fore
SplineSet
163 209 m 0xa0
 159 161 156.662109375 123.330078125 155.995117188 95.9970703125 c 1
 156.328125 99.9970703125 156.662109375 101.997070312 156.99609375 101.997070312 c 0
 157.99609375 95.9970703125 l 1
 215.329101562 95.9970703125 282.329101562 99.330078125 358.99609375 105.997070312 c 0
 434.329101562 112.6640625 483.99609375 119.331054688 507.99609375 125.998046875 c 0
 511.73046875 127.064453125 515.46484375 127.59765625 519.198242188 127.59765625 c 0
 521.997070312 127.498046875 l 0
 526.6640625 127.165039062 531.331054688 125.998046875 535.998046875 123.998046875 c 0
 544.665039062 120.665039062 551.998046875 115.33203125 557.998046875 107.999023438 c 0
 562.665039062 101.33203125 565.998046875 94.33203125 567.998046875 86.9990234375 c 0
 570.665039062 78.9990234375 571.998046875 71.9990234375 571.998046875 65.9990234375 c 0
 571.998046875 50.666015625 567.998046875 38.3330078125 559.998046875 29 c 0
 551.998046875 19.6669921875 538.331054688 13.333984375 518.998046875 10.0009765625 c 0
 472.998046875 1.333984375 399.831054688 -4.9990234375 299.498046875 -8.9990234375 c 0
 199.165039062 -12.9990234375 127.33203125 -14.9990234375 83.9990234375 -14.9990234375 c 0
 67.33203125 -14.9990234375 53.33203125 -9.33203125 41.9990234375 2.0009765625 c 0
 32.6240234375 11.3759765625 27.9365234375 23.38671875 27.9365234375 38.03515625 c 0
 27.9365234375 39.01171875 27.95703125 40.0009765625 27.9990234375 41.0009765625 c 2
 27.9990234375 50.0009765625 l 2xc0
 27.9990234375 54.0009765625 31.83203125 90.333984375 39.4990234375 159.000976562 c 0
 47.166015625 227.66796875 52.666015625 293.66796875 55.9990234375 357.000976562 c 0
 56.8876953125 369.88671875 57.33203125 384.697265625 57.33203125 401.432617188 c 0
 57.33203125 409.806640625 57.220703125 418.663085938 56.998046875 428.000976562 c 0
 56.998046875 452.66796875 56.3310546875 523.66796875 54.998046875 641.000976562 c 2
 54.998046875 642.000976562 l 2
 55.6650390625 662.66796875 61.83203125 678.500976562 73.4990234375 689.500976562 c 0
 85.166015625 700.500976562 99.3330078125 706.000976562 116 706.000976562 c 2
 119 706.000976562 l 2
 135 706.000976562 149.333007812 701.333984375 162 692.000976562 c 0
 175.36328125 681.819335938 182.045898438 667.081054688 182.045898438 647.788085938 c 0
 182.045898438 647 182.036132812 618.723632812 181 569 c 0
 179.666992188 525.666992188 178 485 176 447 c 0
 174 405 172.333007812 363 171 321 c 0
 169.666992188 294.333007812 167 257 163 209 c 0xa0
EndSplineSet
Validated: 524289
EndChar

StartChar: M
Encoding: 77 77 45
Width: 600
GlyphClass: 2
Flags: W
HStem: -10.001 21G<54.3296 67.3296 283 314>
VStem: 9.99609 108<16.5645 315.532>
LayerCount: 2
Fore
SplineSet
117.99609375 63.9990234375 m 2
 117.99609375 52.9990234375 l 2
 117.99609375 34.9990234375 112.663085938 19.9990234375 101.99609375 7.9990234375 c 0
 89.99609375 -4.0009765625 75.6630859375 -10.0009765625 58.99609375 -10.0009765625 c 2
 57.99609375 -10.0009765625 l 2
 50.6630859375 -10.0009765625 43.99609375 -8.66796875 37.99609375 -6.0009765625 c 0
 29.3291015625 -2.0009765625 22.3291015625 5.33203125 16.99609375 15.9990234375 c 0
 12.3291015625 27.9990234375 9.99609375 43.9990234375 9.99609375 63.9990234375 c 0
 9.99609375 72.666015625 10.99609375 86.9990234375 12.99609375 106.999023438 c 0
 14.99609375 126.33203125 17.3291015625 151.999023438 19.99609375 183.999023438 c 0
 23.3291015625 217.999023438 26.99609375 258.33203125 30.99609375 304.999023438 c 0
 34.99609375 352.33203125 37.99609375 389.665039062 39.99609375 416.998046875 c 0
 48.6630859375 512.998046875 56.330078125 579.331054688 62.9970703125 615.998046875 c 0
 67.6640625 639.331054688 72.6640625 655.6640625 77.9970703125 664.997070312 c 0
 85.9970703125 678.997070312 98.330078125 689.330078125 114.997070312 695.997070312 c 0
 128.997070312 701.330078125 142.997070312 703.998046875 156.997070312 703.998046875 c 2
 162.997070312 703.998046875 l 2
 179.6640625 703.998046875 193.331054688 701.6640625 203.998046875 696.997070312 c 0
 218.665039062 690.997070312 228.665039062 680.997070312 233.998046875 666.997070312 c 0
 242.665039062 637.6640625 251.998046875 589.331054688 261.998046875 521.998046875 c 0
 271.998046875 454.665039062 282.665039062 377.665039062 293.998046875 290.998046875 c 0
 296.665039062 271.665039062 298.665039062 254.33203125 299.998046875 238.999023438 c 1
 304.665039062 286.999023438 309.33203125 331.666015625 313.999023438 372.999023438 c 0
 320.666015625 428.33203125 329.666015625 483.665039062 340.999023438 538.998046875 c 0
 352.33203125 594.331054688 361.999023438 636.997070312 369.999023438 666.997070312 c 0
 373.33203125 676.997070312 380.999023438 685.331054688 392.999023438 691.998046875 c 0
 403.666015625 697.998046875 414.999023438 701.665039062 426.999023438 702.998046875 c 0
 434.33203125 704.331054688 440.499023438 704.831054688 445.499023438 704.498046875 c 0
 450.499023438 704.165039062 454.666015625 703.998046875 457.999023438 703.998046875 c 2
 460.999023438 703.998046875 l 1
 476.499023438 703.998046875 l 2
 480.83203125 703.998046875 486.665039062 702.998046875 493.998046875 700.998046875 c 0
 501.331054688 699.665039062 507.498046875 697.665039062 512.498046875 694.998046875 c 0
 517.498046875 692.331054688 522.331054688 688.331054688 526.998046875 682.998046875 c 0
 531.665039062 676.998046875 534.665039062 669.998046875 535.998046875 661.998046875 c 0
 538.665039062 641.998046875 546.33203125 544.998046875 558.999023438 370.998046875 c 0
 571.666015625 197.665039062 580.666015625 99.6650390625 585.999023438 76.998046875 c 0
 588.666015625 63.6650390625 589.999023438 51.33203125 589.999023438 39.9990234375 c 0
 589.999023438 30.666015625 587.999023438 22.666015625 583.999023438 15.9990234375 c 0
 578.666015625 6.666015625 569.666015625 -0.0009765625 556.999023438 -4.0009765625 c 0
 549.666015625 -6.0009765625 541.999023438 -7.16796875 533.999023438 -7.5009765625 c 0
 525.999023438 -7.833984375 517.666015625 -6.0009765625 508.999023438 -2.0009765625 c 0
 493.666015625 4.666015625 482.333007812 18.3330078125 475 39 c 0
 461.666992188 79 449.666992188 234 439 504 c 1
 430.333007812 452.666992188 424.333007812 404 421 358 c 0
 414.333007812 282 405.333007812 210 394 142 c 0
 382.666992188 74 373.666992188 32.3330078125 367 17 c 0
 357 1 333 -7 295 -7 c 2
 290 -7 l 2
 276 -7 263.666992188 -5 253 -1 c 0
 240.333007812 3.6669921875 232.333007812 10.333984375 229 19.0009765625 c 0
 220.333007812 51.0009765625 206 124.000976562 186 238.000976562 c 0
 172.666992188 316.000976562 160 391.66796875 148 465.000976562 c 1
 146.666992188 451.66796875 145 427.66796875 143 393.000976562 c 2
 139 340.000976562 l 1
 133 253.000976562 l 2
 131 225.66796875 128.666992188 197.000976562 126 167.000976562 c 0
 124 144.333984375 121.666992188 120.666992188 119 96 c 0
 118.333007812 82 117.99609375 71.33203125 117.99609375 63.9990234375 c 2
EndSplineSet
Validated: 524289
EndChar

StartChar: N
Encoding: 78 78 46
Width: 600
GlyphClass: 2
Flags: W
HStem: -11.998 21G<69.6665 88 473.667 501.667>
VStem: 29 108<6.53685 180.455> 37 107<79.7041 486> 463.333 106.665<187.325 656.813>
LayerCount: 2
Fore
SplineSet
142 486 m 1xb0
 143.333007812 456 144 431.002929688 144 411.002929688 c 0xb0
 144 389.669921875 143.666992188 359.669921875 143 321.002929688 c 0
 142.333007812 283.669921875 141.333007812 237.669921875 140 183.002929688 c 0
 138 128.3359375 137 93.6689453125 137 79.001953125 c 2
 137 52.001953125 l 1
 137 44.001953125 l 2
 137 26.001953125 131.666992188 12.001953125 121 2.001953125 c 0
 109.666992188 -7.3310546875 96 -11.998046875 80 -11.998046875 c 0
 59.3330078125 -11.998046875 45.3330078125 -5.998046875 38 6.001953125 c 0
 32 17.3349609375 29 33.66796875 29 55.0009765625 c 0xd0
 29 68.333984375 30 120.000976562 32 210.000976562 c 0
 35.3330078125 348.66796875 37 444.000976562 37 496.000976562 c 0
 37 547.333984375 36.3330078125 594.666992188 35 638 c 2
 35 647 l 2
 35 657 36.6669921875 666 40 674 c 0
 45.3330078125 683.333007812 52.666015625 690 61.9990234375 694 c 0
 75.33203125 701.333007812 90.33203125 705 106.999023438 705 c 0
 110.33203125 705 113.999023438 704.666992188 117.999023438 704 c 0
 132.666015625 704 145.333007812 701.666992188 156 697 c 0
 170.666992188 691 181 681 187 667 c 0
 202.333007812 624.333007812 244 545.333007812 312 430 c 0
 370 332.666992188 420 251.333984375 462 186.000976562 c 1
 462.888671875 224.213867188 463.333007812 270.274414062 463.333007812 324.18359375 c 0
 463.333007812 351.158203125 463.221679688 380.096679688 462.999023438 411.000976562 c 0
 461.666015625 529.000976562 458.666015625 607.000976562 453.999023438 645.000976562 c 0
 453.33203125 649.000976562 452.999023438 653.000976562 452.999023438 657.000976562 c 0
 452.999023438 669.000976562 457.33203125 679.66796875 465.999023438 689.000976562 c 0
 476.666015625 699.66796875 490.666015625 705.000976562 507.999023438 705.000976562 c 0
 523.999023438 705.000976562 536.999023438 702.333984375 546.999023438 697.000976562 c 0
 552.33203125 694.333984375 555.999023438 690.333984375 557.999023438 685.000976562 c 0
 559.999023438 679.66796875 561.666015625 675.000976562 562.999023438 671.000976562 c 0
 564.33203125 666.333984375 565.665039062 659.333984375 566.998046875 650.000976562 c 0
 568.998046875 638.66796875 569.998046875 585.334960938 569.998046875 490.001953125 c 2
 569.998046875 448.001953125 l 2
 569.998046875 364.668945312 568.998046875 278.668945312 566.998046875 190.001953125 c 0
 565.665039062 132.668945312 563.33203125 90.001953125 559.999023438 62.001953125 c 0
 557.33203125 35.3349609375 554.33203125 18.3349609375 550.999023438 11.001953125 c 0
 541.666015625 -4.998046875 519.333007812 -13.3310546875 484 -13.998046875 c 2
 480 -13.998046875 l 2
 467.333007812 -13.998046875 456 -11.6650390625 446 -6.998046875 c 0
 434 -1.6650390625 426 5.001953125 422 13.001953125 c 0
 415.333007812 26.3349609375 398 55.66796875 370 101.000976562 c 0
 340.666992188 148.333984375 311.666992188 193.666992188 283 237 c 0
 253 286.333007812 221.333007812 341.333007812 188 402 c 0
 170 432 154.666992188 460 142 486 c 1xb0
EndSplineSet
Validated: 524289
EndChar

StartChar: O
Encoding: 79 79 47
Width: 600
GlyphClass: 2
Flags: W
HStem: -23.9951 108<205.632 358.123> 612.006 105.995<240.528 382.954>
VStem: 31.001 120.999<154.456 486.5> 449.5 119.562<179.429 536.395>
LayerCount: 2
Fore
SplineSet
222 94.005859375 m 0
 234 87.3388671875 247.666992188 84.0048828125 263 84.0048828125 c 0
 301 84.0048828125 334.666992188 92.337890625 364 109.004882812 c 0
 379.333007812 117.004882812 393 128.171875 405 142.504882812 c 0
 417 156.837890625 426.333007812 173.337890625 433 192.004882812 c 0
 435.666992188 199.337890625 438.5 217.837890625 441.5 247.504882812 c 0
 444.5 277.171875 447 312.671875 449 354.004882812 c 0
 449.333984375 360.004882812 449.5 366.004882812 449.5 372.004882812 c 0
 449.5 378.004882812 449.333984375 384.004882812 449 390.004882812 c 0
 449 418.671875 447.666992188 447.338867188 445 476.005859375 c 0
 441 515.338867188 426.666992188 548.005859375 402 574.005859375 c 0
 378 599.338867188 348.5 612.005859375 313.5 612.005859375 c 0
 278.5 612.005859375 249 600.672851562 225 578.005859375 c 0
 200.333007812 554.005859375 182.333007812 520.672851562 171 478.005859375 c 0
 158.333007812 430.005859375 152 375.005859375 152 313.005859375 c 0
 152 274.338867188 154 240.338867188 158 211.005859375 c 0
 160.666992188 194.338867188 165 177.838867188 171 161.505859375 c 0
 177 145.172851562 184 131.505859375 192 120.505859375 c 0
 200 109.505859375 210 100.672851562 222 94.005859375 c 0
564 480 m 0
 567.375 438.375 569.0625 397.172851562 569.0625 356.392578125 c 0
 569.0625 324.67578125 568.041992188 293.213867188 566 262.005859375 c 0
 563.333007812 222.672851562 558.666015625 192.33984375 551.999023438 171.006835938 c 0
 543.33203125 139.673828125 532.33203125 112.673828125 518.999023438 90.0068359375 c 0
 505.666015625 67.33984375 490.833007812 48.6728515625 474.5 34.005859375 c 0
 458.166992188 19.3388671875 438.333984375 7.671875 415.000976562 -0.9951171875 c 0
 391.66796875 -9.662109375 368.16796875 -15.662109375 344.500976562 -18.9951171875 c 0
 320.833984375 -22.328125 293.666992188 -23.9951171875 263 -23.9951171875 c 0
 215.666992188 -23.328125 173.333984375 -10.6611328125 136.000976562 14.005859375 c 0
 101.333984375 39.3388671875 75.0009765625 72.671875 57.0009765625 114.004882812 c 0
 39.66796875 154.004882812 31.0009765625 197.337890625 31.0009765625 244.004882812 c 2
 31.0009765625 249.004882812 l 1
 31.0009765625 266.004882812 l 2
 31.0009765625 295.337890625 31.16796875 318.670898438 31.5009765625 336.00390625 c 0
 31.833984375 353.336914062 33.0009765625 376.669921875 35.0009765625 406.002929688 c 0
 39.0009765625 463.3359375 50.66796875 516.668945312 70.0009765625 566.001953125 c 1
 70.0009765625 567.000976562 l 1
 88.0009765625 611.66796875 119.333984375 648.000976562 164.000976562 676.000976562 c 0
 212.000976562 704.000976562 266.333984375 718.000976562 327.000976562 718.000976562 c 0
 357.66796875 718.000976562 387.000976562 712.333984375 415.000976562 701.000976562 c 0
 443.000976562 690.333984375 467.333984375 675.166992188 488.000976562 655.5 c 0
 508.66796875 635.833007812 525.66796875 611 539.000976562 581 c 0
 552.333984375 551 560.666992188 517.333007812 564 480 c 0
EndSplineSet
Validated: 524289
EndChar

StartChar: P
Encoding: 80 80 48
Width: 600
GlyphClass: 2
Flags: W
HStem: -18.9971 21G<107.67 124.67> 218 105.918<170.506 373.255> 605.004 105.999<174.133 390.458>
VStem: 55.0039 129.999<-2.55739 224.218> 55.0039 113.996<32.1765 93.9443 96.7622 226 328.472 599.255> 444.005 115.995<391.836 558.239>
LayerCount: 2
Fore
SplineSet
178 109 m 0xec
 182.666992188 61 185.002929688 35.3369140625 185.002929688 32.00390625 c 0
 185.002929688 15.3369140625 176.669921875 2.669921875 160.002929688 -5.9970703125 c 0
 146.669921875 -14.6640625 132.336914062 -18.9970703125 117.00390625 -18.9970703125 c 0
 98.3369140625 -18.9970703125 83.00390625 -13.6640625 71.00390625 -2.9970703125 c 0
 60.3369140625 6.3359375 55.00390625 18.6689453125 55.00390625 34.001953125 c 0xf4
 55.00390625 36.6689453125 55.3369140625 41.001953125 56.00390625 47.001953125 c 0
 56.6708984375 56.3349609375 57.00390625 72.3349609375 57.00390625 95.001953125 c 0
 57.00390625 132.334960938 56.3369140625 183.66796875 55.00390625 249.000976562 c 0
 52.3369140625 359.66796875 50.669921875 425.334960938 50.0029296875 446.001953125 c 0
 49.7802734375 463.56640625 49.6689453125 481.538085938 49.6689453125 499.91796875 c 0
 49.6689453125 536.650390625 50.11328125 575.01171875 51.001953125 615.001953125 c 1
 50.3349609375 609.668945312 49.66796875 610.3359375 49.0009765625 617.002929688 c 1
 49.0009765625 611.669921875 48.66796875 611.669921875 48.0009765625 617.002929688 c 0
 42.0009765625 625.669921875 39.333984375 634.336914062 40.0009765625 643.00390625 c 2
 40.0009765625 651.00390625 l 2
 42.0009765625 661.00390625 46.66796875 670.00390625 54.0009765625 678.00390625 c 0
 61.333984375 686.00390625 69.6669921875 691.00390625 79 693.00390625 c 0
 103.666992188 698.336914062 140.333984375 702.669921875 189.000976562 706.002929688 c 0
 240.333984375 709.3359375 276.333984375 711.002929688 297.000976562 711.002929688 c 0
 349.000976562 711.002929688 395.333984375 703.002929688 436.000976562 687.002929688 c 0
 473.333984375 670.3359375 503.166992188 645.168945312 525.5 611.501953125 c 0
 547.833007812 577.834960938 559.333007812 538.001953125 560 492.001953125 c 1
 560 454.668945312 553.666992188 419.168945312 541 385.501953125 c 0
 528.333007812 351.834960938 511 322.66796875 489 298.000976562 c 0
 467 273.333984375 438.666992188 253.666992188 404 239 c 0
 370.204101562 224.970703125 333.967773438 217.956054688 295.291992188 217.956054688 c 0
 293.533203125 217.956054688 291.768554688 217.970703125 290 218 c 0
 241.333007812 218 201 220.666992188 169 226 c 1
 171 188 174 149 178 109 c 0xec
166.002929688 334.00390625 m 1
 189.836914062 327.28125 217.317382812 323.91796875 248.435546875 323.91796875 c 0
 251.263671875 323.91796875 254.12109375 323.9453125 257.008789062 324.000976562 c 0
 277.008789062 324.000976562 295.341796875 325.333984375 312.008789062 328.000976562 c 0
 328.67578125 330.66796875 343.008789062 334.000976562 355.008789062 338.000976562 c 0
 367.008789062 342.000976562 377.508789062 347.333984375 386.508789062 354.000976562 c 0
 395.508789062 360.66796875 403.17578125 367.334960938 409.508789062 374.001953125 c 0
 415.841796875 380.668945312 421.174804688 388.501953125 425.5078125 397.501953125 c 0
 429.840820312 406.501953125 433.173828125 414.668945312 435.506835938 422.001953125 c 0
 437.83984375 429.334960938 439.672851562 438.16796875 441.005859375 448.500976562 c 0
 442.338867188 458.833984375 443.171875 467.333984375 443.504882812 474.000976562 c 0
 443.837890625 480.66796875 444.004882812 488.334960938 444.004882812 497.001953125 c 0
 444.004882812 513.668945312 440.671875 528.3359375 434.004882812 541.002929688 c 0
 427.337890625 553.669921875 419.004882812 563.836914062 409.004882812 571.50390625 c 0
 399.004882812 579.170898438 387.171875 585.670898438 373.504882812 591.00390625 c 0
 359.837890625 596.336914062 346.670898438 600.00390625 334.00390625 602.00390625 c 0
 321.336914062 604.00390625 309.00390625 605.00390625 297.00390625 605.00390625 c 0
 273.670898438 605.00390625 232.00390625 602.670898438 172.00390625 598.00390625 c 1
 169.336914062 518.00390625 167.669921875 464.336914062 167.002929688 437.00390625 c 0
 166.3359375 400.336914062 166.002929688 366.00390625 166.002929688 334.00390625 c 1
EndSplineSet
Validated: 524289
EndChar

StartChar: Q
Encoding: 81 81 49
Width: 600
GlyphClass: 2
Flags: W
HStem: -24 21G<269.998 296.998> 612 106<236.16 379.666>
VStem: 25.9971 120.952<161.037 483.098> 237.997 106<138.764 207.502> 447.997 118.002<137.38 526.522>
LayerCount: 2
Fore
SplineSet
544 -204 m 0
 535.333007812 -209.333007812 525.998046875 -212 515.998046875 -212 c 0
 511.331054688 -212 505.998046875 -211.333007812 499.998046875 -210 c 0
 484.665039062 -206 472.33203125 -197.666992188 462.999023438 -185 c 0
 452.33203125 -172.333007812 435.165039062 -150 411.498046875 -118 c 0
 387.831054688 -86 364.998046875 -53.6669921875 342.998046875 -21 c 1
 325.665039062 -23 306.998046875 -24 286.998046875 -24 c 0
 252.998046875 -24 221.665039062 -19 192.998046875 -9 c 0
 164.331054688 0.3330078125 140.331054688 13.666015625 120.998046875 30.9990234375 c 0
 101.665039062 48.33203125 84.998046875 68.33203125 70.998046875 90.9990234375 c 0
 44.3310546875 134.999023438 29.6640625 187.666015625 26.9970703125 248.999023438 c 0
 26.330078125 266.33203125 25.9970703125 282.999023438 25.9970703125 298.999023438 c 0
 25.9970703125 403.666015625 39.6640625 491.333007812 66.9970703125 562 c 1
 84.9970703125 606.666992188 116.6640625 644 161.997070312 674 c 0
 209.997070312 703.333007812 263.6640625 718 322.997070312 718 c 0
 386.330078125 718 439.330078125 699 481.997070312 661 c 0
 502.6640625 642.333007812 519.831054688 617.5 533.498046875 586.5 c 0
 547.165039062 555.5 556.33203125 520 560.999023438 480 c 0
 564.427734375 449.14453125 566.141601562 413.879882812 566.141601562 374.208984375 c 0
 566.141601562 367.594726562 566.094726562 360.858398438 565.999023438 354 c 0
 565.999023438 269.333007812 561.666015625 206.333007812 552.999023438 165 c 0
 538.999023438 97 507.999023438 47 459.999023438 15 c 1
 481.33203125 -14.3330078125 507.33203125 -48 537.999023438 -86 c 0
 556.666015625 -109.333007812 565.999023438 -121.333007812 565.999023438 -122 c 0
 571.33203125 -130 573.999023438 -138.333007812 573.999023438 -147 c 0
 573.999023438 -149.666992188 573.666015625 -152 572.999023438 -154 c 0
 571.666015625 -164 568.333007812 -173.666992188 563 -183 c 0
 557 -192.333007812 550.666992188 -199.333007812 544 -204 c 0
248.998046875 114 m 0
 241.665039062 131.333007812 237.997070312 147 237.997070312 161 c 0
 237.997070312 182.333007812 246.6640625 199 263.997070312 211 c 0
 273.997070312 218.333007812 284.6640625 222.333007812 295.997070312 223 c 0
 305.330078125 223 314.330078125 220 322.997070312 214 c 0
 331.6640625 208 338.6640625 198.666992188 343.997070312 186 c 0
 355.330078125 156.666992188 371.330078125 125 391.997070312 91 c 1
 413.997070312 108.333007812 428.997070312 134 436.997070312 168 c 0
 438.997070312 177.333007812 441.1640625 197 443.497070312 227 c 0
 445.830078125 257 447.330078125 294.666992188 447.997070312 340 c 2
 447.997070312 356 l 2
 447.997070312 395.333007812 445.6640625 433 440.997070312 469 c 0
 434.997070312 513.666992188 420.330078125 549 396.997070312 575 c 0
 374.330078125 599.666992188 345.163085938 612 309.49609375 612 c 0
 273.829101562 612 243.99609375 600.333007812 219.99609375 577 c 0
 195.329101562 553 177.329101562 518.666992188 165.99609375 474 c 0
 153.297851562 425.112304688 146.94921875 374.108398438 146.94921875 320.98828125 c 0
 146.94921875 318.331054688 146.96484375 315.66796875 146.997070312 313 c 0
 146.997070312 293 147.6640625 272.333007812 148.997070312 251 c 1
 151.6640625 214.333007812 159.331054688 181.5 171.998046875 152.5 c 0
 184.665039062 123.5 200.998046875 100.666992188 220.998046875 84 c 0
 237.665039062 70.6669921875 255.998046875 63 275.998046875 61 c 1
 263.998046875 82.3330078125 254.998046875 100 248.998046875 114 c 0
EndSplineSet
Validated: 524289
EndChar

StartChar: R
Encoding: 82 82 50
Width: 600
GlyphClass: 2
Flags: W
HStem: -18.9961 21G<85.6675 106.001 501.001 516.667> 694.002 20G<83.3325 99.999>
VStem: 36.001 118.999<129 609.003> 36.001 107.999<34.426 251 369.005 497.376> 40.667 123.334<-2.55641 249.432> 42.5 113.501<371.653 607.007> 441.001 116.998<408.488 493.809>
LayerCount: 2
Fore
SplineSet
153.000976562 449.00390625 m 0xc6
 151.66796875 431.670898438 149.33203125 405.3359375 145.999023438 370.002929688 c 1
 151.33203125 369.3359375 158.33203125 369.002929688 166.999023438 369.002929688 c 0
 175.666015625 369.002929688 186.333007812 369.669921875 199 371.002929688 c 0
 228.333007812 372.3359375 253 373.668945312 273 375.001953125 c 0
 323.666992188 379.001953125 360.333984375 384.334960938 383.000976562 391.001953125 c 0
 395.000976562 395.001953125 405.66796875 399.668945312 415.000976562 405.001953125 c 0
 424.333984375 410.334960938 431.000976562 416.16796875 435.000976562 422.500976562 c 0
 439.000976562 428.833984375 441.000976562 436.333984375 441.000976562 445.000976562 c 0
 441.000976562 461.000976562 434.16796875 476.833984375 420.500976562 492.500976562 c 0
 406.833984375 508.16796875 389.000976562 522.334960938 367.000976562 535.001953125 c 0
 345.000976562 547.668945312 319.833984375 559.3359375 291.500976562 570.002929688 c 0
 263.16796875 580.669921875 237.334960938 589.002929688 214.001953125 595.002929688 c 0
 190.668945312 601.002929688 170.001953125 605.669921875 152.001953125 609.002929688 c 1
 153.334960938 566.3359375 154.66796875 529.3359375 156.000976562 498.002929688 c 0
 156.000976562 484.669921875 155.000976562 468.336914062 153.000976562 449.00390625 c 0xc6
155 129 m 0xe2
 161 74.3330078125 164.000976562 42.669921875 164.000976562 34.0029296875 c 0xca
 164.000976562 16.669921875 156.333984375 3.3369140625 141.000976562 -5.99609375 c 0
 128.333984375 -14.6630859375 114.000976562 -18.99609375 98.0009765625 -18.99609375 c 2
 94.0009765625 -18.99609375 l 2
 77.333984375 -18.3291015625 63.333984375 -12.99609375 52.0009765625 -2.99609375 c 0
 41.333984375 6.3369140625 36.0009765625 18.669921875 36.0009765625 34.0029296875 c 2
 36.0009765625 42.0029296875 l 2xd2
 38.66796875 75.3359375 40 103.3359375 40 126.002929688 c 0
 40 132.002929688 40.16796875 145.169921875 40.5009765625 165.502929688 c 0
 40.6123046875 172.274414062 40.6669921875 179.895507812 40.6669921875 188.3671875 c 0xca
 40.6669921875 205.334960938 40.4453125 225.712890625 40 249.502929688 c 0
 39.3330078125 285.169921875 39 307.502929688 39 316.502929688 c 0
 39 325.502929688 39.6669921875 343.3359375 41 370.002929688 c 0
 42 393.002929688 42.5 414.752929688 42.5 435.252929688 c 0xc6
 42.5 455.752929688 42 475.002929688 41 493.002929688 c 0
 40.3330078125 515.002929688 38.66796875 544.66796875 36.0009765625 582.000976562 c 0xe2
 33.333984375 619.333984375 31.9990234375 642.002929688 31.9990234375 650.002929688 c 2
 31.9990234375 655.002929688 l 2
 31.9990234375 656.3359375 31.666015625 657.668945312 30.9990234375 659.001953125 c 0
 30.9990234375 671.001953125 36.4990234375 683.168945312 47.4990234375 695.501953125 c 0
 58.4990234375 707.834960938 73.666015625 714.001953125 92.9990234375 714.001953125 c 0
 106.999023438 714.001953125 118.666015625 711.334960938 127.999023438 706.001953125 c 1
 185.999023438 703.334960938 239.999023438 696.16796875 289.999023438 684.500976562 c 0
 339.999023438 672.833984375 381.999023438 658.333984375 415.999023438 641.000976562 c 0
 448.666015625 623.66796875 475.666015625 604.000976562 496.999023438 582.000976562 c 0
 518.33203125 560.000976562 533.83203125 537.66796875 543.499023438 515.000976562 c 0
 553.166015625 492.333984375 557.999023438 469.333984375 557.999023438 446.000976562 c 0
 557.999023438 394.000976562 537.33203125 355.000976562 495.999023438 329.000976562 c 0
 482.666015625 321.000976562 468.333007812 314.000976562 453 308.000976562 c 0
 437 302.66796875 418.166992188 297.834960938 396.5 293.501953125 c 0
 374.833007812 289.168945312 356.333007812 286.168945312 341 284.501953125 c 0
 325.666992188 282.834960938 313 281.66796875 303 281.000976562 c 1
 361.666992188 251.000976562 414 217.333984375 460 180.000976562 c 0
 512.666992188 134.66796875 547.333984375 95.0009765625 564.000976562 61.0009765625 c 0
 566.66796875 53.66796875 568.000976562 46.66796875 568.000976562 40.0009765625 c 0
 568.000976562 33.333984375 567.000976562 27.0009765625 565.000976562 21.0009765625 c 0
 560.333984375 9.0009765625 552.666992188 -0.666015625 542 -7.9990234375 c 0
 532.666992188 -14.666015625 522.333984375 -17.9990234375 511.000976562 -17.9990234375 c 0
 491.000976562 -17.9990234375 473.66796875 -7.9990234375 459.000976562 12.0009765625 c 0
 448.333984375 25.333984375 432.500976562 42.1669921875 411.500976562 62.5 c 0
 390.500976562 82.8330078125 365.000976562 105.333007812 335.000976562 130 c 0
 305.000976562 154.666992188 271.000976562 179 233.000976562 203 c 0
 202.333984375 222.333007812 172.666992188 238.333007812 144 251 c 1xd2
 146 217.666992188 149.666992188 177 155 129 c 0xe2
EndSplineSet
Validated: 524289
EndChar

StartChar: S
Encoding: 83 83 51
Width: 600
GlyphClass: 2
Flags: W
HStem: -29 108.995<174.616 355.45> 620.998 102.998<250.813 515.845>
VStem: 24.9199 10.0801<80.1222 81> 55.0039 127.998<475.646 569.182> 451.005 123.995<155.55 280.464>
LayerCount: 2
Fore
SplineSet
35 73 m 1
 28.2783203125 87.0537109375 24.919921875 99.705078125 24.919921875 110.958984375 c 0
 24.919921875 115.76953125 25.177734375 120.87109375 26.0029296875 124.99609375 c 0
 30.0029296875 140.329101562 39.3359375 151.662109375 54.0029296875 158.995117188 c 0
 62.669921875 162.995117188 69.3369140625 165.495117188 74.00390625 166.495117188 c 0
 78.6708984375 167.495117188 82.837890625 167.995117188 86.5048828125 167.995117188 c 2
 95.0048828125 167.995117188 l 2
 103.004882812 167.328125 110.504882812 163.995117188 117.504882812 157.995117188 c 0
 124.504882812 151.995117188 131.337890625 144.328125 138.004882812 134.995117188 c 0
 149.337890625 118.328125 165.504882812 104.995117188 186.504882812 94.9951171875 c 0
 207.504882812 84.9951171875 231.337890625 79.9951171875 258.004882812 79.9951171875 c 0
 274.004882812 79.9951171875 291.004882812 81.9951171875 309.004882812 85.9951171875 c 0
 327.004882812 89.9951171875 344.504882812 96.162109375 361.504882812 104.495117188 c 0
 378.504882812 112.828125 393.671875 122.328125 407.004882812 132.995117188 c 0
 420.337890625 143.662109375 431.004882812 155.995117188 439.004882812 169.995117188 c 0
 447.004882812 183.995117188 451.004882812 198.995117188 451.004882812 214.995117188 c 0
 451.004882812 223.662109375 450.337890625 231.495117188 449.004882812 238.495117188 c 0
 447.671875 245.495117188 445.171875 252.995117188 441.504882812 260.995117188 c 0
 437.837890625 268.995117188 433.004882812 276.328125 427.004882812 282.995117188 c 0
 421.004882812 289.662109375 412.337890625 296.495117188 401.004882812 303.495117188 c 0
 389.671875 310.495117188 376.171875 316.662109375 360.504882812 321.995117188 c 0
 344.837890625 327.328125 325.170898438 332.328125 301.50390625 336.995117188 c 0
 277.836914062 341.662109375 251.836914062 345.329101562 223.50390625 347.99609375 c 0
 195.170898438 350.663085938 169.670898438 356.99609375 147.00390625 366.99609375 c 0
 125.670898438 376.99609375 108.50390625 389.49609375 95.50390625 404.49609375 c 0
 82.50390625 419.49609375 72.50390625 435.329101562 65.50390625 451.99609375 c 0
 58.50390625 468.663085938 55.00390625 485.330078125 55.00390625 501.997070312 c 0
 55.00390625 525.330078125 59.1708984375 547.663085938 67.50390625 568.99609375 c 0
 75.8369140625 590.329101562 88.50390625 610.49609375 105.50390625 629.49609375 c 0
 122.50390625 648.49609375 143.336914062 664.99609375 168.00390625 678.99609375 c 0
 193.336914062 692.99609375 223.669921875 703.99609375 259.002929688 711.99609375 c 0
 294.3359375 719.99609375 332.3359375 723.99609375 373.002929688 723.99609375 c 0
 393.002929688 723.99609375 420.3359375 722.329101562 455.002929688 718.99609375 c 0
 487.002929688 715.663085938 509.3359375 711.663085938 522.002929688 706.99609375 c 0
 537.3359375 701.663085938 548.668945312 692.663085938 556.001953125 679.99609375 c 0
 561.334960938 670.663085938 564.001953125 660.330078125 564.001953125 648.997070312 c 0
 564.001953125 634.330078125 560.001953125 622.997070312 552.001953125 614.997070312 c 0
 545.334960938 608.330078125 537.334960938 604.330078125 528.001953125 602.997070312 c 0
 523.334960938 602.330078125 519.334960938 601.997070312 516.001953125 601.997070312 c 0
 512.668945312 601.997070312 509.001953125 602.330078125 505.001953125 602.997070312 c 0
 497.668945312 603.6640625 490.001953125 605.331054688 482.001953125 607.998046875 c 0
 470.668945312 610.665039062 461.668945312 612.665039062 455.001953125 613.998046875 c 0
 447.668945312 615.331054688 436.001953125 616.831054688 420.001953125 618.498046875 c 0
 404.001953125 620.165039062 385.334960938 620.998046875 364.001953125 620.998046875 c 0
 332.001953125 620.998046875 302.334960938 616.831054688 275.001953125 608.498046875 c 0
 247.668945312 600.165039062 225.501953125 588.33203125 208.501953125 572.999023438 c 0
 191.501953125 557.666015625 183.001953125 540.666015625 183.001953125 521.999023438 c 0
 183.001953125 500.666015625 193.334960938 482.666015625 214.001953125 467.999023438 c 0
 236.668945312 452.666015625 269.001953125 443.999023438 311.001953125 441.999023438 c 0
 352.334960938 439.999023438 389.334960938 434.33203125 422.001953125 424.999023438 c 0
 454.001953125 415.666015625 479.168945312 403.999023438 497.501953125 389.999023438 c 0
 515.834960938 375.999023438 531.16796875 359.499023438 543.500976562 340.499023438 c 0
 555.833984375 321.499023438 564.166992188 302.999023438 568.5 284.999023438 c 0
 572.833007812 266.999023438 575 247.666015625 575 226.999023438 c 0
 575 196.33203125 569.5 167.33203125 558.5 139.999023438 c 0
 547.5 112.666015625 532.333007812 88.8330078125 513 68.5 c 0
 493.666992188 48.1669921875 471 30.6669921875 445 16 c 0
 417 1.3330078125 387 -9.6669921875 355 -17 c 0
 322.333007812 -24.3330078125 288.666015625 -28.3330078125 253.999023438 -29 c 0
 200.666015625 -29 154.333007812 -19 115 1 c 0
 77 20.3330078125 50.6669921875 44.3330078125 36 73 c 0
 35.3330078125 81 35 81 35 73 c 1
EndSplineSet
Validated: 524289
EndChar

StartChar: T
Encoding: 84 84 52
Width: 600
GlyphClass: 2
Flags: W
HStem: -13.002 21G<296.002 317.668> 591 110<378.266 560.528> 622 92<39.4407 229.029>
VStem: 233.002 135.998<346.537 596> 246.002 136.998<4.95311 342.594>
LayerCount: 2
Fore
SplineSet
356 1 m 0xc8
 342 -8.3330078125 326.334960938 -13.001953125 309.001953125 -13.001953125 c 2
 305.001953125 -13.001953125 l 2
 287.001953125 -13.001953125 272.001953125 -7.3349609375 260.001953125 3.998046875 c 0
 249.334960938 13.3310546875 244.001953125 25.998046875 244.001953125 41.998046875 c 0
 244.001953125 44.6650390625 244.334960938 48.83203125 245.001953125 54.4990234375 c 0
 245.668945312 60.166015625 246.001953125 73.3330078125 246.001953125 94 c 0xc8
 246.001953125 140 243.834960938 222.333007812 239.501953125 341 c 0
 235.168945312 459.666992188 233.001953125 544 233.001953125 594 c 2
 233.001953125 600 l 1
 147.668945312 604 98.6689453125 607 86.001953125 609 c 0
 69.3349609375 611.666992188 55.66796875 616 45.0009765625 622 c 0
 31.0009765625 630.666992188 24.0009765625 642.666992188 24.0009765625 658 c 2
 24.0009765625 661 l 2
 24.0009765625 675 29.0009765625 687.666992188 39.0009765625 699 c 0
 48.333984375 709 60.6669921875 714 76 714 c 0xb0
 80 714 84.3330078125 713.666992188 89 713 c 0
 125 707 267.666992188 703 517 701 c 0
 536.333007812 701 551 696 561 686 c 0
 571 676 576 664 576 650 c 0
 576 634.666992188 571 621 561 609 c 0
 551 597 537 591 519 591 c 0
 518.333007812 591 468.333007812 592.666992188 369 596 c 1xd0
 370.333007812 465.333007812 375 281.333007812 383 44 c 0
 381 25.3330078125 372 11 356 1 c 0xc8
EndSplineSet
Validated: 524289
EndChar

StartChar: U
Encoding: 85 85 53
Width: 600
GlyphClass: 2
Flags: W
HStem: -28.9971 114.999<211.683 378.941> 689.002 20G<75.6655 93.999 515 527.333>
VStem: 19.4551 118.544<176.994 688.531> 462.499 117.501<180.084 691.435>
LayerCount: 2
Fore
SplineSet
450 17 m 0
 432 7 412.99609375 -1.6640625 392.99609375 -8.9970703125 c 0
 373.663085938 -16.330078125 354.830078125 -21.4970703125 336.497070312 -24.4970703125 c 0
 318.1640625 -27.4970703125 298.831054688 -28.9970703125 278.498046875 -28.9970703125 c 0
 258.165039062 -28.9970703125 236.665039062 -26.1640625 213.998046875 -20.4970703125 c 0
 191.331054688 -14.830078125 168.331054688 -5.330078125 144.998046875 8.0029296875 c 0
 122.998046875 21.3359375 103.331054688 38.1689453125 85.998046875 58.501953125 c 0
 68.6650390625 78.8349609375 54.33203125 104.834960938 42.9990234375 136.501953125 c 0
 31.666015625 168.168945312 25.3330078125 203.668945312 24 243.001953125 c 0
 20.9697265625 352.708007812 19.455078125 437.065429688 19.455078125 496.07421875 c 0
 19.455078125 501.969726562 19.4697265625 507.612304688 19.5 513.001953125 c 0
 19.8330078125 572.334960938 20.666015625 615.66796875 21.9990234375 643.000976562 c 0
 22.666015625 663.66796875 28.9990234375 679.834960938 40.9990234375 691.501953125 c 0
 52.9990234375 703.168945312 67.33203125 709.001953125 83.9990234375 709.001953125 c 0
 103.999023438 709.001953125 118.666015625 702.334960938 127.999023438 689.001953125 c 0
 134.666015625 679.001953125 137.999023438 665.334960938 137.999023438 648.001953125 c 0
 137.999023438 430.668945312 139.666015625 299.668945312 142.999023438 255.001953125 c 0
 144.33203125 236.334960938 146.83203125 219.66796875 150.499023438 205.000976562 c 0
 154.166015625 190.333984375 159.666015625 175.333984375 166.999023438 160.000976562 c 0
 174.33203125 144.66796875 183.33203125 131.834960938 193.999023438 121.501953125 c 0
 204.666015625 111.168945312 218.166015625 102.668945312 234.499023438 96.001953125 c 0
 250.83203125 89.3349609375 269.33203125 86.001953125 289.999023438 86.001953125 c 0
 337.999023438 86.001953125 376.83203125 100.168945312 406.499023438 128.501953125 c 0
 436.166015625 156.168945312 452.999023438 200.001953125 456.999023438 260.001953125 c 0
 458.999023438 287.334960938 460.666015625 318.334960938 461.999023438 353.001953125 c 0
 462.33203125 376.3359375 462.499023438 397.8359375 462.499023438 417.501953125 c 0
 462.499023438 437.168945312 462.33203125 455.001953125 461.999023438 471.001953125 c 0
 461.33203125 538.334960938 460.999023438 577.16796875 460.999023438 587.500976562 c 2
 460.999023438 634.000976562 l 2
 460.999023438 649.333984375 462.33203125 662.500976562 464.999023438 673.500976562 c 0
 467.666015625 684.500976562 472.333007812 692.66796875 479 698.000976562 c 0
 485.666992188 703.333984375 492 706.666992188 498 708 c 0
 504 709.333007812 511 710 519 710 c 0
 535.666992188 710 549.166992188 704 559.5 692 c 0
 569.833007812 680 575.333007812 664.333007812 576 645 c 0
 578.666992188 594.333007812 580 537.166015625 580 473.499023438 c 0
 580 409.83203125 578.666992188 339.33203125 576 261.999023438 c 0
 574.666992188 231.999023438 570.5 203.83203125 563.5 177.499023438 c 0
 556.5 151.166015625 547.5 128.333007812 536.5 109 c 0
 525.5 89.6669921875 512.666992188 72 498 56 c 0
 483.333007812 40 467.333007812 27 450 17 c 0
EndSplineSet
Validated: 524289
EndChar

StartChar: V
Encoding: 86 86 54
Width: 600
GlyphClass: 2
Flags: W
HStem: -12 21G<298.004 315> 691.001 20G<61.002 69.002>
LayerCount: 2
Fore
SplineSet
306 -12 m 2
 298.00390625 -11.9990234375 l 2
 282.00390625 -11.9990234375 268.336914062 -9.666015625 257.00390625 -4.9990234375 c 0
 241.670898438 1.0009765625 230.670898438 11.0009765625 224.00390625 25.0009765625 c 0
 194.00390625 95.66796875 152.670898438 205.000976562 100.00390625 353.000976562 c 0
 49.3369140625 502.333984375 20.669921875 593.333984375 14.0029296875 626.000976562 c 0
 11.3359375 639.333984375 9.6689453125 651.666992188 9.001953125 663 c 0
 9.001953125 671.666992188 11.3349609375 679.666992188 16.001953125 687 c 0
 21.3349609375 695.666992188 30.001953125 702.333984375 42.001953125 707.000976562 c 0
 49.3349609375 709.66796875 57.001953125 711.000976562 65.001953125 711.000976562 c 0
 73.001953125 711.000976562 81.3349609375 709.333984375 90.001953125 706.000976562 c 0
 105.334960938 699.333984375 116.66796875 685.333984375 124.000976562 664.000976562 c 0
 128.000976562 649.333984375 161.66796875 549.000976562 225.000976562 363.000976562 c 0
 254.333984375 278.333984375 277.000976562 214.000976562 293.000976562 170.000976562 c 1
 319.000976562 240.66796875 353.000976562 335.66796875 395.000976562 455.000976562 c 2
 469.000976562 664.000976562 l 2
 477.000976562 684.66796875 489.000976562 698.334960938 505.000976562 705.001953125 c 0
 513.66796875 708.334960938 522.16796875 710.16796875 530.500976562 710.500976562 c 0
 538.833984375 710.833984375 546.666992188 709.666992188 554 707 c 0
 563.333007812 703.666992188 571.333007812 698.666992188 578 692 c 0
 584 684.666992188 588 676 590 666 c 2
 590 660 l 2
 590 648 587.333007812 635 582 621 c 0
 567.333007812 587 533 494 479 342 c 0
 421.666992188 188 385 83 369 27 c 0
 365 15.6669921875 358.666992188 6.6669921875 350 0 c 0
 338.666992188 -8 324 -12 306 -12 c 2
EndSplineSet
Validated: 524289
EndChar

